<?xml version="1.0" standalone="no"?><!DOCTYPE svg PUBLIC "-//W3C//DTD SVG 1.1//EN" "http://www.w3.org/Graphics/SVG/1.1/DTD/svg11.dtd"><svg t="1779979149743" class="icon" viewBox="0 0 1024 1024" version="1.1" xmlns="http://www.w3.org/2000/svg" p-id="9988" xmlns:xlink="http://www.w3.org/1999/xlink" width="200" height="200"><path d="M323.8 34.62c-65.4 0-127.5 16.44-177.92 48.38-57.64 36.5-99.7 94.16-111.7 168.4-11.98 74 5.66 163.6 62.5 266 39.68 71.2 88.5 127.6 119.32 187 24.8 51.4 36.8 93.4 31.2 150.4-29.4 5.8-51.46 31.4-51.46 62.4 0 35 28.46 63.6 63.46 63.6 35.2 0 63.6-28.6 63.6-63.6 0-26.4-16-48.8-38.8-58.6 2-20.4 2-39.6 0.2-58.2 18.4-21.6 39.8-32.6 66.4-36.2 29.4-4.2 65.4 1.4 106.6 16.2 10.2 19.4 19.4 40 27.4 62.2-18.4 10.8-30.6 30.8-30.6 53.6 0 34.2 27.8 62 62 62 34.4 0 62.2-27.8 62.2-62 0-32.6-25-59.4-57-62-8-23.2-17.4-44.8-27.8-65.2 20.4-19.8 55-33.4 95.2-41.2 44-8.6 93.4-10.8 134.8-12 14 12.8 27.8 26.4 41.2 40.6-1 4.4-1.6 9.2-1.6 14 0 32.8 26.6 59.2 59.2 59.2 32.8 0 59.2-26.4 59.2-59.2 0-32.6-26.4-59.2-59.2-59.2-13.8 0-26.6 4.8-36.6 12.8-13-13.4-26.2-26-39.6-38.2-2-98.2 26.6-175.2 75.6-238.4 17.8-4.4 36-10.8 54.8-19.4 11.6 11.4 27.4 18.4 44.8 18.4 35 0 63.4-28.4 63.4-63.6 0-35-28.4-63.4-63.4-63.4s-63.6 28.4-63.6 63.4c0 4.2 0.4 8.4 1.2 12.4-15.6 7-30.4 12.2-44.8 16-31-39.8-33.8-71-25.2-105.6 9.2-36.8 34.6-77.2 59.8-123.8 12.6-8.04 24-17.76 33.4-29.24 11 8.32 24.6 13.24 39.4 13.24 35.8 0 65-29.06 65-64.94 0-35.86-29.2-64.92-65-64.92s-65 29.06-65 64.92c0 6.8 1.2 13.36 3 19.5-22.4 33.66-65.4 52.46-117.6 53.38-53.2 0.94-114.2-17.12-165.4-54.5-80-47.82-172.2-83.56-252.6-84.62z m93.6 50c37.2 9.56 74.2 24.92 109.4 46.44l0.2 29.5c-35.4-26.46-74.2-54.5-108.6-72.3z m-123.6 6.44l9.2 31.56c-22.4-10.4-45.8-18.7-70.6-24.18 21.4-4.4 41.4-8.06 61.4-7.38z m40.4 5.44c18.2 4.14 36.8 10.92 52.4 18.06l19.6 73.88c-18.4-14.54-37.2-28.26-57-40.56z m-125.6 35.56c37 6.06 71 19.36 103.2 37.44l-21.6 37.3c-28-26.66-56.4-53.5-81.6-74.74z m223 6.68c21.6 13.3 42.8 28.54 63.8 44.56 10.6 8.24 21.2 16.68 31.8 25.1l0.6 88.2c-23.4-21.2-47.2-43.8-71.8-65.8z m132.8 17.7c25.2 17.06 52.4 30.16 79.8 39.24l1.4 56.52c-26-17.4-53-39.2-81-61.76z m-384.58 0.36c31.18 26.06 61.18 54.6 90.78 84.2l-27.8 47.8c-27.2-45.2-49.46-90.64-62.98-132z m163.78 32.44c27.4 18.56 53.6 39.96 79.4 62.76-4 12.2-24.4 43.8-32.2 56.2-24.4-24.4-48.6-49.4-73.2-74z m449.4 15.76c-16.4 29.2-31.6 57.8-39.8 88.4-22.4 0.4-45.6-6.4-69.8-18.6l-1.6-69.2c38.2 7 76 7.6 111.2-0.6z m-685.82 16c0.6 43.6 7.44 82.6 18.82 117.8L93.5 332c0.7-41 5.64-79 13.68-111z m64.76 17.4c12.92 27.2 27.54 52.4 43.46 75.4l-27.1 11.6c-9.48-30.6-15.56-60.6-16.36-87z m392.86 0.2c28.6 21.8 53.6 42 81.8 58.4l2 91.4c-28.2-15.2-55.8-35.6-83.2-58.8z m-267 30c23.8 24.2 47.6 49 72 73.2l-32.8 52.8c-25.2-22.2-48.6-46.2-70-73z m155.4 10.4c26 23.4 50 46.2 72.8 66.2l-34.2 57.2c-25.4-21.2-49.8-43.8-73.6-67.2z m231.2 37.4c20.6 8.6 41.8 13.8 63.4 14.4-0.4 28.2 7.2 57.4 25.8 87.2-31.8 1.2-60-2.6-87.2-12.4z m-446 28.2c19.8 25 41.2 47.6 64 68.6l-45.4 16c-21.4-23.6-39.6-45.6-53-70z m158.8 24c24 23.2 48.6 45.8 74.6 67l-24.8 41.4c-28-18.8-57.8-40-81-58.4z m157.8 1c28 22.6 57 42.8 88 58l-32.6 57c-31.6-17.2-61.2-37-89.2-58.6 11.2-18.8 22.6-37.6 33.8-56.4z m-457.06 1.6l44.18 9.2c10.66 23.4 23.32 45.2 37.44 65.8l-55.06-3.8c-12.08-21.4-21.38-44.8-26.56-71.2z m237.06 70.2c22.8 18.8 46.6 36.2 71 52.8l-48.6 16.4c-24.2-16.6-49-35-69.6-52.6z m342.6 0.8c30 10.2 65 14.4 93.2 13.2-15.2 24.2-28.2 50.2-38 78.2-31.6-8.4-61.2-19.2-89-32 11.2-19.8 22.6-39.6 33.8-59.4z m-176.2 16.8c28.4 21.4 58.2 41.2 90.2 58.6L570 555.4c-31-19.8-61.8-38.8-91.6-58 7.6-12.8 15.4-25.6 23-38.4z m-254 13.2c21.6 21.2 46 36.2 66 53.2l-13.4 4.4c-18.6-19-39-40.8-52.6-57.6z m-96.4 9.4c19.34 1.2 38.64 3 58 4 15.2 17.8 31.2 35.8 45 50.4-14.6 1.4-34.8 1.8-51.2 2.4-18.54-19.4-37.7-38.8-51.8-56.8z m294.2 39c30.2 19.4 60.8 38.4 91.4 58l-48 21.6c-30.2-22.6-64.4-45.4-92-63.4z m179.8 13.8c30.2 14 62.4 25.8 96.8 35-6.6 26.8-10.8 55-12.2 85-35.4-29-71.8-54.6-108.2-78.6 7.8-13.8 15.8-27.6 23.6-41.4z m-273.2 17.4c34.2 23.2 68 44.6 97.6 66l-45.8 20.6c-24.2-28-49.6-53.8-74.4-79z m-62.4 20.8c23.2 23.4 46.4 46.6 68.8 71.2h-49.6c-21.4-25.2-44.8-47.6-67.8-69.4 16.2-0.2 32.4-1.8 48.6-1.8z m-101.72 3.8c23.52 22.6 47.32 44.4 69.52 67.4H224c-14.4-22.6-29.84-44.8-45.32-67.2 3 0 6.02-0.2 9-0.2z m386.52 26.4c36.4 24 72.4 49.2 107.4 77.2-39.6 2.6-75.2 6.2-109.4 13-12.2-24.6-30.2-46.2-51.8-66 17.8-8.2 35.8-16.2 53.8-24.2z m-91.4 41c22.6 19 40.6 38.6 52.4 59.4-22.6 7.6-43.4 18-60.2 32.4-14.4-24.2-30.2-46.4-46.6-67.4zM246 681.2h44.4c12.6 15.8 24.2 32.4 34 50.4-17.4 5.2-33.6 13.4-48.2 25-8.2-28-18-52.8-30.2-75.4z m91.4 0h53.2c13.6 16.6 26.6 33.8 38.8 52-23.2-5.6-45.2-8.4-66.2-7.6-8.2-15.8-17.2-31.8-25.8-44.4z" p-id="9989"></path></svg>