<svg t="1779964697252" class="icon" viewBox="0 0 1024 1024" version="1.1" xmlns="http://www.w3.org/2000/svg" p-id="18183" xmlns:xlink="http://www.w3.org/1999/xlink" width="200" height="200" transform="matrix(-1,0,0,1,0,0)"><path d="M31.284 472.5a86.688 86.688 0 0 0 0 79.116c47.216 91.864 105.708 161.16 168.356 213.396C289.996 716.768 351.508 621.584 351.508 512c0-109.552-61.472-204.712-151.784-252.968-62.68 52.244-121.204 121.56-168.44 213.468zM915.248 504.74l56.7-36.152V350.856c0-10.076-9.044-17.272-18.408-15.816h0.004c-76.3 1.04-246.796 102.356-246.796 102.356v175.16s117.096 68.172 245.096 102.56l-0.396-0.68c10.064 2.992 20.504-4.512 20.504-15.336v-117.732l-56.7-36.152c-14.8-9.436-14.8-31.044-0.004-40.476z" fill="#FFC34C" p-id="18184"></path><path d="M970.124 99.512c0.06 0.012 0.104 0.048 0.164 0.064h0.004c-0.06-0.012-0.104-0.052-0.168-0.064zM892.848 910.12c-1.288-0.732-2.64-1.516-4.036-2.344l-0.444-0.264a256.344 256.344 0 0 1-8.912-5.568l-0.592-0.388c-1.58-1.036-3.2-2.12-4.864-3.264l-0.244-0.168a284.088 284.088 0 0 1-10.768-7.804l-0.528-0.404a307.556 307.556 0 0 1-11.428-9.164l-0.552-0.464a327.248 327.248 0 0 1-12.212-10.86l-0.348-0.324a345.532 345.532 0 0 1-19.664-20.02l-0.168-0.188a362.32 362.32 0 0 1-13.36-15.64l-0.128-0.16c-38.38-47.6-76.604-119.072-94.74-224.108l-0.12-0.712v0.012l-0.004-0.032a679.472 679.472 0 0 1-2.992-18.904V434.62c0.92-6.44 1.936-12.728 3-18.932-0.172 0.992-0.312 2.032-0.476 3.028 0.308-1.82 0.604-3.656 0.92-5.456 0.98-5.588 2-11.112 3.092-16.512 0.36-1.788 0.768-3.496 1.14-5.26 0.896-4.236 1.784-8.476 2.744-12.596 0.388-1.672 0.82-3.272 1.22-4.924 1-4.124 1.996-8.248 3.056-12.252 0.4-1.508 0.832-2.952 1.24-4.444 1.112-4.064 2.228-8.12 3.4-12.064 0.396-1.332 0.816-2.604 1.22-3.92 1.232-4.028 2.472-8.036 3.764-11.94 0.376-1.14 0.776-2.232 1.156-3.36 1.356-4.008 2.728-7.984 4.144-11.856 0.352-0.956 0.716-1.876 1.072-2.828 1.48-3.976 2.98-7.912 4.52-11.748 0.316-0.788 0.644-1.548 0.964-2.332 1.608-3.944 3.232-7.836 4.896-11.628 0.268-0.608 0.54-1.196 0.812-1.804 1.74-3.924 3.504-7.788 5.3-11.556 0.204-0.428 0.412-0.844 0.62-1.272 1.88-3.912 3.78-7.752 5.712-11.492l0.396-0.756c2.02-3.9 4.064-7.712 6.136-11.428l0.132-0.232c43.892-78.716 97.868-117.308 125.916-133.188l0.012-0.008c5.604-3.836 4.188-12.628-2.564-14.296a915.512 915.512 0 0 0-30.92-6.42c-110.156-20.844-205.14-17.664-280.944-5.484v-0.004c-218.416 29.668-378.7 171.364-378.7 171.364l0.036-0.008C137.06 311.264 78.516 380.592 31.264 472.536a86.74 86.74 0 0 0-5.82 14.364 86.42 86.42 0 0 0-3.62 21.908c0.024-0.604-0.008-1.208 0.028-1.812-0.096 1.668-0.144 3.336-0.144 5.008 0 0.544 0.04 1.084 0.048 1.628 0.012 0.624 0.032 1.248 0.056 1.872 0.032 0.728 0.052 1.456 0.1 2.184 0.048 0.732 0.128 1.46 0.196 2.188 0.048 0.536 0.084 1.072 0.144 1.604l0.14 1.212c0.028 0.224 0.068 0.444 0.1 0.668a80.132 80.132 0 0 0 0.84 5.112c0.108 0.56 0.204 1.116 0.324 1.672-0.084-0.384-0.136-0.768-0.212-1.156 0.12 0.6 0.244 1.2 0.376 1.8-0.048-0.216-0.116-0.428-0.164-0.644 0.112 0.52 0.232 1.04 0.356 1.556 0.212 0.912 0.468 1.816 0.712 2.72 0.228 0.852 0.416 1.716 0.672 2.564-0.148-0.492-0.24-0.992-0.376-1.488a86.496 86.496 0 0 0 6.256 15.964c90.732 176.552 223.076 269.808 346.628 318.58 0 0 34.94 21.864 98.484 42.132l-1.132-0.352c83.208 26.704 216.104 50.864 384.352 18.98a917.668 917.668 0 0 0 30.688-6.376c6.748-1.668 8.164-10.472 2.552-14.304z" fill="#FFA730" p-id="18185"></path><path d="M794.176 882.16a11.976 11.976 0 0 1-8.912-3.956 407.28 407.28 0 0 1-14.672-17.18l-0.66-0.824c-51.376-63.916-86.02-145.04-102.972-241.112l-0.588-3.38a12 12 0 0 1 23.648-4.108l0.584 3.348c16.236 92.016 49.224 169.484 98.036 230.216l0.648 0.808a387.148 387.148 0 0 0 13.792 16.148 12 12 0 0 1-8.904 20.04z" fill="#FFB74B" p-id="18186"></path><path d="M588.38 912.172c-63.548-20.264-98.484-42.132-98.484-42.132-123.556-48.768-255.9-142.024-346.628-318.58a86.212 86.212 0 0 1-6.256-15.964c0.14 0.496 0.228 0.996 0.376 1.488-0.256-0.848-0.44-1.712-0.672-2.564-0.244-0.904-0.496-1.808-0.712-2.72-0.12-0.516-0.244-1.036-0.356-1.556-0.12-0.556-0.212-1.116-0.324-1.672a92.696 92.696 0 0 1-0.84-5.112c-0.028-0.224-0.072-0.448-0.1-0.668-0.052-0.404-0.096-0.808-0.14-1.212-0.06-0.532-0.092-1.068-0.144-1.604-0.068-0.732-0.148-1.46-0.196-2.188-0.048-0.728-0.072-1.456-0.1-2.184a97.48 97.48 0 0 1-0.056-1.872c-0.012-0.544-0.048-1.084-0.048-1.628 0-1.668 0.048-3.34 0.144-5.008-0.036 0.604-0.004 1.208-0.028 1.812a86.272 86.272 0 0 1 3.64-21.972 86.392 86.392 0 0 1 5.8-14.3C190.516 380.592 249.06 311.264 311.76 259.02l-0.036 0.008s160.28-141.696 378.7-171.364v0.004c20.912-3.36 43.332-6 67.08-7.672-67.644-4.664-127.768-0.572-179.08 7.672v-0.004c-218.416 29.668-378.7 171.364-378.7 171.364l0.036-0.008C137.06 311.264 78.516 380.592 31.264 472.536a86.74 86.74 0 0 0-5.82 14.364 86.42 86.42 0 0 0-3.62 21.908c0.024-0.604-0.008-1.208 0.028-1.812-0.096 1.668-0.144 3.336-0.144 5.008 0 0.544 0.04 1.084 0.048 1.628 0.012 0.624 0.032 1.248 0.056 1.872 0.032 0.728 0.052 1.456 0.1 2.184 0.048 0.732 0.128 1.46 0.196 2.188 0.048 0.536 0.084 1.072 0.144 1.604l0.14 1.212c0.028 0.224 0.068 0.444 0.1 0.668a80.132 80.132 0 0 0 0.84 5.112c0.108 0.56 0.204 1.116 0.324 1.672-0.084-0.384-0.136-0.768-0.212-1.156 0.12 0.6 0.244 1.2 0.376 1.8-0.048-0.216-0.116-0.428-0.164-0.644 0.112 0.52 0.232 1.04 0.356 1.556 0.212 0.912 0.468 1.816 0.712 2.72 0.228 0.852 0.416 1.716 0.672 2.564-0.148-0.492-0.24-0.992-0.376-1.488a86.496 86.496 0 0 0 6.256 15.964c90.732 176.552 223.076 269.808 346.628 318.58 0 0 34.94 21.864 98.484 42.132l-1.132-0.352c65.54 21.032 161.924 40.468 282.112 32.2-69.012-4.876-126.42-18.18-170.112-32.2l1.124 0.352z" fill="#E58D23" p-id="18187"></path><path d="M135.436 528.992c0.076 0.384 0.132 0.772 0.212 1.156 0.044 0.216 0.116 0.428 0.164 0.644-0.132-0.6-0.256-1.2-0.376-1.8zM1002.124 99.512c0.06 0.012 0.104 0.048 0.164 0.064h0.004c-0.06-0.012-0.104-0.052-0.168-0.064z" fill="#E58D23" p-id="18188"></path><path d="M31.284 472.5a86.688 86.688 0 0 0 0 79.116c47.216 91.864 105.708 161.16 168.356 213.396C289.996 716.768 351.508 621.584 351.508 512c0-109.552-61.472-204.712-151.784-252.968-62.68 52.244-121.204 121.56-168.44 213.468zM406.96 481.76l-2.604 1.344 2.604-1.344 116.604-60.096 5.2-2.68zM560.188 514.756z" fill="#FFC34C" p-id="18189"></path><path d="M403.508 512.056v19.088-0.004a15.48 15.48 0 0 0 8.388 13.76l126.46 65.176c0.252 0.128 0.512 0.212 0.764 0.332a27.452 27.452 0 0 0 9.724 2.676 27.392 27.392 0 0 1-8.832-2.288c17.924 7.84 38.412-5.184 38.412-25.144v-34.12c0-0.9-0.112-1.784-0.264-2.66-0.064-0.356-0.156-0.7-0.24-1.048a15.44 15.44 0 0 0-2.968-5.944c-0.348-0.436-0.664-0.896-1.064-1.296l-1.144-1.148-2.292-2.292c-0.064-0.064-0.12-0.136-0.184-0.204-0.172-0.192-0.34-0.384-0.52-0.576a35.26 35.26 0 0 1-9.284-19.212v0a37.356 37.356 0 0 1-0.408-5.048 35.348 35.348 0 0 1 9.972-24.676 7.08 7.08 0 0 1-0.288 0.316c0.24-0.252 0.452-0.528 0.704-0.776l0.936-0.936 1.904-1.904 0.6-0.6c0.132-0.128 0.224-0.288 0.348-0.424-0.124 0.136-0.216 0.296-0.348 0.424l-0.46 0.46 0.46-0.46a15.468 15.468 0 0 0 4.532-10.944v-34.12c0-20.576-21.78-33.848-40.068-24.424l-8.796 4.536-5.996 3.088-111.672 57.556a15.48 15.48 0 0 0-8.388 13.756v19.08z" fill="#FFC34C" p-id="18190"></path><path d="M351.508 512zM306.932 665.484zM351.508 512zM290.624 688.548zM320.94 640.824zM332.504 614.712zM337.788 599.824zM314.796 652.4zM327.568 626.804zM23.784 530.684v0.004l-0.172-0.832 0.172 0.828zM262.652 719.404zM27.724 543.648a89.252 89.252 0 0 1-2.484-7.236v0.004c0.716 2.444 1.552 4.852 2.484 7.232zM22.9 526.092c0.14 0.848 0.292 1.696 0.46 2.544l-0.032-0.164a80.12 80.12 0 0 1-0.428-2.38zM25.116 535.96c-0.132-0.512-0.264-1.028-0.404-1.54-0.244-0.904-0.496-1.808-0.712-2.72l-0.064-0.284c0.352 1.524 0.748 3.036 1.18 4.544zM31.284 551.616zM135.436 528.992c0.076 0.384 0.132 0.772 0.212 1.156 0.044 0.216 0.116 0.428 0.164 0.644-0.132-0.6-0.256-1.2-0.376-1.8z" fill="#F9BB32" p-id="18191"></path><path d="M262.628 719.424c-43.984-45.292-84.712-100.536-119.364-167.964a86.212 86.212 0 0 1-6.256-15.964c0.14 0.496 0.228 0.996 0.376 1.488-0.256-0.848-0.44-1.712-0.672-2.564-0.244-0.904-0.496-1.808-0.712-2.72-0.12-0.516-0.244-1.036-0.356-1.556-0.12-0.556-0.212-1.116-0.324-1.672a92.696 92.696 0 0 1-0.84-5.112c-0.028-0.224-0.072-0.448-0.1-0.668-0.052-0.404-0.096-0.808-0.14-1.212-0.06-0.532-0.092-1.068-0.144-1.604-0.068-0.732-0.148-1.46-0.196-2.188-0.048-0.728-0.072-1.456-0.1-2.184a97.48 97.48 0 0 1-0.056-1.872c-0.012-0.544-0.048-1.084-0.048-1.628 0-1.668 0.048-3.34 0.144-5.008-0.036 0.604-0.004 1.208-0.028 1.812a86.272 86.272 0 0 1 3.64-21.972 86.392 86.392 0 0 1 5.8-14.3c34.656-67.432 75.396-122.66 119.388-167.94a287.704 287.704 0 0 0-62.912-45.552C137.048 311.28 78.516 380.592 31.272 472.52l-0.028 0.056a86.172 86.172 0 0 0-6.772 17.952l0.004-0.012a86.872 86.872 0 0 0-2.648 18.22v-0.004c-0.1 2.66-0.104 5.32 0.04 7.976 0.012 0.188 0.012 0.38 0.024 0.572v-0.004c0.096 1.58 0.236 3.152 0.416 4.724l0.052 0.444v-0.008c0.144 1.208 0.336 2.412 0.532 3.612l0.008 0.052c0.14 0.848 0.292 1.696 0.46 2.54l0.016 0.072 0.084 0.408-0.02-0.12c0.12 0.6 0.244 1.2 0.376 1.8l-0.024-0.096c0.052 0.244 0.096 0.484 0.152 0.724 0.348 1.524 0.744 3.036 1.176 4.544l0.004 0.016c0.04 0.144 0.076 0.292 0.12 0.436a23.596 23.596 0 0 0-0.232-0.916 86.496 86.496 0 0 0 6.256 15.964c47.248 91.936 105.788 161.248 168.484 213.488l-0.108 0.06a288.016 288.016 0 0 0 62.984-45.596z" fill="#F9BB32" p-id="18192"></path><path d="M31.272 472.524v-0.004l0.012-0.02zM341.48 436.74zM327.58 397.216zM332.508 409.296zM345.296 452.412zM337.792 424.188zM350.976 495.076zM347.696 465.384zM349.924 481.736zM306.94 358.532zM349.924 542.276zM347.692 558.62zM350.976 528.92zM320.944 383.184zM345.296 571.596zM314.808 371.62zM290.64 335.472zM341.48 587.264z" fill="#F9BB32" p-id="18193"></path><path d="M153.68 451.044m-24 0a24 24 0 1 0 48 0 24 24 0 1 0-48 0Z" fill="#8C4C17" p-id="18194"></path><path d="M786.748 572.976v-87.58s103.412-61.448 185.204-89.128V350.856c0-10.076-9.044-17.272-18.408-15.816h0.004c-76.3 1.04-246.796 102.356-246.796 102.356v175.16s31.66 18.42 80 40.928v-80.508z" fill="#F9BB32" p-id="18195"></path><path d="M406.96 481.76l116.604-60.096 5.2-2.68zM443.508 532.976c0-5.796 3.236-11.104 8.388-13.756l111.672-57.556-116.608 60.096 121.804-62.776-5.2 2.68 5.996-3.088 8.796-4.536 0.068-0.028v-15.544c0-20.576-21.78-33.848-40.068-24.424l-8.796 4.536-5.996 3.088-111.672 57.556a15.48 15.48 0 0 0-8.388 13.756v38.164a15.48 15.48 0 0 0 8.388 13.76l31.612 16.292v-28.22z" fill="#F9BB32" p-id="18196"></path><path d="M258.656 626.804m-36 0a36 36 0 1 0 72 0 36 36 0 1 0-72 0Z" fill="#F9BB32" p-id="18197"></path><path d="M258.656 626.804m-36 0a36 36 0 1 0 72 0 36 36 0 1 0-72 0Z" fill="#F9BB32" p-id="18198"></path><path d="M406.96 765.012m-36 0a36 36 0 1 0 72 0 36 36 0 1 0-72 0Z" fill="#E58D23" p-id="18199"></path></svg>