<?xml version="1.0" encoding="utf-8"?>
<!-- Generator: Adobe Illustrator 27.5.0, SVG Export Plug-In . SVG Version: 6.00 Build 0)  -->
<svg version="1.1" id="Capa_1" xmlns="http://www.w3.org/2000/svg" xmlns:xlink="http://www.w3.org/1999/xlink" x="0px" y="0px"
	 viewBox="0 0 2122 2122" style="enable-background:new 0 0 2122 2122;" xml:space="preserve">
<g>
	<path style="fill:#EE7E0B;" d="M1357.396,1617.075c31.293,0.426,61.591-11.238,89.186-26.032
		c43.954-23.564,83.308-55.617,115.598-93.596c14.365-16.828,27.939-35.013,39.143-54.265c-4.424,1.647-8.858,3.262-13.304,4.811
		c-3.934,1.376-7.917,2.75-11.854,4.029c-4.646,1.518-9.293,2.989-13.986,4.363c-0.828,0.251-1.663,0.47-2.495,0.716
		c-3.271,0.974-6.546,1.905-9.824,2.824c-3.374,0.947-6.75,1.863-10.134,2.75c-2.911,0.763-5.82,1.518-8.733,2.237
		c-3.849,0.947-7.698,1.829-11.552,2.699c-2.536,0.57-5.069,1.169-7.605,1.705c-6.344,1.342-12.689,2.594-19.025,3.712
		c-5.498,0.962-10.967,1.818-16.409,2.59c-1.983,0.282-3.951,0.497-5.929,0.752c-3.459,0.449-6.923,0.909-10.363,1.282
		c-2.232,0.244-4.444,0.424-6.663,0.636c-3.174,0.305-6.353,0.617-9.51,0.858c-2.268,0.173-4.524,0.297-6.785,0.439
		c-3.091,0.195-6.183,0.39-9.257,0.528c-2.26,0.1-4.512,0.159-6.765,0.229c-3.05,0.095-6.098,0.185-9.133,0.224
		c-2.256,0.031-4.502,0.029-6.748,0.029c-2.991,0-5.978-0.012-8.95-0.066c-2.295-0.039-4.579-0.102-6.865-0.173
		c-2.869-0.088-5.734-0.193-8.594-0.327c-2.397-0.114-4.794-0.244-7.182-0.39c-1.293-0.078-2.597-0.122-3.888-0.21
		c-2.75-0.19-5.5-0.38-8.202-0.616c-4.268-0.38-8.487-0.76-12.707-1.233c-9.52-1.018-18.967-2.292-28.356-3.776
		c-7.51,8.819-14.726,17.888-21.62,27.198c-14.273,19.296-27.454,40.112-32.857,63.535c-0.76,3.32-1.376,6.684-1.757,10.1
		c1.613,1.613,3.225,3.272,4.838,4.836C1292.58,1602.329,1324.632,1616.6,1357.396,1617.075z"/>
	<path style="fill:#010202;" d="M1562.18,1497.447c-32.29,37.979-71.644,70.032-115.598,93.596
		c-27.595,14.794-57.893,26.458-89.186,26.032c-32.765-0.475-64.816-14.746-88.285-37.6c-1.613-1.564-3.225-3.223-4.838-4.836
		c-2.465,20.626,1.993,42.387,15.647,57.844c18.4,20.865,48.979,26.127,76.716,24.468c67.235-3.983,129.157-40.777,176.621-88.573
		c22.015-22.151,77.744-83.318,105.069-140.204c-12.219,5.354-24.56,10.38-37.003,15.008
		C1590.119,1462.434,1576.546,1480.619,1562.18,1497.447z"/>
	<path style="fill:#EE7E0B;" d="M834.605,1507.262c45.754,22.997,99.332,24.797,150.304,19.961
		c63.866-6.022,126.784-21.858,186.053-46.514c5.221-2.183,27.891-14.802,53.883-29.445c-28.704-8.784-57.052-19.057-85.272-30.202
		c-4.979-1.993-9.956-3.983-14.889-5.973c-68.631-27.856-136.764-60.124-207.707-87.344l-1.16-0.456
		c-5.111-1.956-10.285-3.798-15.425-5.698c-42.465,10.877-83.369,25.995-118.94,51.25c-9.247,6.546-17.354,14.131-24.18,22.38
		C757.841,1442.351,791.933,1485.879,834.605,1507.262z"/>
	<path style="fill:#010202;" d="M1170.963,1480.709c-59.269,24.655-122.187,40.492-186.053,46.514
		c-50.972,4.835-104.55,3.035-150.304-19.961c-42.672-21.383-76.765-64.911-77.332-112.041
		c-37.079,44.619-37.696,109.576,21.004,142.86c25.652,14.604,55.617,19.535,84.964,22.38c20.39,1.944,40.826,2.987,61.308,3.082
		c102.416,0.57,205.02-21.761,297.763-65.335c18.226-8.573,39.386-18.906,57.669-32.2c-18.565-4.192-36.923-9.167-55.135-14.743
		C1198.854,1465.908,1176.183,1478.527,1170.963,1480.709z"/>
	<path style="fill:#EE7E0B;" d="M1486.317,525.688c-33.143-11.094-70.316-15.313-102.557-1.895
		c-24.373,10.146-43.669,29.301-61.925,48.363c-35.893,37.503-70.743,76.857-113.746,105.97
		c-43.006,29.114-96.251,47.32-147.127,36.936c-37.883-7.727-74.628-30.868-112.419-22.665
		c-42.721,9.247-67.898,57.184-66.429,100.899c1.05,32.407,20.346,64.078,30.212,95.167c3.413-2.378,6.855-4.738,10.244-7.133
		c1.031-0.731,2.049-1.466,3.079-2.197c5.815-4.124,11.608-8.258,17.367-12.409c1.369-0.984,2.726-1.971,4.09-2.957
		c6.931-5.004,13.835-10.002,20.721-14.996c4.197-3.047,8.402-6.088,12.592-9.118c2.641-1.908,5.289-3.8,7.93-5.698
		c4.042-2.906,8.09-5.8,12.139-8.675c2.779-1.974,5.569-3.927,8.351-5.883c3.708-2.602,7.423-5.192,11.145-7.756
		c3.135-2.163,6.283-4.302,9.43-6.434c3.264-2.207,6.538-4.394,9.822-6.565c3.637-2.409,7.293-4.791,10.957-7.15
		c1.289-0.826,2.558-1.688,3.849-2.509c3.98-2.56,7.964-5.026,11.949-7.491c3.791-2.324,7.583-4.599,11.425-6.828
		c38.643-22.806,79.467-41.914,125.174-54.146c43.81-11.759,88.855-18.872,134.136-21.337c5.121-0.285,10.29-0.521,15.457-0.665
		c1.707-0.046,3.412-0.095,5.12-0.142c2.027-0.043,4.059,0.01,6.086-0.017c5.016-0.063,10.029-0.088,15.042-0.041
		c3.079,0.029,6.153,0.078,9.23,0.151c5.215,0.122,10.426,0.319,15.637,0.56c1.846,0.088,3.698,0.097,5.544,0.2
		c1.186,0.066,2.373,0.161,3.559,0.234c1.359,0.083,2.716,0.176,4.075,0.268c6.085,0.41,12.17,0.875,18.253,1.442
		c3.936,0.38,7.824,0.806,11.759,1.233c38.692,4.363,77.001,12.187,114.27,23.422c35.547,10.76,71.576,25.098,106.667,42.619
		c-0.081-1.42-0.156-2.831-0.224-4.212C1661.893,658.354,1586.836,559.354,1486.317,525.688z"/>
	<path style="fill:#E84A18;" d="M1698.36,784.873c-10.205-5.751-20.526-11.232-30.935-16.431
		c-35.091-17.52-71.121-31.859-106.667-42.619c-37.269-11.235-75.578-19.06-114.27-23.422
		c70.507,101.135,118.584,222.185,143.571,339.914c17.023,80.131,23.377,162.394,19.155,244.185
		c-2.702,52.962-8.344,108.533-21.194,161.493c4.446-1.55,8.879-3.164,13.304-4.811c12.443-4.628,24.784-9.654,37.003-15.008
		c61.506-26.948,119.698-62.665,169.603-103.457c49.975-40.826,90.986-93.5,112.182-151.111c-8.962,4.931-18.302,8.913-27.12,12.09
		c-24.941,8.962-69.7,19.866-92.034,1.328c-5.547-4.646-1.705-12.802,3.937-14.841c12.185-4.458,24.278-0.472,37.125-0.806
		c14.129-0.331,28.022-2.796,41.488-6.969c17.876-5.593,32.1-15.22,46.609-24.892c12.326-55.476,5.357-114.078-29.635-170.17
		C1853.227,893.66,1779.591,830.644,1698.36,784.873z"/>
	<path style="fill:#E84A18;" d="M877.468,911.689c-3.345,2.083-6.736,4.09-10.114,6.117c-39.54,23.732-81.357,43.722-124.733,59.362
		c-10.88,3.917-21.924,7.608-32.823,11.6c-1.101-0.314-2.212-0.612-3.306-0.933c-51.966-15.313-97.294-50.163-131.055-91.934
		c-45.137-55.903-72.258-123.99-96.156-191.698c-6.684-19.013-17.07-40.919-32.763-51.065c-15.646,7.918-29.493,19.63-41.866,37.267
		c-22.95,32.764-30.11,76.148-18.872,114.555c6.684,23.042,19.676,44.758,20.197,68.701c0.855,40.207-32.195,71.549-58.555,101.895
		c-62.826,72.163-98.48,168.321-94.024,263.861c4.458,95.586,49.927,189.279,124.748,248.972c5.025,4.032,10.336,8.11,15.362,12.424
		c19.013-12.234,36.699-28.78,52.772-44.285c74.879-72.205,158.441-135.369,248.302-187.722
		c41.973,17.194,90.475,23.201,136.136,32.675c34.375-55.189,56.66-117.065,65.715-181.881
		C906.581,1047.01,895.96,980.393,877.468,911.689z"/>
	<path style="fill:#E84A18;" d="M1437.338,1096.605c-0.331-73.871-10.48-147.6-29.824-218.913
		c-8.868-32.667-19.63-64.814-32.29-96.202c-11.142-27.737-27.261-54.433-38.499-82.312c-45.281,2.465-90.326,9.578-134.136,21.337
		c-45.708,12.232-86.531,31.34-125.174,54.146c26.599,40.397,45.849,89.091,61.64,132.095c8.161,22.178,15.264,44.706,21.294,67.508
		c17.793-1.864,36.224-0.061,53.527,4.516c66.095,17.45,176.808,59.269,154.379,147.505
		c-21.359,84.049-115.863,168.434-199.87,192.071c-6.775,33.873-15.632,69.764-28.809,102.706
		c28.22,11.145,56.568,21.418,85.272,30.202c18.212,5.576,36.57,10.551,55.135,14.743c13.394,3.023,26.894,5.644,40.526,7.798
		c9.389,1.483,18.836,2.757,28.356,3.776C1407.133,1359.328,1437.906,1228.797,1437.338,1096.605z"/>
	<path style="fill:#E84A18;" d="M1479.827,562.671c-4.548-2.672-9.82,3.766-5.746,7.447c21.474,19.396,42.655,39.91,60.855,62.463
		c18.188,22.536,29.786,49.174,47.552,71.669c1.293,1.639,4.563,0.326,4.3-1.781C1579.774,646.14,1526.5,590.094,1479.827,562.671z"
		/>
	<path style="fill:#E84A18;" d="M1362.585,572.869c-4.041-0.231-5.335,5.535-2.017,7.454c20.88,12.078,44.029,19.036,64.619,32.107
		c24.416,15.503,45.098,34.806,62.513,57.858c2.234,2.957,7.255,0.278,5.118-2.992
		C1465.326,625.268,1415.969,575.911,1362.585,572.869z"/>
	<path style="fill:#E84A18;" d="M1381.482,621.919c-15.062-9.99-30.967-21.366-48.402-26.621c-4.811-1.449-9.488,5.52-5.189,8.916
		c13.613,10.743,29.89,17.99,44.578,27.199c14.421,9.043,28.139,20.173,43.983,26.58c2.207,0.891,4.592-2.227,3.179-4.136
		C1409.742,640.486,1395.211,631.025,1381.482,621.919z"/>
	<path style="fill:#E84A18;" d="M944.588,737.076c-6.192,1.057-5.357,10.148,0,11.715c12.158,3.552,24.619,6.168,36.322,11.089
		c10.728,4.511,21.262,10.55,32.753,12.85c3.576,0.716,6.015-2.662,4.519-5.876C1006.559,741.901,969.397,732.842,944.588,737.076z"
		/>
	<path style="fill:#EFC88D;" d="M916.978,1327.745c70.943,27.221,139.077,59.488,207.707,87.344
		c-1.849-0.76-3.744-1.518-5.593-2.324c3.981-10.572,7.918-21.147,11.235-31.863c5.927-19.026,10.95-38.307,15.289-57.749
		c-44.378,5.825-87.07-11.094-108.695-52.015c-33.379-63.25-17.496-153.481,44.807-188.472
		c-14.746-31.864,1.471-72.307,30.631-91.842c8.122-5.452,16.95-9.423,26.183-12.227c-5.73-20.957-12.356-41.661-19.973-61.978
		c-11.048-29.444-24.18-58.129-39.021-85.866c-7.671-14.302-16.665-27.942-25.474-41.722c-1.291,0.824-2.592,1.63-3.883,2.458
		c-3.664,2.358-7.32,4.74-10.957,7.15c-3.284,2.171-6.558,4.358-9.822,6.565c-3.148,2.132-6.295,4.271-9.43,6.434
		c-3.722,2.565-7.437,5.155-11.145,7.756c-2.782,1.956-5.571,3.909-8.351,5.883c-4.049,2.874-8.097,5.768-12.139,8.675
		c-2.641,1.898-5.289,3.79-7.93,5.698c-4.19,3.03-8.395,6.071-12.592,9.118c-6.886,4.994-13.79,9.993-20.721,14.996
		c-1.364,0.987-2.721,1.973-4.09,2.957c-5.759,4.151-11.552,8.285-17.367,12.409c-1.03,0.731-2.048,1.467-3.079,2.197
		c-3.389,2.395-6.831,4.755-10.244,7.133c-3.449,2.402-6.865,4.821-10.343,7.201c-4.838,3.32-9.768,6.589-14.699,9.768
		c2.845-1.849,5.688-3.698,8.533-5.596c28.024,68.229,31.53,149.783,22.097,221.189c-8.677,65.715-30.821,129.016-65.055,185.437
		c5.157,1.257,10.224,2.629,15.232,4.078c0.853,0.246,1.698,0.505,2.544,0.755c4.891,1.457,9.732,2.979,14.465,4.651
		c5.13,1.822,10.195,3.764,15.293,5.646c5.14,1.9,10.314,3.742,15.425,5.698L916.978,1327.745z"/>
	<path style="fill:#E84A18;" d="M995.928,791.655c-17.924-12.436-43.388-13.201-64.297-11.255c-10.479,0.975-10.472,15.286,0,16.297
		c20.507,1.983,42.643,6.621,63.165,3.623C999.227,799.672,998.878,793.702,995.928,791.655z"/>
	<path style="fill:#EFC88D;" d="M1586.502,1277.826c2.56-79.42-4.74-159.126-22.19-236.648
		c-16.073-71.501-40.587-141.106-72.97-206.87c-23.695-48.102-51.939-92.034-82.455-135.018c-1.864-0.102-3.73-0.178-5.591-0.265
		c-5.211-0.241-10.422-0.439-15.637-0.56c-3.077-0.073-6.151-0.122-9.23-0.151c-5.014-0.046-10.027-0.022-15.042,0.041
		c-2.015,0.027-4.032,0.042-6.047,0.085c13.445,22.034,23.203,47.415,32.772,70.249c14.746,35.133,27.216,71.167,37.22,107.914
		c19.535,71.595,29.776,145.8,30.251,220.002c0.899,132.409-30.195,263.871-87.788,382.772c1.289,0.088,2.572,0.185,3.864,0.263
		c2.388,0.146,4.784,0.275,7.182,0.39c2.86,0.134,5.725,0.239,8.594,0.327c2.286,0.07,4.57,0.134,6.865,0.173
		c2.972,0.054,5.959,0.066,8.95,0.066c2.246,0,4.492,0.003,6.748-0.029c3.035-0.039,6.083-0.129,9.133-0.224
		c2.253-0.07,4.504-0.129,6.765-0.229c3.074-0.139,6.166-0.334,9.257-0.528c2.26-0.141,4.516-0.265,6.785-0.439
		c3.157-0.241,6.336-0.553,9.51-0.858c2.219-0.212,4.431-0.392,6.663-0.636c3.439-0.373,6.904-0.833,10.363-1.282
		c1.978-0.255,3.946-0.47,5.929-0.752c5.442-0.772,10.911-1.627,16.409-2.59c6.336-1.118,12.682-2.37,19.025-3.712
		c2.536-0.536,5.069-1.135,7.605-1.705c3.854-0.87,7.703-1.752,11.552-2.699c2.914-0.719,5.822-1.474,8.733-2.237
		c3.384-0.886,6.76-1.802,10.134-2.75c3.279-0.919,6.553-1.849,9.824-2.824c0.836-0.249,1.669-0.519,2.504-0.772
		C1573.757,1397.414,1584.558,1338.921,1586.502,1277.826z"/>
	<path style="fill:#010202;" d="M253.398,1239.418c-4.456-95.539,31.198-191.698,94.024-263.861
		c26.361-30.346,59.41-61.688,58.555-101.895c-0.521-23.944-13.513-45.659-20.197-68.701
		c-11.238-38.407-4.078-81.791,18.872-114.555c12.373-17.637,26.219-29.349,41.866-37.267c-6.165-4.078-13.181-6.258-21.147-5.785
		c-10.906,0.711-20.718,6.828-29.349,13.561c-69.415,54.051-90.087,161.398-45.708,237.357
		c-83.591,63.298-141.722,159.264-159.123,262.674c-17.45,103.413,6.068,213.176,64.341,300.372
		c16.738,25.035,38.406,49.69,67.802,56.185c24.894,5.5,48.409-2.75,70.173-16.689c-5.025-4.314-10.336-8.393-15.362-12.424
		C303.325,1428.697,257.856,1335.004,253.398,1239.418z"/>
	<path style="fill:#E13C13;" d="M412.106,1009.073c-19.491,24.872-42.938,46.643-60.414,72.969
		c-48.694,73.359-43.667,169.963-22.945,255.539c4.748,19.61,11.199,40.526,27.418,52.526c15.752,11.654,36.877,11.415,55.493,4.136
		c23.089-39.866,55.924-75.932,90.948-106.96c31.03-42.565,67.859-80.904,109.345-113.364c8.667-6.782,16.631-13.764,23.771-20.88
		c-41.732,5.026-81.754,10.67-122.416,27.123c-25.676,10.387-50.319,23.464-73.391,38.777c-21.016,13.946-38.96,34.86-61.101,46.378
		c-5.834,3.035-12.76-3.201-9.225-9.223c12.901-21.971,40.582-38.424,61.693-51.927c23.386-14.96,48.246-27.474,74.107-37.547
		c43.235-16.838,95.81-30.87,144.092-28.819c5.73-7.14,10.543-14.377,14.227-21.671c-24.122-3.856-47.591-10.458-72.139-12.704
		c-22.884-2.092-46.017-2.516-68.959-1.262c-51.031,2.789-96.292,16.509-144.187,32.791c-10.263,3.488-17.026-12.738-7.364-17.469
		c45.893-22.463,100.73-32.171,151.552-33.391c46.248-1.111,101.912,3.579,144.538,24.302c3.439-8.745,5.216-17.544,5.047-26.317
		c-71.951-56.005-146.27-99.193-238.47-106.748C427.824,987.299,420.287,998.634,412.106,1009.073z"/>
	<path style="fill:#E13C13;" d="M669.943,1067.104c-4.957-17.388-18.263-34.482-42.294-50.633
		c-73.237-49.223-120.316-124.533-149.676-206.616c-5.401-15.098-16.451-33.924-31.854-29.459c-4.336,1.259-7.924,4.341-10.838,7.79
		c-15.106,17.871-13.869,44.436-7.518,66.957c6.351,22.524,17.004,44.209,18.197,67.578c0.631,12.356-1.462,24.451-5.377,36.097
		C524.323,969.061,613.234,1003.022,669.943,1067.104z"/>
	<path style="fill:#EE7E0B;" d="M411.658,1394.244c-0.468,0.814-0.969,1.613-1.432,2.429c-3.425,6.044,5.393,13.589,10.007,7.723
		c34.734-44.18,68.217-86.77,111.262-123.445c21.732-18.511,44.909-35.342,69.159-50.399c22.156-13.754,49.591-23.096,69.459-39.754
		c1.895-1.591,0.441-5.535-2.149-5.186c-24.741,3.318-49.033,19.659-70.217,32.097c-24.473,14.368-47.822,30.602-69.954,48.358
		c-8.448,6.78-16.877,13.859-25.189,21.218C467.583,1318.313,434.747,1354.378,411.658,1394.244z"/>
	<path style="fill:#EE7E0B;" d="M505.388,1166.622c-25.861,10.073-50.721,22.587-74.107,37.547
		c-21.111,13.503-48.792,29.956-61.693,51.927c-3.535,6.022,3.391,12.258,9.225,9.223c22.141-11.518,40.085-32.431,61.101-46.378
		c23.072-15.313,47.715-28.39,73.391-38.777c40.663-16.453,80.685-22.097,122.416-27.123c11.267-1.359,22.651-2.672,34.214-4.139
		c4.578-0.58,6.86-8.146,1.223-9.023c-7.091-1.104-14.339-1.764-21.679-2.076C601.198,1135.752,548.623,1149.784,505.388,1166.622z"
		/>
	<path style="fill:#EE7E0B;" d="M522.608,1084.098c-50.821,1.22-105.659,10.928-151.552,33.391
		c-9.661,4.731-2.899,20.957,7.364,17.469c47.895-16.282,93.157-30.002,144.187-32.791c22.943-1.255,46.075-0.831,68.959,1.262
		c24.548,2.246,48.017,8.848,72.139,12.704c2.293,0.365,4.584,0.743,6.892,1.052c3.266,0.438,5.944-3.946,2.455-5.822
		c-1.927-1.038-3.922-1.995-5.907-2.962C624.52,1087.677,568.857,1082.987,522.608,1084.098z"/>
	<path style="fill:#EE7E0B;" d="M669.943,1067.104c-56.709-64.083-145.62-98.043-229.359-108.285
		c-5.525-0.675-11.028-1.267-16.494-1.737c-11.126-0.96-11.284,16.874,0,17.484c3.252,0.176,6.426,0.507,9.634,0.77
		c92.2,7.554,166.519,50.743,238.47,106.748l1.184,0.909c3.922,3.06,8.548-1.523,5.449-5.449
		C675.989,1073.95,672.968,1070.525,669.943,1067.104z"/>
	<path style="fill:#010202;" d="M1457.584,1096.605c-0.475-74.202-10.716-148.407-30.251-220.002
		c-10.005-36.748-22.475-72.782-37.22-107.914c-9.569-22.833-19.327-48.215-32.772-70.249l-0.039-0.068
		c-1.708,0.046-3.413,0.095-5.12,0.142c-5.167,0.144-10.336,0.38-15.457,0.665c11.238,27.878,27.357,54.574,38.499,82.312
		c12.66,31.388,23.422,63.535,32.29,96.202c19.344,71.313,29.493,145.043,29.824,218.913
		c0.568,132.193-30.205,262.724-88.475,380.976c4.219,0.472,8.438,0.853,12.707,1.233c2.702,0.236,5.452,0.426,8.202,0.616
		l0.025-0.053C1427.389,1360.476,1458.483,1229.014,1457.584,1096.605z"/>
	<path style="fill:#010202;" d="M1416.476,699.726c-1.359-0.092-2.716-0.185-4.075-0.268c-1.186-0.073-2.373-0.168-3.559-0.234
		l0.046,0.066c30.516,42.984,58.76,86.916,82.455,135.018c32.382,65.764,56.896,135.369,72.97,206.87
		c17.45,77.522,24.75,157.227,22.19,236.648c-1.944,61.096-12.745,119.588-24.312,178.504l-0.01,0.056
		c4.692-1.374,9.34-2.845,13.986-4.363c3.936-1.279,7.92-2.653,11.854-4.029c12.85-52.96,18.492-108.531,21.194-161.493
		c4.222-81.79-2.132-164.053-19.155-244.185c-24.987-117.729-73.064-238.779-143.571-339.914c-3.934-0.427-7.822-0.853-11.759-1.233
		C1428.646,700.601,1422.561,700.136,1416.476,699.726z"/>
	<path style="fill:#010202;" d="M895.816,899.836c-2.845,1.898-5.688,3.747-8.533,5.596c4.931-3.179,9.861-6.448,14.699-9.768
		c3.478-2.38,6.894-4.799,10.343-7.201c-9.866-31.089-29.162-62.76-30.212-95.167c-1.469-43.715,23.708-91.651,66.429-100.899
		c37.79-8.202,74.536,14.938,112.419,22.665c50.877,10.385,104.122-7.822,147.127-36.936
		c43.004-29.113,77.854-68.467,113.746-105.97c18.256-19.062,37.552-38.217,61.925-48.363c32.241-13.418,69.415-9.199,102.557,1.895
		c100.518,33.666,175.576,132.667,180.884,238.543c0.068,1.381,0.144,2.792,0.224,4.212c10.409,5.199,20.73,10.68,30.935,16.431
		c-0.509-83.719-45.447-185.1-82.745-230.499c-57.42-69.842-156.468-110.524-241.576-80.036
		c-111.756,40.114-172.589,185.486-290.935,194.589c-64.816,5.026-134.28-34.139-192.029-4.219
		c-31.008,16.073-50.212,49.69-56.188,84.112c-5.973,34.424-0.378,69.795,7.874,103.744c5.408,22.246,13.067,45.403,24.592,65.242
		c3.379-2.027,6.77-4.034,10.114-6.117c18.492,68.704,29.113,135.32,18.965,207.912c-9.055,64.816-31.34,126.691-65.715,181.881
		c4.694,0.95,9.386,1.993,14.034,3.035c2.701,0.616,5.406,1.281,8.107,1.944c34.234-56.421,56.378-119.722,65.055-185.437
		C927.346,1049.619,923.84,968.065,895.816,899.836z"/>
	<path style="fill:#010202;" d="M1054.04,788.981l0.034,0.051c8.809,13.781,17.803,27.42,25.474,41.722
		c14.84,27.737,27.973,56.421,39.021,85.866c7.617,20.317,14.243,41.021,19.973,61.978c-9.233,2.804-18.061,6.775-26.183,12.227
		c-29.159,19.534-45.376,59.978-30.631,91.842c-62.302,34.991-78.185,125.223-44.807,188.472
		c21.625,40.921,64.317,57.839,108.695,52.015c-4.339,19.442-9.362,38.723-15.289,57.749c-3.318,10.716-7.255,21.291-11.235,31.863
		c1.849,0.806,3.744,1.564,5.593,2.324c4.933,1.991,9.91,3.981,14.889,5.973c13.177-32.943,22.034-68.833,28.809-102.706
		c-2.338,0.66-4.677,1.294-6.999,1.856c-4.078-9.435-10.668-18.161-18.066-25.176c-16.073-15.22-36.27-25.842-50.875-42.531
		c-23.849-27.265-28.448-69.747-10.953-101.469c14.604-26.551,43.099-46.94,45.898-77.094c1.374-15.079-4.173-30.015-4.268-45.14
		c-0.095-19.44,9.247-37.6,22.711-52.202h0.049c4.745-1.091,9.586-1.827,14.465-2.336c-6.029-22.802-13.133-45.33-21.294-67.508
		c-15.79-43.004-35.04-91.698-61.64-132.095c-3.841,2.229-7.634,4.505-11.425,6.828
		C1062.004,783.955,1058.02,786.42,1054.04,788.981z"/>
	<path style="fill:#E13C13;" d="M1145.833,976.6c-13.464,14.602-22.806,32.762-22.711,52.202c0.095,15.125,5.642,30.061,4.268,45.14
		c-2.799,30.154-31.293,50.543-45.898,77.094c-17.495,31.722-12.896,74.204,10.953,101.469
		c14.604,16.689,34.801,27.311,50.875,42.531c7.398,7.016,13.988,15.741,18.066,25.176c2.321-0.562,4.66-1.196,6.999-1.856
		c84.007-23.637,178.512-108.022,199.87-192.071c22.429-88.236-88.285-130.056-154.379-147.505
		c-17.304-4.578-35.734-6.38-53.527-4.516c-4.879,0.509-9.72,1.245-14.465,2.336H1145.833z"/>
	<path style="fill:#EE7E0B;" d="M1256.97,1187.687c-13.342,12.234-27.947,23.016-43.593,32.119
		c-14.931,8.689-31.727,13.641-46.292,22.687c-2.466,1.533-1.72,6.302,1.607,5.937c33.518-3.681,67.988-29.398,92.578-51.211
		c27.564-24.453,53.406-56.078,63.552-91.997c0.767-2.719-3.001-4.193-4.468-1.883
		C1301.119,1133.597,1283.748,1163.136,1256.97,1187.687z"/>
	<path style="fill:#EE7E0B;" d="M1140.413,1159.913c52.365,1.752,118.039-21.959,153.915-60.972
		c3.671-3.99-1.084-10.974-6.015-7.795c-23.011,14.835-43.552,30.545-69.276,40.796c-25.545,10.181-51.542,13.822-78.624,17.452
		C1133.903,1150.266,1133.421,1159.682,1140.413,1159.913z"/>
	<path style="fill:#E84A18;" d="M976.854,1478.653c41.958-2.468,80.833-12.833,118.616-31.099c1.354-0.656,0.404-2.919-1.026-2.439
		c-37.466,12.57-78.029,19.286-117.591,17.617c-19.374-0.818-38.429-3.759-57.352-7.907c-17.391-3.815-35.033-11.659-52.921-10.465
		c-5.932,0.395-10.017,7.844-5.133,12.395C888.462,1481.918,942.393,1480.68,976.854,1478.653z"/>
	<path style="fill:#E84A18;" d="M953.19,1432.651c27.43,2.058,56.205-1.674,81.303-13.084c3.179-1.445,1.635-6.911-1.795-6.626
		c-25.35,2.097-49.895,4.436-75.301,1.642c-20.93-2.304-46.573-15.891-66.728-11.06c-2.855,0.685-4.507,4.458-2.833,6.965
		C900.298,1429.165,932.279,1431.079,953.19,1432.651z"/>
	<path style="fill:#E84A18;" d="M1385.411,1573.121c45.834,0.431,104.816-28.107,123.026-72.529c1.371-3.342-3.416-7.04-6.312-4.852
		c-17.819,13.466-31.8,30.492-51.186,42.283c-20.855,12.684-43.257,21.681-66.275,29.568
		C1381.73,1568.597,1382.12,1573.089,1385.411,1573.121z"/>
	<path style="fill:#E84A18;" d="M1325.898,1541.423c30.945,14.609,74.577-6.427,99.498-24.892c5.376-3.985,0.592-12.916-5.386-9.213
		c-14.763,9.149-30.57,15.846-47.425,20.1c-15.174,3.827-31.096,2.387-45.837,7.505
		C1324.13,1535.832,1322.921,1540.017,1325.898,1541.423z"/>
	<path style="fill:#EE704F;" d="M1805.478,879.699c-32.019-31.739-70.504-57.817-113.719-70.662
		c-10.575-3.143-23.822-4.76-31.008,3.61c-5.805,6.763-4.673,17.186-0.891,25.257c8.726,18.638,28.031,29.469,45.605,40.183
		c48.204,29.388,91.608,66.636,127.971,109.827c22.816,27.098,60.321,23.976,42.704-16.236
		C1861.356,937.935,1831.359,905.351,1805.478,879.699z"/>
	<path style="fill:#273654;" d="M1732.777,1003.436c-26.187,0-47.415,21.228-47.415,47.415c0,26.185,21.228,47.413,47.415,47.413
		c26.185,0,47.413-21.227,47.413-47.413C1780.19,1024.664,1758.962,1003.436,1732.777,1003.436z"/>
	<path style="fill:#010202;" d="M1719.279,980.761c8.636,0.097,17.364,1.774,25.837,0.1c8.47-1.673,16.95-8.102,17.13-16.736
		c0.166-7.8-6.402-14.192-13.408-17.63c-18.986-9.32-41.844-4.005-61.332,4.21c-19.971,8.417-40.341,21.73-46.029,42.641
		c-0.889,3.266-1.377,6.777-0.37,10.009c5.503,17.647,22.999,1.715,30.202-4.409
		C1684.765,987.506,1701.447,980.562,1719.279,980.761z"/>
	<path style="fill:#010202;" d="M1842.02,1171.377c-12.848,0.334-24.941-3.651-37.125,0.806c-5.642,2.039-9.484,10.195-3.937,14.841
		c22.334,18.538,67.094,7.634,92.034-1.328c8.818-3.177,18.158-7.159,27.12-12.09c4.124-11.189,7.491-22.57,10.005-34.09
		c-14.509,9.671-28.733,19.298-46.609,24.892C1870.041,1168.581,1856.148,1171.046,1842.02,1171.377z"/>
	<ellipse style="fill:#EE704F;" cx="1692.475" cy="1169.387" rx="40.302" ry="28.448"/>
	<path style="fill:#EE704F;" d="M848.902,952.206c-9.849,1.89-18.019,8.467-26.09,14.421
		c-21.769,16.058-45.856,28.972-71.281,38.209c-8.411,3.057-17.172,5.822-24.139,11.437c-19.781,15.931,10.587,16.57,20.568,14.957
		c14.626-2.363,29.274-5.666,43.525-9.686c15.306-4.317,30.548-9.895,43.267-19.447c12.716-9.549,22.745-23.576,24.541-39.381
		c0.38-3.34,0.176-7.218-2.431-9.34C854.71,951.628,851.624,951.685,848.902,952.206z"/>
	<path style="fill:#EE704F;" d="M1300.249,723.879c-25.311-4.463-51.189,2.193-75.632,10.132
		c-34.443,11.191-69.062,25.734-94.314,51.693c-5.6,5.756-11.013,13.22-9.466,21.101c4.704,23.934,50.316-12.027,59.31-16.268
		c25.679-12.102,53.311-20.061,81.513-23.338c17.942-2.082,36.904-2.553,52.407-11.817c2.994-1.788,5.902-3.995,7.489-7.099
		c2.872-5.613,0.489-12.835-4.131-17.125C1312.802,726.869,1306.458,724.974,1300.249,723.879z"/>
</g>
</svg>
