<?xml version="1.0" encoding="utf-8"?>
<!-- Generator: Adobe Illustrator 27.5.0, SVG Export Plug-In . SVG Version: 6.00 Build 0)  -->
<svg version="1.1" id="Capa_1" xmlns="http://www.w3.org/2000/svg" xmlns:xlink="http://www.w3.org/1999/xlink" x="0px" y="0px"
	 viewBox="0 0 2122 2122" style="enable-background:new 0 0 2122 2122;" xml:space="preserve">
<g>
	<path style="fill:#0E3132;" d="M975.585,1175.618c-12.023-14.252-25.201-27.91-38.088-41.739
		c-15.922-3.528-31.768-7.394-47.505-11.674c-7.917-2.153-15.839-4.424-23.479-7.405c-7.805-3.045-15.269-6.836-21.924-11.912
		c-33.554-25.574-36.424-74.31-34.646-116.477c2.037-48.848,7.206-100.112,34.904-140.409c4.331-6.285,9.354-12.399,16.073-16.102
		c5.827-3.187,12.4-4.278,19.084-4.336c3.503-0.083,7.035,0.176,10.509,0.575c7.709,0.871,15.269,2.426,22.721,4.408
		c15.279-42.593,27.074-85.518,20.845-128.919l-0.029-0.17c-5.306-36.594-23.391-70.348-46.066-99.567
		c-16.731-21.5-36.107-40.877-57.549-57.724c-1.291-1.004-2.612-2.007-3.932-3.011c-96.867,6.684-193.651,16.848-290.84,12.887
		c-144.088-5.885-286.762-43.888-414.689-110.446c14.865,26.894,37.797,48.419,61.764,67.649
		c153.875,123.561,355.307,166.504,548.905,205.223c0.317,2.353,0.487,4.765,0.575,7.147c17.822,5.423,33.808,14.324,46.495,28.731
		c40.355,45.924,20.321,116.272,5.228,175.512c-10.392,40.702-17.34,82.232-20.755,124.083c-2.154,26.378-2.87,53.243,3.415,78.929
		c14.782,60.389,64.867,104.365,101.896,154.304c69.544,93.773,94.889,218.972,67.25,332.433
		c-3.586,14.694-8.039,29.13-13.321,43.284c30.943-8.497,61.194-18.344,90.787-29.481c4.249-7.459,8.409-14.982,12.287-22.616
		C1095.444,1471.593,1074.923,1293.323,975.585,1175.618z"/>
	<path style="fill:#0E3132;" d="M1351.01,1005.698c-12.687-22.446-26.119-45.233-30.48-70.636
		c-5.656-32.95,4.536-66.217,10.417-99.109c13.72-76.979,1.784-157.661-30.708-228.555c-1.291-2.845-2.641-5.656-3.99-8.438
		c-77.179-45.924-171.323-64.01-266.446-66.792c43.859,76.263,50.49,173.218,18.714,255.103
		c-11.805,30.473-28.257,58.928-41.325,88.87c52.542,32.737,101.582,71.067,146.09,114.087
		c26.319,25.433,125.573,107.688,87.946,150.86c-12.545,14.436-33.87,16.472-52.989,16.989c-17.661,0.464-35.333,0.445-52.995-0.002
		c13.262,17.167,24.665,35.64,33.165,55.597c15.844,37.286,21.067,78.075,25.14,118.373c5.569,54.446,9.388,109.525,2.558,163.829
		c-2.212,17.681-5.627,35.303-10.422,52.497c73.018-43.279,141.447-94.743,205.71-152.837
		c14.87-42.222,30.397-84.473,34.787-128.901C1435.254,1175.101,1396.16,1085.835,1351.01,1005.698z"/>
	<path style="fill:#0E3132;" d="M602.513,1049.196c-0.151,2.206-0.301,4.41-0.43,6.612c-23.799-8.818-38.309-24.153-54.078-49.536
		c-0.916,0.405-1.919,0.687-2.981,0.863c-6.66,1.121-13.262-2.383-18.314-6.831c-12.516-10.938-18.714-27.152-26.777-41.676
		c-8.068-14.524-20.268-28.935-36.77-30.685c-7.318-0.804-14.724,1.033-22.013,0.088c-15.357-1.983-26.582-15.756-32.867-29.91
		c-6.285-14.178-9.442-29.763-17.481-43.025c-17.94-29.588-54.734-40.21-87.138-52.351c-35.591-13.291-70.407-31.946-96.068-59.586
		c-15.04-2.353-30.251-3.761-45.608-4.219c-3.903-0.117-8.122-0.058-11.825,1.062c3.386,13.203,7.605,26.178,12.283,38.719
		c20.438,54.704,53.218,104.448,92.336,147.556c62.801,69.145,141.042,122.217,219.775,172.473
		c-60.848,38.806-96.097,107.006-121.495,174.538c-38.061,101.179-59.386,213.837-44.005,319.318
		c1.062-0.404,2.095-0.804,3.104-1.237c7.605-3.269,15.093-6.831,22.416-10.704c-0.95-3.615-0.804-7.635,0.37-11.167
		c2.412-7.318,8.209-12.974,14.095-17.939c31.771-26.665,76.551-47.586,82.29-88.662c2.84-20.375-4.965-43.225,6.085-60.619
		c5.852-9.213,15.898-14.753,24.336-21.642c16.336-13.315,27.411-32.891,30.427-53.759c3.844-26.489-4.361-56.083,10.046-78.616
		c6.573-10.304,25.891-22.212,44.029-26.777c13.033-21.5,29.764-40.239,51.318-52.984c4.485-2.659,9.126-5.018,13.837-7.246
		C602.44,1125.097,599.746,1087.179,602.513,1049.196z"/>
	<path style="fill:#FFF2D6;" d="M1669.548,1212.012c63.177-22.217,129.793-32.663,194.431-50.173
		c45.983-12.458,96.438-28.672,136.277-56.887c-2.266-36.136-49.652-50.031-86.592-52.955c-4.94-0.405-9.876-0.78-14.84-1.179
		c-3.274,14.87-11.05,29.764-25.203,34.5c-17.91,5.968-36.507-6.831-55.337-7.635c-45.949-1.978-70.465,63.547-116.273,67.338
		c-31.659,2.611-57.632-26.782-67.05-57.092c-9.413-30.338-7.976-63.03-15.786-93.798c-0.599-2.441-1.35-4.823-2.178-7.147
		c-17.569-10.046-34.188-21.783-49.627-35.62c-2.353-2.124-4.682-4.278-6.948-6.426c-1.091-1.062-2.153-2.095-3.215-3.157
		c-7.693-7.64-14.923-15.645-21.725-23.971c-0.979-1.174-1.954-2.378-2.899-3.586c-6.748-8.409-13.062-17.135-19.118-26.09
		c-0.862-1.291-1.72-2.553-2.582-3.844c-1.033-1.549-2.036-3.103-3.045-4.653c-1.462-2.236-2.894-4.478-4.302-6.743
		c-0.892-1.437-1.779-2.84-2.641-4.278c-0.833-1.32-1.637-2.67-2.441-3.99c-3.215-5.31-6.372-10.675-9.471-16.102
		c-1.291-2.237-2.553-4.478-3.82-6.743c-3.786-6.748-7.518-13.579-11.191-20.409c-1.033-1.924-2.066-3.844-3.099-5.798
		c-3.474-6.485-6.918-12.974-10.363-19.489c-0.975-1.836-1.954-3.674-2.929-5.481c-0.487-0.95-1.003-1.895-1.491-2.845
		c-1.725-3.211-3.416-6.426-5.14-9.613c-2.236-4.19-4.477-8.351-6.743-12.487c-2.957-5.393-5.944-10.762-8.926-16.098
		c-3.157-5.573-6.402-11.108-9.676-16.619c-3.211-5.34-6.456-10.651-9.788-15.874l-0.054-0.087
		c-1.408-2.183-2.816-4.361-4.249-6.514c-0.662-1.004-1.349-2.012-2.012-3.016c-1.291-1.949-2.611-3.873-3.961-5.798
		c-0.045-0.066-0.094-0.131-0.139-0.197c3.183,46.488,2.151,93.518,1.951,140.177c-0.146,35.737,0.282,72.044,10.417,106.314
		c9.013,30.456,25.374,58.095,38.606,86.967c40.668,88.692,51.001,190.757,30.251,286.022c1.949-1.15,3.932-2.271,5.915-3.357
		l1.086-0.634c1.696-0.921,3.391-1.866,5.082-2.782c0.487-0.287,1.004-0.575,1.52-0.809c2.012-1.087,4.019-2.149,6.056-3.182
		c2.212-1.15,4.424-2.271,6.66-3.391c2.241-1.115,4.478-2.207,6.719-3.298c2.148-1.033,4.273-2.037,6.426-3.045
		c1.408-0.657,2.816-1.32,4.248-1.949l0.029-0.029C1566.883,1257.878,1617.543,1230.292,1669.548,1212.012z"/>
	<path style="fill:#FFF2D6;" d="M868.497,1285.172c-37.028-49.939-87.114-93.915-101.896-154.304
		c-6.285-25.686-5.569-52.551-3.415-78.929c3.415-41.851,10.363-83.381,20.755-124.083c15.094-59.24,35.128-129.588-5.228-175.512
		c-12.687-14.407-28.672-23.308-46.495-28.731c0.317,8.726-0.691,17.505-2.986,25.744c-0.647,2.326-1.391,4.611-2.18,6.876
		c-0.218,0.628-0.449,1.25-0.678,1.874c-0.647,1.765-1.333,3.513-2.057,5.244c-0.218,0.519-0.425,1.043-0.65,1.56
		c-0.951,2.194-1.952,4.366-3.014,6.511c-0.154,0.31-0.319,0.616-0.474,0.925c-0.946,1.88-1.93,3.742-2.949,5.589
		c-0.283,0.513-0.569,1.027-0.858,1.539c-1.118,1.984-2.266,3.955-3.454,5.906c-0.057,0.093-0.111,0.187-0.168,0.28
		c-4.175,6.826-8.743,13.472-13.452,20.037v0.034c-0.892,3.644-1.812,7.031-2.728,10.071c-8.21,27.327-21.9,52.643-32.921,78.991
		c-43.513,104.073-41.33,231.712,25.428,322.64c36.107,49.169,88.979,86.08,115.873,140.813
		c36.999,75.288,16.36,165.53-12.775,244.17c-7.318,19.805-15.327,39.727-25.428,58.265c1.61,1.241,3.3,2.396,5.05,3.486
		c0.141,0.088,0.285,0.174,0.427,0.261c3.5,2.141,7.256,3.994,11.224,5.574c0.166,0.066,0.334,0.131,0.5,0.196
		c3.964,1.55,8.131,2.834,12.45,3.876c0.228,0.055,0.458,0.108,0.687,0.162c4.266,1.001,8.675,1.768,13.18,2.323
		c0.342,0.043,0.686,0.082,1.031,0.122c4.403,0.51,8.893,0.822,13.425,0.955c0.487,0.015,0.974,0.025,1.463,0.035
		c2.125,0.044,4.258,0.059,6.395,0.028c0.112-0.001,0.224,0.001,0.336-0.001c2.184-0.035,4.37-0.122,6.556-0.232
		c0.612-0.03,1.22-0.064,1.832-0.101c1.973-0.117,3.944-0.256,5.908-0.429c0.292-0.026,0.585-0.047,0.877-0.074
		c2.06-0.19,4.111-0.419,6.154-0.666c0.666-0.081,1.329-0.165,1.993-0.251c1.902-0.248,3.795-0.514,5.671-0.809
		c0.341-0.053,0.681-0.105,1.019-0.16c1.961-0.317,3.9-0.663,5.824-1.026c0.597-0.113,1.188-0.226,1.781-0.343
		c2.044-0.403,4.073-0.821,6.061-1.272c15.445-3.503,30.743-7.318,45.837-11.449c5.281-14.154,9.735-28.59,13.321-43.284
		C963.386,1504.143,938.041,1378.945,868.497,1285.172z"/>
	<path style="fill:#FFF2D6;" d="M353.063,1273.288c25.398-67.532,60.648-135.732,121.495-174.538
		c-78.733-50.256-156.974-103.328-219.775-172.473c-39.118-43.108-71.898-92.852-92.336-147.556
		c-4.677-12.541-8.896-25.515-12.283-38.719c-2.524,0.745-4.794,1.978-6.572,3.961c-3.415,3.844-3.961,9.354-4.19,14.494
		c-3.415,78.212,27.036,155.654,75.401,217.218c48.361,61.569,113.632,108.21,183.464,143.595
		c-66.903,49.574-108.004,128.648-123.678,210.416c-15.698,81.803-7.98,166.475,8.38,248.136c1.062,5.335,2.441,11.133,6.777,14.466
		c5.364,4.16,12.74,2.752,19.313,0.316C293.677,1487.125,315.002,1374.468,353.063,1273.288z"/>
	<path style="fill:#FFF2D6;" d="M1117.89,1394.097c-3.586-76.516-29.851-152.955-79.761-211.045
		c-11.062-12.878-23.333-25.003-35.853-36.945c-21.718-3.379-43.32-7.474-64.779-12.229c12.887,13.83,26.065,27.487,38.088,41.739
		c99.338,117.705,119.859,295.975,49.915,433.174c-3.878,7.634-8.039,15.157-12.287,22.616c10.143-3.811,20.193-7.801,30.18-11.909
		c3.452-1.418,6.86-2.917,10.294-4.371c6.83-2.893,13.638-5.825,20.395-8.855c1.326-0.595,2.638-1.214,3.961-1.815
		C1105.478,1537.874,1121.244,1465.959,1117.89,1394.097z"/>
	<path style="fill:#FFF2D6;" d="M887.985,601.889c22.675,29.218,40.76,62.972,46.066,99.567l0.029,0.17
		c6.229,43.401-5.566,86.327-20.845,128.919c8.4,2.234,16.65,5.064,24.748,8.375c21.541-51.449,43.311-105.15,35.937-160.023
		c-5.51-41.218-27.123-78.446-51.177-112.346c-5.893-8.298-12.131-18.884-17.033-30.267c-3.755,0.327-7.559,0.58-11.294,0.937
		c-22.646,0.945-45.296,2.353-67.912,3.932c1.32,1.004,2.641,2.007,3.932,3.011C851.878,561.012,871.254,580.388,887.985,601.889z"
		/>
	<path style="fill:#0E3132;" d="M1879.565,1049.27c-2.095,5.281-5.481,10.046-10.163,13.203
		c-10.017,6.802-23.479,5.111-35.074,1.578c-11.595-3.557-23.104-8.726-35.216-8.093c-36.453,1.89-53.559,52.38-89.496,58.865
		c-17.822,3.216-36.219-5.968-47.961-19.747c-11.766-13.749-17.851-31.454-21.871-49.082c-3.386-14.865-5.51-30.022-6.344-45.233
		c-0.083-1.695-0.2-3.415-0.287-5.169c4.823,2.405,9.715,4.681,14.656,6.863c-4.976-2.196-9.899-4.491-14.754-6.913
		c-0.348-0.173-0.693-0.352-1.04-0.527c-5.073-2.552-10.087-5.216-15.018-8.032c0.828,2.324,1.579,4.707,2.178,7.147
		c7.81,30.767,6.372,63.459,15.786,93.798c9.418,30.309,35.391,59.703,67.05,57.092c45.808-3.791,70.324-69.316,116.273-67.338
		c18.831,0.804,37.427,13.603,55.337,7.635c14.153-4.736,21.929-19.63,25.203-34.5"/>
	
		<ellipse transform="matrix(0.9994 -0.0333 0.0333 0.9994 -33.0837 51.258)" style="fill:#0D3031;" cx="1523.312" cy="1019.506" rx="33.009" ry="33.008"/>
	<path style="fill:#0E3132;" d="M1542.98,966.727c5.306-5.091,3.065-14.748-2.782-19.206c-5.842-4.458-13.783-4.916-21.106-4.326
		c-12.297,0.994-24.399,4.448-35.303,10.212c-12.093,6.397-23.405,16.98-24.828,30.587c-0.619,5.954,2.568,14.709,10.232,12.921
		c5.374-1.252,9.988-9.534,14.192-12.954c11.513-9.379,26.456-14.651,41.34-14.037
		C1531.088,970.185,1538.386,971.14,1542.98,966.727z"/>
	<path style="fill:#F38F26;" d="M1456.379,1034.916c-13.232-28.872-29.593-56.511-38.606-86.967
		c-10.134-34.27-10.563-70.577-10.417-106.314c0.199-46.659,1.232-93.689-1.951-140.177c-0.002-0.011-0.003-0.021-0.003-0.032
		c-0.743-1.072-1.52-2.121-2.273-3.186c-1.352-1.913-2.697-3.832-4.081-5.722c-0.128-0.176-0.253-0.354-0.382-0.529
		c-0.76-1.036-1.555-2.047-2.325-3.076c-2.245-2.996-4.532-5.959-6.863-8.889c-1.383-1.738-2.761-3.478-4.175-5.191
		c-0.386-0.466-0.771-0.932-1.16-1.397c-2.269-2.718-4.57-5.41-6.926-8.058l-0.375-0.434
		c-23.766-26.577-50.919-48.361-80.594-65.983c1.349,2.782,2.699,5.593,3.99,8.438c32.492,70.894,44.428,151.576,30.708,228.555
		c-5.881,32.892-16.073,66.159-10.417,99.109c4.361,25.403,17.793,48.19,30.48,70.636c45.15,80.136,84.244,169.403,75.172,260.935
		c-4.39,44.429-19.917,86.68-34.787,128.901c7.752-7.006,15.44-14.095,23.079-21.296c14.982-14.125,30.88-26.694,47.557-37.944
		c4.158-2.808,8.368-5.522,12.614-8.164c3.961-2.464,7.955-4.865,11.985-7.193
		C1507.38,1225.674,1497.047,1123.608,1456.379,1034.916z"/>
	<path style="fill:#F38F26;" d="M1193.549,1332.046c-4.073-40.297-9.296-81.087-25.14-118.373
		c-8.5-19.957-19.904-38.43-33.165-55.597c-44.52-1.126-88.964-5.124-132.967-11.97c12.52,11.943,24.79,24.067,35.853,36.945
		c49.91,58.09,76.175,134.529,79.761,211.045c3.354,71.862-12.412,143.776-39.848,210.36c-0.016,0.038-0.029,0.076-0.045,0.114
		c3.404-1.544,6.762-3.162,10.145-4.739c3.212-1.497,6.437-2.971,9.632-4.499c8.023-3.836,16.006-7.745,23.935-11.771
		c21.725-11.02,43.025-22.791,63.975-35.191c4.794-17.194,8.209-34.816,10.422-52.497
		C1202.937,1441.571,1199.118,1386.492,1193.549,1332.046z"/>
	<path style="fill:#F38F26;" d="M922.743,566.551c24.054,33.9,45.666,71.128,51.177,112.346
		c7.374,54.872-14.396,108.573-35.937,160.023c16.22,6.632,31.868,15.032,47.016,23.841c7.466,4.347,14.861,8.814,22.193,13.381
		c13.068-29.943,29.52-58.398,41.325-88.87c31.776-81.885,25.145-178.84-18.714-255.103c-22.904-0.662-45.895-0.458-68.711,0.458
		c-10.351,0.414-20.655,1.009-30.916,1.701c-3.497,0.236-6.96,0.528-10.441,0.792c-4.691,0.356-9.41,0.665-14.068,1.068
		c0.014,0.032,0.03,0.063,0.044,0.096C910.611,547.667,916.85,558.254,922.743,566.551z"/>
	<path style="fill:#F38F26;" d="M1633.441,1000.763c0.833,15.211,2.957,30.368,6.344,45.233
		c4.019,17.627,10.104,35.333,21.871,49.082c11.742,13.778,30.139,22.963,47.961,19.747c35.937-6.485,53.043-56.974,89.496-58.865
		c12.112-0.633,23.62,4.536,35.216,8.093c11.595,3.532,25.057,5.223,35.074-1.578c4.682-3.157,8.068-7.922,10.163-13.203
		c-5.635-0.464-11.282-0.944-16.936-1.442c-0.853-0.075-1.709-0.158-2.562-0.234c-0.004,0-0.007,0-0.012-0.001
		c-4.904-0.436-9.811-0.888-14.723-1.36c-1.698-0.163-3.397-0.339-5.096-0.508c-4.117-0.409-8.231-0.829-12.346-1.271
		c-0.582-0.062-1.162-0.13-1.744-0.193c-1.374-0.149-2.748-0.302-4.122-0.456c-3.905-0.436-7.805-0.891-11.705-1.365
		c-0.487-0.059-0.974-0.121-1.46-0.181c-1.528-0.188-3.054-0.374-4.58-0.567c-3.916-0.497-7.823-1.023-11.728-1.565
		c-1.929-0.267-3.859-0.529-5.783-0.808c-4.211-0.61-8.407-1.263-12.598-1.933c-1.576-0.252-3.158-0.487-4.731-0.748
		c-11.497-1.908-22.907-4.062-34.191-6.522l-0.012-0.002c-1.575-0.344-3.133-0.725-4.704-1.081
		c-3.985-0.902-7.961-1.826-11.911-2.81c-2.039-0.508-4.062-1.052-6.092-1.583c-3.466-0.907-6.921-1.837-10.356-2.813
		c-2.187-0.622-4.365-1.268-6.538-1.919c-3.262-0.978-6.506-1.993-9.735-3.039c-2.212-0.717-4.423-1.44-6.618-2.191
		c-3.195-1.092-6.36-2.242-9.518-3.408c-2.142-0.791-4.292-1.565-6.417-2.392c-3.336-1.298-6.63-2.679-9.921-4.067
		c-1.868-0.788-3.76-1.535-5.614-2.353c-4.942-2.182-9.833-4.459-14.656-6.863C1633.241,997.348,1633.358,999.067,1633.441,1000.763
		z"/>
	<path style="fill:#F38F26;" d="M502.227,1248.26c-14.407,22.533-6.202,52.127-10.046,78.616
		c-3.016,20.868-14.091,40.444-30.427,53.759c-8.439,6.889-18.484,12.429-24.336,21.642c-11.05,17.393-3.245,40.244-6.085,60.619
		c-5.739,41.077-50.519,61.998-82.29,88.662c-5.886,4.965-11.683,10.621-14.095,17.939c-1.174,3.532-1.32,7.552-0.37,11.167
		c68.424-36.166,123.162-97.934,150.139-170.519c15.902-42.767,22.416-88.433,36.341-131.859
		c6.285-19.605,14.465-39.152,25.198-56.804C528.117,1226.049,508.799,1237.956,502.227,1248.26z"/>
	<path style="fill:#F38F26;" d="M390.802,855.097c8.039,13.262,11.196,28.848,17.481,43.025c6.285,14.153,17.51,27.927,32.867,29.91
		c7.289,0.945,14.695-0.892,22.013-0.088c16.502,1.749,28.701,16.161,36.77,30.685c8.063,14.524,14.261,30.738,26.777,41.676
		c5.052,4.448,11.654,7.952,18.314,6.831c1.062-0.176,2.065-0.458,2.981-0.863c-4.419-7.089-8.955-14.952-13.803-23.707
		C466.378,860.378,344.478,764.31,207.597,743.16c25.661,27.64,60.477,46.295,96.068,59.586
		C336.069,814.887,372.863,825.508,390.802,855.097z"/>
	<path style="fill:#2A5152;" d="M937.983,838.92c-8.097-3.311-16.347-6.141-24.748-8.375c-7.452-1.982-15.013-3.537-22.721-4.408
		c-3.474-0.4-7.006-0.658-10.509-0.575c-5.622,11.055-16.302,19.547-17.048,33.554c-1.291,24.512,41.705,31.201,43.254,55.713
		c1.808,28.93-53.412,32.979-54.275,61.968c-0.434,14.407,13.545,24.395,25.399,32.575c11.858,8.209,24.458,21.272,19.863,34.933
		c-5.023,15.011-26.806,17.71-34.124,31.712c-6.115,11.654,0.229,25.52,3.439,38.782c7.64,2.981,15.562,5.252,23.479,7.405
		c15.737,4.28,31.583,8.146,47.505,11.674c21.458,4.755,43.061,8.849,64.779,12.229c44.003,6.846,88.447,10.844,132.967,11.97
		c17.661,0.447,35.334,0.465,52.995,0.002c19.119-0.517,40.444-2.553,52.989-16.989c37.627-43.172-61.627-125.427-87.946-150.86
		c-44.508-43.02-93.548-81.351-146.09-114.087c-7.331-4.568-14.727-9.034-22.193-13.381
		C969.851,853.952,954.203,845.552,937.983,838.92z"/>
	<path style="fill:#F38F26;" d="M863.074,1076.017c7.318-14.002,29.101-16.701,34.124-31.712
		c4.594-13.661-8.005-26.724-19.863-34.933c-11.854-8.18-25.832-18.168-25.399-32.575c0.863-28.989,56.083-33.038,54.275-61.968
		c-1.549-24.512-44.545-31.201-43.254-55.713c0.745-14.007,11.425-22.499,17.048-33.554c-6.684,0.059-13.257,1.15-19.084,4.336
		c-6.719,3.703-11.742,9.817-16.073,16.102c-27.698,40.297-32.867,91.562-34.904,140.409c-1.778,42.168,1.092,90.904,34.646,116.477
		c6.655,5.076,14.12,8.867,21.924,11.912C863.303,1101.537,856.96,1087.672,863.074,1076.017z"/>
	<path style="fill:#0E3132;" d="M970.1,920.461c-1.832-0.419-3.055,2.139-1.316,3.118c42.719,23.951,87.084,44.141,127.26,72.487
		c20.74,14.631,40.468,30.665,59.059,47.942c16.838,15.644,31.63,35.094,50.548,48.136c1.617,1.116,3.143-0.989,2.456-2.456
		c-19.211-41.003-67.152-75.064-102.967-101.135C1064.321,958.843,1019.678,931.827,970.1,920.461z"/>
	<path style="fill:#0E3132;" d="M1061.919,1025.649c-38.071-14.197-86.134-30.826-127.24-24.784c-3.537,0.517-2.738,5.433,0,6.397
		c38.514,13.612,80.658,16.024,119.615,30.031c41.885,15.064,77.115,39.045,116.882,57.735c3.274,1.54,6.816-2.388,4.02-5.214
		C1145.515,1059.817,1101.033,1040.236,1061.919,1025.649z"/>
	<path style="fill:#2A5152;" d="M1252.881,961.874c-2.412,7.937-3.216,20.258,5.057,20.833c2.047,0.146,4.03-0.692,5.847-1.652
		c44.424-23.473,18.407-86.577,19.747-123.834c1.647-45.9,20.244-86.026,13.661-134.104c-5.418-39.576-23.191-78.641-54.504-103.435
		c-5.842-4.623-14.436-8.701-20.219-4.005c-4.707,3.82-4.307,11.021-3.211,16.984c3.815,20.819,10.836,41.004,13.734,61.973
		c2.899,20.964,1.184,43.698-10.972,61.028c-5.364,7.635-12.521,13.9-17.7,21.661c-7.679,11.518-10.529,26.143-7.742,39.698
		c5.705,27.713,31.888,45.803,46.689,69.915C1256.842,909.05,1260.433,937.045,1252.881,961.874z"/>
	<path style="fill:#2A5152;" d="M502.315,1055.028c-40.818-30.11-83.147-58.085-123.162-89.311
		c-35.737-27.888-67.552-63.259-105.277-88.131c-3.381-2.232-7.961,2.246-5.647,5.642c25.34,37.208,66.718,66.753,102.119,93.891
		c40.609,31.138,83.62,59.698,130.607,80.234C502.549,1058.044,503.722,1056.066,502.315,1055.028z"/>
	<path style="fill:#2A5152;" d="M431.469,964.305c3.118,1.447,7.226-2.714,4.02-5.208c-33.9-26.393-65.31-53.783-94.592-85.32
		l-0.565,0.434C359.542,912.87,391.996,945.996,431.469,964.305z"/>
	<path style="fill:#2A5152;" d="M503.469,1126.185c-42.422,40.166-76.165,88.667-100.609,141.7
		c-22.655,49.15-42.821,106.188-42.821,160.926c0,1.408,2.105,1.72,2.471,0.336c14.518-55.016,25.383-108.195,50.65-159.902
		c24.784-50.714,57.174-96.662,94.241-139.128C509.74,1127.438,506.091,1123.7,503.469,1126.185z"/>
	<path style="fill:#2A5152;" d="M492.712,1185.552c-27.318,36.039-52.653,84.726-54.908,130.753
		c-0.088,1.749,2.256,1.774,2.816,0.385c8.4-20.633,13.579-42.411,21.764-63.161c9.072-22.987,20.809-44.96,32.809-66.529
		C496.113,1185.342,493.798,1184.12,492.712,1185.552z"/>
	<path style="fill:#2A5152;" d="M1352.769,1372.87c-13.837,19.557-28.463,38.801-46.319,54.894
		c-18.212,16.419-39.045,26.918-59.381,40.044c-2.509,1.617-0.955,5.749,2.076,4.916c45.622-12.531,88.496-55.245,107.961-97.315
		C1358.465,1372.47,1354.65,1370.214,1352.769,1372.87z"/>
	<path style="fill:#2A5152;" d="M797.812,578.074c-58.801,3.61-117.272,9.934-176.277,9.486
		c-61.919-0.463-123.741-4.166-185.106-12.643c-1.881-0.258-2.777,2.519-0.809,2.943c117.125,25.077,245.544,33.783,362.81,4.799
		C800.94,582.035,800.472,577.913,797.812,578.074z"/>
	<path style="fill:#2A5152;" d="M1189.115,663.891c-15.469,0-15.493,24.039,0,24.039
		C1204.579,687.93,1204.609,663.891,1189.115,663.891z"/>
	<path style="fill:#2A5152;" d="M1169.164,722.074c-5.773,0-11.303,5.072-11.035,11.03c0.268,5.978,4.848,11.031,11.035,11.031
		c5.769,0,11.298-5.072,11.03-11.031C1179.926,727.126,1175.347,722.074,1169.164,722.074z"/>
	<path style="fill:#2A5152;" d="M1031.201,1456.002c-0.341-7.557-6.129-13.944-13.944-13.944c-7.294,0-14.28,6.416-13.944,13.944
		c0.336,7.556,6.125,13.944,13.944,13.944C1024.55,1469.946,1031.537,1463.534,1031.201,1456.002z"/>
	<path style="fill:#2A5152;" d="M1026.665,1368.855l0.117-0.229c3.303-6.446,1.925-15.245-4.96-18.918l-0.204-0.107
		c-4.655-2.483-9.917-2.282-14.136,0.148c-0.088,0.044-0.18,0.074-0.265,0.119c0.04-0.011,0.079-0.022,0.119-0.033
		c-0.095,0.056-0.19,0.111-0.285,0.17l0.07-0.07c-0.094,0.05-0.167,0.131-0.259,0.183c-0.382,0.247-0.756,0.5-1.117,0.786
		c-1.357,0.976-2.583,2.132-3.411,3.691c-2.597,4.896-2.397,9.364,0.024,14.261
		C1006.957,1378.141,1022.007,1377.936,1026.665,1368.855z"/>
	<path style="fill:#2A5152;" d="M956.253,1262.302c-3.532-4.103-11.215-6.324-16.336-4.322l-0.443,0.175
		c-3.825,1.501-6.631,3.065-9.13,6.3c-2.363,3.06-3.776,6.738-3.776,10.656c0,7.425,5.432,15.25,12.906,16.95
		c6.982,1.589,14.061-0.585,18.48-6.3c5.603-7.255,4.424-16.355-1.374-23.084L956.253,1262.302z"/>
	<path style="fill:#2A5152;" d="M1350.309,1108.563c-5.389-2.271-10.772-0.833-15.118,2.86l-0.594,0.507
		c-7.795,6.631-3.966,19.425,4.57,23.025c8.921,3.766,20.034-2.787,19.674-12.979l-0.024-0.765
		C1358.615,1115.628,1355.497,1110.75,1350.309,1108.563z"/>
	<path style="fill:#2A5152;" d="M1375.293,1187.74c-18.353,0-18.383,28.521,0,28.521
		C1393.646,1216.261,1393.675,1187.74,1375.293,1187.74z"/>
	<path style="fill:#F1E1C0;" d="M1863.979,1161.839c-64.638,17.51-131.254,27.956-194.431,50.173
		c-52.005,18.28-102.665,45.866-139.177,86.45l-0.029,0.029c0.974-0.433,1.954-0.891,2.928-1.321
		c2.929-1.32,5.915-2.641,8.896-3.902c1.637-0.692,3.274-1.379,4.911-2.066c20.867-8.726,42.334-16.36,64.234-23.308
		c2.441-0.775,4.882-1.55,7.318-2.295c2.441-0.779,4.911-1.525,7.347-2.241c2.329-0.716,4.682-1.408,7.035-2.095
		c58.894-17.394,120.146-30.738,179.503-47.157c2.612-0.721,5.252-1.466,7.864-2.212c7.864-2.212,15.674-4.478,23.449-6.831
		c2.587-0.774,5.169-1.578,7.751-2.382c2.582-0.804,5.165-1.608,7.723-2.441c2.582-0.804,5.135-1.632,7.693-2.495
		c2.553-0.833,5.106-1.695,7.659-2.553c2.558-0.862,5.082-1.725,7.61-2.616c2.124-0.745,4.249-1.491,6.368-2.236
		c5.428-1.954,10.821-3.961,16.19-6.056c1.749-0.658,3.503-1.349,5.223-2.036c4.394-1.725,8.726-3.503,13.062-5.34
		c1.72-0.687,3.416-1.437,5.082-2.154c6.855-2.986,13.661-6.056,20.375-9.301c24.799-11.937,52.097-30.767,51.781-58.265
		c0-0.746-0.029-1.52-0.088-2.236C1960.417,1133.167,1909.962,1149.381,1863.979,1161.839z"/>
	<path style="fill:#F1E1C0;" d="M766.748,1660.684c10.1-18.538,18.11-38.46,25.428-58.265
		c29.135-78.641,49.773-168.882,12.775-244.17c-26.894-54.733-79.766-91.644-115.873-140.813
		c-66.758-90.928-68.94-218.568-25.428-322.64c11.021-26.349,24.711-51.664,32.921-78.991c0.916-3.04,1.837-6.426,2.728-10.071
		c-3.226,4.519-6.503,8.994-9.768,13.464c-2.518,3.448-5.034,6.893-7.484,10.356c-2.446,3.449-4.821,6.957-7.168,10.487
		c-0.552,0.83-1.108,1.656-1.655,2.491c-0.517,0.788-1.006,1.597-1.518,2.389c-2.482,3.844-4.91,7.727-7.276,11.658
		c-1.669,2.774-3.32,5.562-4.931,8.377c-0.632,1.106-1.257,2.215-1.879,3.327c-1.922,3.429-3.813,6.878-5.646,10.363
		c-0.4,0.76-0.786,1.527-1.18,2.289c-1.693,3.265-3.345,6.554-4.957,9.863c-0.49,1.002-0.978,2.003-1.459,3.008
		c-0.756,1.581-1.469,3.182-2.206,4.772c-1.376,2.968-2.751,5.935-4.064,8.934c-0.772,1.765-1.503,3.549-2.252,5.324
		c-1.283,3.035-2.552,6.074-3.767,9.137c-1.315,3.314-2.607,6.636-3.841,9.981c-0.711,1.923-1.374,3.861-2.058,5.793
		c-0.966,2.729-1.939,5.455-2.852,8.201c-0.326,0.984-0.641,1.971-0.96,2.957c-1.285,3.959-2.536,7.928-3.707,11.918
		c-0.041,0.139-0.084,0.276-0.124,0.415c-1.23,4.201-2.379,8.424-3.481,12.655c-0.201,0.772-0.406,1.542-0.603,2.315
		c-0.805,3.161-1.542,6.335-2.276,9.51c-0.398,1.724-0.812,3.444-1.189,5.171c-0.827,3.795-1.599,7.598-2.322,11.407
		c-0.262,1.377-0.504,2.756-0.752,4.136c-0.478,2.659-0.916,5.322-1.341,7.986c-0.472,2.958-0.905,5.918-1.313,8.881
		c-0.302,2.188-0.602,4.375-0.868,6.565c-0.207,1.712-0.412,3.422-0.597,5.135c-0.341,3.14-0.638,6.279-0.905,9.42
		c-0.135,1.592-0.27,3.184-0.386,4.776c-2.767,37.983-0.073,75.901,8.897,112.057c0.234,0.941,0.519,1.866,0.761,2.805
		c0.714,2.77,1.458,5.531,2.246,8.279c1.709,5.956,3.586,11.86,5.649,17.701c1.12,3.17,2.297,6.321,3.523,9.454
		c0.493,1.259,0.99,2.515,1.499,3.768c1.414,3.472,2.879,6.926,4.426,10.347c0.282,0.625,0.568,1.249,0.855,1.872
		c1.323,2.87,2.733,5.705,4.152,8.537c1.08,2.156,2.185,4.301,3.321,6.433c1.574,2.956,3.158,5.907,4.841,8.815
		c0.299,0.519,0.61,1.033,0.914,1.551c2.154,3.67,4.385,7.306,6.715,10.895c0.126,0.192,0.243,0.386,0.369,0.578
		c2.587,3.963,5.279,7.877,8.085,11.734c35.303,48.536,86.309,87.454,106.172,144.083c18.539,52.813,6.315,111.167-9.987,164.696
		c-5.973,19.659-12.546,40.555-6.918,60.302C751.391,1644.898,757.993,1653.941,766.748,1660.684z"/>
</g>
</svg>
