<svg t="1779965233645" class="icon" viewBox="0 0 1024 1024" version="1.1" xmlns="http://www.w3.org/2000/svg" p-id="25508" xmlns:xlink="http://www.w3.org/1999/xlink" width="200" height="200"><path d="M543.88864 417.96224c-13.52064-17.216-27.03744-34.43328-40.56064-51.65056-76.63232 78.3744-41.97504 108.27008-90.72768 166.2144 45.5744-12.05632 119.82464-66.21568 131.28832-114.56384z" fill="#FFCC00" p-id="25509"></path><path d="M468.7424 408.76416c-31.39712 49.24416-17.3056 77.60384-56.14208 123.76192 27.95648-7.39456 66.69568-30.63296 95.12064-58.65344-15.5712-18.05056-28.55424-39.77216-38.97856-65.10848z" fill="#FFDF61" p-id="25510"></path><path d="M444.352 512.38784c41.48736-29.33504 75.55968-65.63328 101.07136-109.96608-29.90336 38.0608-63.05536 67.00544-100.70528 83.29088 31.1872-19.31264 59.91168-43.54432 84.32768-76.40448-23.16928 22.56896-48.27648 37.80608-75.79776 43.92064 30.76864-11.8016 58.14912-34.1504 84.55424-59.51616-24.52736 17.76512-49.1264 34.90944-75.12064 39.01312 26.10432-9.69472 49.5808-27.6992 72.76288-46.63552-17.11488 10.63808-34.07232 22.05952-53.1648 23.04512 18.35904-5.792 30.52928-18.31424 43.1872-30.30144-14.31168 9.04192-28.24192 20.38144-44.09728 20.1408 7.392-2.29376 13.50528-6.95168 17.74976-15.05664 12.28928-5.3248 24.58112-10.64832 36.86912-15.97056 8.41088 8.04352 16.81536 16.08832 25.22624 24.13184-6.41024 7.136-12.82688 14.27456-19.23712 21.41184-20.10112 45.40416-56.21632 74.7968-97.6256 98.89664z" fill="#AD8A00" p-id="25511"></path><path d="M477.9328 428.86144c-5.0368 1.7344-10.11584 3.0528-15.2512 3.86432a147.05536 147.05536 0 0 0 14.11584-6.1312l1.13536 2.26688z m7.00032 12.87168c-10.20032 5.1968-20.75392 9.06752-31.68512 11.49568 10.23744-3.92448 20.10112-9.02272 29.6768-15.008 0.66432 1.18144 1.3312 2.35392 2.00832 3.51232z m8.82176 13.96224a214.42688 214.42688 0 0 1-2.91584-4.37376c-14.54592 13.11872-30.00576 24.41216-46.12096 34.39104 17.25056-7.4624 33.55648-17.58208 49.0368-30.01728z m-49.40288 56.69248c20.32384-14.36928 38.86464-30.40768 55.49056-48.24832 1.1776 1.55008 2.37056 3.07584 3.58144 4.576-17.2224 17.024-37.42208 31.072-59.072 43.67232z" fill="#D4AA00" p-id="25512"></path><path d="M442.272 314.82112c-183.24352-114.592-300.57984-125.61792-348.33664-27.30496 29.24928 7.94496 48.16896 28.832 58.06336 60.96768-33.87136 23.22944-48.8704 65.68704-101.61408 69.68064 59.584 20.73472 131.48032 13.3056 204.68224 2.90176-24.38144 13.30176-39.01184 30.25408-47.90528 49.3568 36.29056-19.59296 72.58368-23.5264 108.87424-24.6784-10.5856 22.87104-24.25856 39.55328-40.64512 50.8096 8.77568 12.51072 25.57696 17.00352 47.90272 15.96544-41.61408 75.00288-160.16384 132.5824-124.84096 225.00736l58.06592 79.83872c11.12704-143.22688 79.59808-249.44128 172.74624-333.87648 12.86912-54.28608 40.3584-96.20352 78.3872-129.1968-21.792-13.15584-43.584-26.3168-65.37984-39.47136z" fill="#FFCC00" p-id="25513"></path><path d="M302.2272 242.40768c-104.20992-39.616-174.0928-25.29152-208.29184 45.10848 29.24928 7.94496 48.16896 28.832 58.06336 60.96768-33.87136 23.22944-48.8704 65.68704-101.61408 69.68064 59.584 20.73472 131.48032 13.3056 204.68224 2.90176-24.38144 13.30176-39.01184 30.25408-47.90528 49.3568 36.29056-19.59296 72.58368-23.5264 108.87424-24.6784-10.5856 22.87104-24.25856 39.55328-40.64512 50.8096 8.77568 12.51072 25.57696 17.00352 47.90272 15.96544-41.61408 75.00288-160.16384 132.5824-124.84096 225.00736l58.06592 79.83872c11.12704-143.22688 79.59808-249.44128 172.74624-333.87648-87.19104-61.05472-121.34656-144.9408-127.03744-241.0816z" fill="#FFDF61" p-id="25514"></path><path d="M490.27584 364.73472c-28.68224 33.85856-48.71168 72.97152-67.7184 114.5728-47.00672 43.96288-93.38368 91.40992-132.64384 144.07936 37.78432-54.40768 80.0064-103.70304 127.47136-146.97856 19.54944-42.09664 44.0064-78.91584 69.85728-114.23232-74.85184 106.54592-159.13472 174.2592-227.81696 277.17632 62.19008-101.64864 156.49792-179.71072 224.67072-279.9104-50.45376 46.12736-90.01728 108.22016-151.36 138.37824 57.46816-39.57632 98.9696-94.39232 148.45184-141.58976-55.97952 50.1504-111.58144 104.88064-177.4848 134.3296 62.36544-38.67008 120.10496-86.25792 175.69536-137.99552-47.35488 33.22624-94.70848 69.32992-148.84096 84.28672 50.83392-21.24672 98.76864-52.14336 145.24416-87.9104-68.32256 38.30912-139.34336 69.1968-213.47072 91.5392 73.71392-27.03616 144.04096-59.28704 211.46112-96.00256-67.7568 28.88064-135.41888 58.20544-207.10656 68.42112 71.67872-15.99232 137.47584-43.74016 203.26912-71.488-102.60608 21.99424-203.33824 47.22176-295.27296 87.64416 62.35776-38.6944 175.39072-65.83296 293.23264-91.87328-126.25152 19.22816-252.93312 36.58624-373.24672 81.5232 109.79456-47.03232 238.92608-67.36384 369.19936-86.11712-99.59936 6.688-208.63232-2.95296-298.79424 20.06528 68.75648-25.66784 195.58016-15.77344 293.37088-23.65952-98.5536-5.15456-223.96032-33.89568-295.6608-15.45856 69.92128-24.2048 195.72992 7.48544 293.59616 11.22944-114.03776-15.38176-226.9888-65.96608-342.11584-46.14272 106.48448-30.0928 228.2112 28.3648 342.31552 42.54976-112.5312-21.74464-192.38784-91.24992-292.96-74.48704 92.52352-28.09472 185.77024 45.42464 278.65216 68.13696l21.93664 5.40032 17.152 15.33568 8.91648 29.1776z" fill="#AD8A00" p-id="25515"></path><path d="M304.59392 269.09696c-0.2816-2.32832-0.53504-4.6656-0.77568-7.008-46.8224-17.92768-93.60384-29.55264-140.19968-15.4048 49.92-8.32 94.73536 4.61568 140.97536 22.4128z m3.69408 24.39168c-64.37248-14.74688-128.84864-26.09024-194.02496-14.8672 60.85376-17.1968 126.6816-5.47584 193.2224 10.37568 0.25728 1.50272 0.52736 2.99904 0.80256 4.49152z m4.33664 20.24064c-57.13152-6.3744-111.26272-10.11584-149.84192-0.19456 37.75232-13.06752 91.80672-9.83936 148.94848-3.51616 0.29056 1.2416 0.5888 2.47424 0.89344 3.71072z m6.41024 22.5792c-53.7984 1.16224-106.49472 4.22528-153.96224 16.34432 38.12864-14.23488 94.11968-17.53088 153.10976-18.99008 0.27904 0.88448 0.56704 1.76512 0.85248 2.64576z m8.50176 23.01184a281.10464 281.10464 0 0 1-1.98912-4.89088c-81.728 14.8416-160.3008 34.0416-230.88 64.2752 75.66848-28.2624 153.856-45.6128 232.86912-59.38432z m6.5728 14.592a261.14176 261.14176 0 0 1-2.07232-4.36224c-64.11392 17.17632-119.8848 36.25344-157.35552 59.50464 50.8416-22.3552 104.37632-40.06016 159.42784-55.1424z m11.13472 20.6528a250.0224 250.0224 0 0 1-1.97632-3.35872c-24.93184 8.41856-50.36288 15.84384-76.5824 21.69216 26.67264-3.8016 52.7872-10.24896 78.55872-18.33344z m8.5504 13.45408c-29.9648 12.2624-60.44032 23.11168-91.46368 32.4608a1541.78304 1541.78304 0 0 0 89.15712-35.90528c0.75776 1.15328 1.5296 2.30016 2.30656 3.44448z m11.77344 16.05632c-11.38688 5.11744-23.03104 9.46432-35.01056 12.77568a487.16288 487.16288 0 0 0 33.02272-15.31264c0.65664 0.84736 1.32224 1.69216 1.98784 2.53696z m16.06656 18.55488a314.13888 314.13888 0 0 1-3.47136-3.73632c-24.15744 18.49984-48.91776 35.83104-74.46016 51.66592 27.5136-12.29312 53.23264-28.99584 77.93152-47.9296z m11.45088 11.4496a315.14112 315.14112 0 0 1-3.69408-3.55328c-17.57312 17.01504-36.09216 33.13024-56.65536 47.29344 22.51264-11.06944 42.08896-26.44096 60.34944-43.74016z m11.71456 10.51264c-0.91008-0.77824-1.82144-1.55392-2.71872-2.336-50.5536 57.32992-103.10016 112.4416-142.656 177.09568 44.21888-66.25792 94.90176-117.93024 145.37472-174.75968z m17.98144 14.23104l-0.224 0.48384c-47.00672 43.96288-93.38368 91.40992-132.64384 144.07936 37.78432-54.40768 80.0064-103.70304 127.47136-146.97856l0.56448-1.2096c1.59232 1.21472 3.20128 2.42304 4.832 3.62496z" fill="#D4AA00" p-id="25516"></path><path d="M797.45536 500.93824c-14.05824 43.35616-13.23904 83.74656 11.41376 119.36384-56.60672-28.69888-77.64224-64.31488-64.57344-106.56384 14.75328-11.41632 29.50144-22.83136 44.25088-34.24768l8.9088 21.44768z" fill="#BD9700" p-id="25517"></path><path d="M699.98336 509.11872c-56.61184 81.04832-71.85408 180.97024-169.84192 243.14752-12.11392-30.26944-38.44736-49.08032-80.56704-55.1616 11.15392-12.47232 25.8688-23.57248 45.00352-33.38496-3.14496-48.512 27.09632-93.39136 40.64384-140.08576 43.66208 6.04928 89.37728-5.47584 135.00416-14.5152h29.75744z" fill="#FFCC00" p-id="25518"></path><path d="M631.23712 636.53504c-23.2576 43.3408-51.63264 84.3456-101.09568 115.7312-12.11392-30.26944-38.44736-49.08032-80.56704-55.1616 11.15392-12.47232 25.8688-23.57248 45.00352-33.38496-3.14496-48.512 27.09632-93.39136 40.64384-140.08576 12.5376 1.73568 25.24416 2.02112 38.07104 1.33888 12.99584 45.63072 32.21504 82.944 57.94432 111.56224z" fill="#FFDF61" p-id="25519"></path><path d="M689.46432 514.47168c-47.29984 70.40512-75.72864 157.1392-141.9008 211.21792 58.24896-61.27104 92.18048-141.05216 138.27072-211.58144-50.92864 65.80864-94.96192 142.14144-152.78976 197.4272 54.76352-62.12352 99.92448-132.58496 149.88544-198.87616-56.25344 61.93664-108.1472 134.03264-168.75392 185.80736 57.52448-56.6912 108.87296-123.14624 163.3088-184.72064-57.46816 62.39616-114.55104 119.07584-170.56768 159.68128 55.89504-46.78528 110.2592-101.62944 164.21888-158.592-49.36704 45.43488-99.24096 88.98816-151.51616 123.75552 49.88416-37.94304 98.30784-80.61312 146.25536-124.8448-44.06016 35.37024-89.13152 66.0032-136.09472 87.82464 45.71392-24.9152 87.83616-54.62272 127.74528-87.28064-38.9376 23.83744-78.28352 44.6976-118.67136 57.88672 38.41536-14.99648 75.85664-35.52256 112.81792-58.74432l38.87872-7.3088c-0.36352 2.784-0.72704 5.56544-1.08672 8.34816z" fill="#AD8A00" p-id="25520"></path><path d="M583.09504 554.71232l-0.72192-1.93024c-14.38208 7.16544-28.87936 13.67936-43.51872 19.39456 14.87744-4.85504 29.61536-10.75712 44.24064-17.46432z m5.8496 14.42304c-19.42144 12.20352-39.11936 23.12448-59.16416 32.4352 19.96928-10.88256 39.24992-22.6816 57.96352-35.2384 0.3968 0.93696 0.8 1.87392 1.20064 2.8032z m5.95968 12.87168c-0.54272-1.1008-1.07776-2.20928-1.61024-3.328-24.27392 20.88448-48.79616 40.98816-73.67424 59.91168 25.59744-17.024 50.61888-36.15744 75.28448-56.58368z m5.7792 11.08864a268.66304 268.66304 0 0 1-2.07488-3.84384c-30.2208 29.85856-60.72192 58.2528-91.69152 84.17536 30.96576-22.44608 62.26176-49.8112 93.7664-80.33152z m5.40544 9.35424c-0.61184-1.00992-1.22112-2.02752-1.82272-3.0528-29.1968 34.3424-58.7264 68.16-90.09024 99.06944 32.46976-27.73632 62.432-61.30304 91.91296-96.01664z m7.68512 11.88736a268.45056 268.45056 0 0 1-2.16832-3.19744c-24.95616 34.53312-50.496 68.55936-78.56128 100.39552 29.60128-28.29696 55.58144-62.10816 80.7296-97.19808z m10.53952 14.09152c-20.96128 36.41984-44.32512 70.76224-76.75008 97.2608 28.94208-30.44864 51.88096-65.46048 73.28896-101.63968 1.14048 1.47712 2.2912 2.94016 3.46112 4.37888z" fill="#D4AA00" p-id="25521"></path><path d="M720.98816 233.52832c-32.59136-23.63392-59.03104-59.96032-97.77408-70.90304-41.38496-11.68896-85.888 4.59776-128.832 6.89408-8.69376 44.08576-33.8048 82.11968-60.96896 119.3984 22.97856 12.71296 36.72704-15.89504 75.82336-11.38688 70.58432-14.66624 141.16992-29.33248 211.75168-44.00256z" fill="#FFCC00" p-id="25522"></path><path d="M663.35232 184.23168c-12.26496-9.4976-25.29792-17.41568-40.13824-21.6064-41.38496-11.68896-85.888 4.59776-128.832 6.89408-8.69376 44.08576-33.8048 82.11968-60.96896 119.3984 19.87584 10.9952 32.84736-8.91648 61.28768-11.58144l0.00512-0.00256c38.12864-62.28992 95.03616-92.13312 168.6464-93.10208z" fill="#FFDF61" p-id="25523"></path><path d="M696.16128 232.66816c-29.5104-30.60224-62.06592-51.41504-98.35008-60.2432 35.72864 14.5664 61.42592 36.4672 84.5568 60.2432-34.68672-23.61984-69.75616-46.96064-113.22752-64.2368 37.0112 18.11712 67.15776 40.4288 95.44576 63.87328-38.18112-24.65152-77.34144-46.97216-119.3984-62.4192 39.6288 17.5616 73.23776 40.1408 104.15616 64.95872-1.08928-0.84608-2.17728-1.69472-3.26272-2.53952-36.62336-25.85088-77.2096-46.48832-123.02848-60.2432 36.98432 15.01824 69.5872 34.21184 96.89728 58.42688-36.23296-23.25248-74.69568-40.13568-114.31552-53.7088 33.06496 15.39328 65.2864 32.49408 93.99296 56.6144-30.29504-20.47872-64.42752-34.56384-100.52864-45.36576 35.15136 13.36704 66.83008 30.67136 94.71872 52.25984-31.33056-17.34656-63.98336-32.14592-101.61536-37.37856 32.8896 9.71008 60.86656 23.55712 84.56064 41.00864-27.05024-15.65824-56.53888-25.34528-88.91392-27.94496 27.45856 7.01824 53.10976 17.65888 76.2112 33.39008-27.79264-12.50048-55.91424-17.26464-84.19712-18.14784 26.85312 4.11648 51.17312 11.61216 70.76864 25.40416-24.18176-8.98176-50.57664-12.06656-79.11424-9.43616 22.23104 0.6848 44.07808 2.52416 62.42176 14.87872-22.88256-5.6064-46.54976-3.36-70.4064 0.72704h2.9056c23.38688-1.33504 45.70112-1.34656 62.78016 5.08032l142.26432-26.85568c8.224-2.78144 16.45184-5.56544 24.6784-8.3456z" fill="#AD8A00" p-id="25524"></path><path d="M507.37152 258.74048c-14.4448-0.29824-29.10592 1.52576-43.83872 4.04864h2.9056c13.25568-0.75648 26.17216-1.08928 37.984-0.064a211.06304 211.06304 0 0 1 2.94912-3.98464z m8.72576-10.75712c-14.21952-1.96992-29.08416-2.22848-44.57984-0.8 14.07744 0.43136 28 1.3312 40.97792 5.06624a213.76512 213.76512 0 0 1 3.60192-4.26624z m10.45248-11.10144a183.83104 183.83104 0 0 0-4.71936 4.8c-12.95872-4.86016-27.07328-8.18432-41.96736-10.46656 15.61984 0.48768 31.1936 2.16192 46.68672 5.66656z m11.70688-10.53184c-15.98976-5.44128-32.76928-8.96256-50.40768-10.37696 15.42784 3.94368 30.2848 9.03168 44.44288 15.52384a179.89376 179.89376 0 0 1 5.9648-5.14688z m10.4576-7.97184a181.92 181.92 0 0 0-6.08 4.48256c-15.36128-7.86944-32.13824-14.55104-50.432-19.95264 20.06912 2.78912 38.72 8.30208 56.512 15.47008z m11.3792-7.38176c-19.40608-9.1968-39.86432-16.64512-60.99456-22.96832 19.68512 7.48928 38.28096 16.20864 55.73632 26.22464a170.87104 170.87104 0 0 1 5.25824-3.25632z m12.70528-6.8544c-21.86624-10.60992-44.32256-19.53792-67.16416-27.36256 20.27136 9.44 40.23296 19.52256 59.25504 31.4688a176.4608 176.4608 0 0 1 7.90912-4.10624z m15.1296-6.53568a416.72704 416.72704 0 0 0-64.87552-25.54624c20.37248 8.27264 39.40992 17.80992 56.96768 28.75648a181.36704 181.36704 0 0 1 7.90784-3.21024z m11.0912-3.80928c-1.73696 0.53504-3.45984 1.09568-5.17248 1.67936-15.2576-9.3312-31.38816-17.9392-48.6592-25.59232 18.44864 6.77632 36.33792 14.8736 53.83168 23.91296z m15.22304-4.04864c-1.74848 0.39296-3.48288 0.80896-5.2096 1.24416-12.47104-8.02432-25.67552-15.60192-39.89248-22.56256 16.04608 6.37696 30.944 13.5808 45.10208 21.3184z m20.63744-3.584c-11.91296-6.00704-24.25728-10.62272-37.0688-13.7408a208.1664 208.1664 0 0 1 29.45408 14.82624c2.5152-0.40448 5.05344-0.76288 7.61472-1.08544z" fill="#D4AA00" p-id="25525"></path><path d="M442.272 314.8224c27.81184 42.5856 53.99936 86.1504 101.61664 116.85632 49.50016 99.10528 150.57792 105.1072 279.43936 60.96896 60.08576-22.94912 129.12896-42.05824 159.68-77.66272-5.07776-3.63008-10.15808-7.26016-15.23968-10.88896 5.568-4.35328 11.13088-8.70912 16.69504-13.0624-27.0784-53.97248-86.85184-75.2512-143.71456-99.43936-33.51808-33.22496-74.62784-50.00192-119.76064-58.06592-176.37376-44.75776-185.80864 54.1952-278.71616 81.29408z" fill="#FFCC00" p-id="25526"></path><path d="M442.272 314.8224c27.81184 42.5856 53.99936 86.1504 101.61664 116.85632 49.50016 99.10528 150.57792 105.1072 279.43936 60.96896 7.3472-2.8032 14.82496-5.55264 22.3488-8.28032-88.7936-34.7648-60.8-131.80928-23.5328-182.30144-43.24992 30.40768-68.6848 84.1344-50.80448 153.14944-36.32128 42.81088-111.68768 48.42368-154.60352 10.88768-42.91072-37.53728-35.71456-117.65632 28.3072-186.53568-54.91712 17.03296-93.99296 62.20672-95.07968 119.76064-40.96384-14.03136-75.91936-44.82816-107.69152-84.5056z" fill="#D6AB00" p-id="25527"></path><path d="M763.46368 452.13696c-22.5728-48.61184-19.16032-96.78976 16.33152-144.43904-137.30176-37.7408-182.8352 70.04032-164.76032 116.49536 18.0736 46.45632 95.33824 64.80768 148.4288 27.94368z" fill="#FFD633" p-id="25528"></path><path d="M624.83968 410.03648c31.72736-12.5056 66.38464-16.64128 104.88064-9.79712-0.4864 20.25472 8.35584 36.11904 24.31616 48.62976-54.72896 22.8864-110.4448 7.94752-129.1968-38.83264z" fill="#FFDF61" p-id="25529"></path><path d="M882.52416 471.01184c41.32992-15.31648 79.7632-31.87712 100.48384-56.02688-5.07776-3.63008-10.16064-7.26016-15.23968-10.88896 5.56416-4.35328 11.12576-8.70912 16.69504-13.0624-27.0784-53.9712-86.85184-75.24992-143.71456-99.43936-33.51808-33.22496-74.62784-50.00192-119.76064-58.06592-176.37376-44.75648-185.80864 54.1952-278.71616 81.29408 89.64992-22.7008 128.49664-106.37184 268.95104-68.09984 42.59328 0.28544 84.66432 18.82624 126.2912 52.98432 19.55712 11.64032 34.39744 26.58944 44.27392 45.00096-42.33728 60.2432 32.90496 87.82464 55.88992 30.48448 7.18592 7.88864 12.1728 16.78848 13.06496 27.58144-14.87744 28.64512-37.86112 51.20512-68.21888 68.23808z" fill="#D6AB00" p-id="25530"></path><path d="M899.02848 403.59424c13.74464 0 24.95232-11.2064 24.95232-24.94976 0-13.7408-11.20768-24.94848-24.95232-24.94848-13.73952 0-24.94848 11.20768-24.94848 24.94848 0 13.74336 11.20896 24.94976 24.94848 24.94976z" fill="#FFCC00" p-id="25531"></path><path d="M903.23712 398.01216c9.03808 0 16.4096-7.37024 16.4096-16.4096 0-9.03808-7.37152-16.41088-16.4096-16.41088-9.04064 0-16.4096 7.3728-16.4096 16.41088 0 9.03936 7.36896 16.4096 16.4096 16.4096z" fill="#FFECA1" p-id="25532"></path><path d="M904.8704 393.16096c6.7648 0 12.28672-5.5168 12.28672-12.28288 0-6.7648-5.52192-12.28288-12.28672-12.28288s-12.28288 5.51808-12.28288 12.28288c0 6.76608 5.51808 12.28288 12.28288 12.28288z" fill="#332900" p-id="25533"></path><path d="M452.18944 320.60544c25.25184 30.12096 54.70976 50.92864 86.73664 66.04928 1.99168-21.35808 7.20384-39.72864 15.968-54.80064-39.74912 6.63168-71.27296-2.21824-102.70464-11.24864z" fill="#FFD633" p-id="25534"></path></svg>