<?xml version="1.0" encoding="utf-8"?>
<!-- Generator: Adobe Illustrator 27.5.0, SVG Export Plug-In . SVG Version: 6.00 Build 0)  -->
<svg version="1.1" id="Capa_1" xmlns="http://www.w3.org/2000/svg" xmlns:xlink="http://www.w3.org/1999/xlink" x="0px" y="0px"
	 viewBox="0 0 2122 2122" style="enable-background:new 0 0 2122 2122;" xml:space="preserve">
<g>
	<path style="fill:#BC561B;" d="M1259.276,742.994c-0.955,20.619-3.961,40.974-7.893,61.218c-0.802,4.184-1.701,8.355-2.566,12.53
		c9.338,3.159,19.409,4.503,26.176,4.24c12.541-0.487,25.724-9.218,26.635-21.735c0.644-8.828-4.745-17.242-4.229-26.075
		c0.492-8.502,6.344-15.722,12.711-21.374c6.363-5.652,13.618-10.504,18.568-17.428c4.95-6.923,7.05-16.877,2.144-23.834
		c-6.577-9.33-22.173-9.077-27.805-19.011c-4.156-7.327-0.799-16.389,1.598-24.463c2.392-8.073,2.826-18.66-4.4-22.986
		c-8.526-5.106-18.626,3.196-25.067,10.762c-6.749,7.93-13.5,15.861-20.251,23.792c1.726,9.388,3.057,18.861,3.803,28.389
		C1259.651,718.99,1259.826,731.019,1259.276,742.994z"/>
	<path style="fill:#BC561B;" d="M1406.379,1529.284c3.903,54.099-1.734,108.989-16.828,161.008
		c-13.101,45.228-33.315,88.312-60.526,126.889c-2.534,3.585-5.138,7.129-7.792,10.64c20.777,15.583,78.895,55.981,94.564,17.959
		c7.357-17.861-10.952-37.135-8.161-56.253c2.914-19.932,25.798-29.028,44.896-35.445c19.094-6.411,41.384-19.147,39.81-39.23
		c-1.797-22.85-33.847-33.803-36.258-56.594c-1.963-18.568,16.478-32.059,32.395-41.817c15.917-9.754,33.734-24.814,29.715-43.045
		c-4.789-21.705-35.869-26.319-46.315-45.939c-9.228-17.33,1.092-38.114,10.256-55.478c9.164-17.369,16.77-40.331,3.839-55.103
		c-14.09-16.093-43.21-10.524-57.052-26.831c-7.795-9.194-8.083-22.509-6.68-34.485c1.398-11.971,4.064-24.283,0.789-35.883
		c-3.269-11.605-15.235-21.929-26.723-18.29c-7.235,2.294-11.893,9.145-15.937,15.566c-7.998,12.709-15.789,25.548-23.458,38.463
		c10.519,19.707,19.469,40.178,26.679,61.264C1396.055,1452.967,1403.631,1490.935,1406.379,1529.284z"/>
	<path style="fill:#BC561B;" d="M1431.304,1192.831c8.327-30.855-27.093-59.196-23.566-90.948
		c1.968-17.666,15.932-31.893,31.488-40.511c11.742-6.504,26.144-12.205,30.105-25.014c4.541-14.689-7.693-29.062-20.097-38.144
		c-12.404-9.077-27.152-17.895-30.914-32.789c-4.219-16.628,7.084-32.619,15.211-47.713c8.127-15.098,11.942-37.047-2.168-46.733
		c-9.574-6.563-22.441-3.761-33.92-5.379c-19.664-2.777-36.005-20.935-36.696-40.769c-0.551-15.216,6.504-32.448-2.836-44.478
		c-3.932-5.033-9.048-7.489-14.689-8.877c-43.612,64.395-87.451,129.644-120.826,199.567c-0.265,3.92-0.608,7.837-0.797,11.76
		c-2.343,48.058,1.184,96.263,12.375,142.329c3.899,16.032,8.745,31.791,14.58,47.204c44.018,19.859,91.018,35.416,135.559,52.82
		c4.453,1.739,8.964,3.503,13.53,5.12C1411.524,1219.228,1426.793,1209.454,1431.304,1192.831z"/>
	<path style="fill:#EE9821;" d="M983.724,1680.313c12.609-35.42,63.386-53.783,90.972-28.278c4.975,4.599,10.183,10.67,16.862,9.891
		c6.996-0.838,10.67-8.794,11.479-15.761c3.732-32.794-27.732-60.351-59.946-67.464c-59.947-13.271-124.516,26.631-147.133,83.718
		c-8.268,20.819-11.391,43.113-10.148,65.32c29.378-13.418,61.651-21.223,94.07-27.44
		C980.168,1693.561,981.41,1686.823,983.724,1680.313z"/>
	<path style="fill:#EE9821;" d="M1061.366,828.933c1.68,5.752,3.079,11.546,4.324,17.363c19.981-9.071,40.897-16.463,61.752-23
		c40.053-12.55,82.587-22.728,123.941-19.084c3.931-20.243,6.938-40.599,7.893-61.218c0.55-11.976,0.375-24.005-0.575-35.975
		c-5.179,4.395-11.25,7.723-17.408,10.67c-24.667,11.771-51.854,18.28-79.176,18.972c-35.425,0.896-70.5-7.81-105.895-7.43
		c-16.974,0.2-30.334,3.903-42.914,9.252c0.521,10.466,0.146,21.111-1.213,31.922c4.916,0.638,9.452,2.056,13.359,4.312
		C1044.679,785.908,1055.12,807.623,1061.366,828.933z"/>
	<path style="fill:#EE9821;" d="M1068.027,1001.042c-0.281,3.688-0.559,7.377-0.829,11.063c1.704,0.018,3.408,0.118,5.086,0.35
		c20.068,2.763,36.093,17.501,50.704,31.527c21.964,21.087,43.932,42.173,65.895,63.259c5.466,5.247,11.05,10.655,14.251,17.52
		c0.99,2.12,1.665,4.425,2.043,6.765c9.507-2.615,19.103-4.794,28.798-6.395c-11.191-46.066-14.719-94.27-12.375-142.329
		C1168.666,978.388,1117.75,985.666,1068.027,1001.042z"/>
	<path style="fill:#EE9821;" d="M1222.175,1710.764c-6.592,14.69-15.269,28.399-26.022,40.516c1.559,8.702,1.905,17.954,2.31,26.66
		c2.027,43.663,12,86.894,28.979,127.205c10.436-4.394,20.502-9.656,30.1-15.844c20.706-13.335,38.578-30.568,54.31-49.593
		c-14.49-32.706-32.736-63.737-54.163-92.394C1252.479,1740.348,1236.981,1726.326,1222.175,1710.764z"/>
	<path style="fill:#EE9821;" d="M1177.96,1329.288c32.374,47.161,58.241,105.113,47.538,160.257
		c6.319-5.078,12.748-10.024,19.234-14.829c25.125-18.65,51.386-36.38,80.648-47.337c18.538-6.943,38.489-11.05,58.212-10.699
		c-7.21-21.086-16.16-41.557-26.679-61.264c-2.263-4.24-4.508-8.489-6.924-12.651c-12.492-21.486-26.777-41.9-40.916-62.402
		c-47.305,3.739-93.372,20.077-134.732,43.759C1175.55,1325.843,1176.772,1327.558,1177.96,1329.288z"/>
	<path style="fill:#EE9821;" d="M1094.014,1798.559c-25.734,0.867-51.328-5.525-72.609-20.361c-0.492-0.346-0.984-0.692-1.447-1.038
		c-18.942,13.53-36.292,30.563-49.505,47.396c-8.127,10.119-14.923,21.223-20.331,32.994
		c29.759,26.631,66.801,44.965,105.807,55.347c5.325-30.276,14.231-59.947,26.519-88.112
		C1084.85,1819.261,1088.811,1809.722,1094.014,1798.559z"/>
	<path style="fill:#EE9821;" d="M1389.551,1690.292c15.094-52.019,20.731-106.909,16.828-161.008
		c-20.473,2.948-44.389,8.034-48.609,9.077c-25.88,6.48-50.952,16.224-74.436,28.921c-17.637,9.539-32.297,21.832-47.508,33.773
		c2.08,13.535,2.86,27.327,2.256,41.003C1291.865,1643.13,1346.925,1659.207,1389.551,1690.292z"/>
	<path style="fill:#F08009;" d="M1162.116,736.661c27.322-0.692,54.509-7.201,79.176-18.972c6.158-2.948,12.229-6.275,17.408-10.67
		c-0.746-9.528-2.077-19-3.803-28.389c-1.665-9.052-3.811-17.985-6.411-26.785c-5.842,3.737-11.706,7.392-17.605,11.047
		c-28.253,17.525-58.733,34.178-91.927,35.595c-37.072,1.564-76.083-15.815-110.002-0.838c-7.001,3.064-13.389,7.435-19.81,11.654
		c-0.021,0.014-0.041,0.026-0.062,0.04c2.221,9.55,3.697,19.252,4.228,29.138c12.58-5.349,25.939-9.052,42.914-9.252
		C1091.617,728.851,1126.691,737.557,1162.116,736.661z"/>
	<path style="fill:#F08009;" d="M1127.442,823.296c-20.855,6.537-41.771,13.929-61.752,23c10.73,50.12,6.312,102.51,2.337,154.746
		c49.723-15.376,100.638-22.655,153.572-18.238c0.189-3.923,0.531-7.84,0.797-11.76c1.853-27.257,5.444-54.416,10.653-81.034
		c4.764-24.478,10.696-48.815,15.767-73.268c0.865-4.175,1.765-8.346,2.566-12.53
		C1210.028,800.568,1167.495,810.746,1127.442,823.296z"/>
	<path style="fill:#F08009;" d="M1205.177,1131.528c0.847,5.237,0.04,10.673-3.212,14.775c-5.778,7.269-16.366,7.825-25.623,8.57
		c-9.257,0.745-20.141,3.62-23.123,12.419c-1.783,5.248-0.058,10.948,0.506,16.463c0.565,5.515-0.804,12.2-5.939,14.295
		c-2.65,1.082-5.661,0.624-8.453-0.005c-12.132-2.719-23.601-8.351-33.17-16.288c-7.883,2.244-9.985,13.783-15.944,18.466
		c21.77,44.453,55.396,82.963,84.121,123.9c41.359-23.682,87.426-40.02,134.732-43.759c-14.777-21.486-29.408-43.06-41.612-66.075
		c-7.227-13.63-13.491-27.642-18.906-41.951c-5.835-15.414-10.681-31.172-14.58-47.204
		C1224.281,1126.733,1214.684,1128.913,1205.177,1131.528z"/>
	<path style="fill:#F08009;" d="M1357.77,1538.36c4.219-1.043,28.136-6.129,48.609-9.077
		c-2.747-38.349-10.324-76.317-22.786-112.604c-19.723-0.351-39.674,3.757-58.212,10.699
		c-29.262,10.957-55.522,28.687-80.648,47.337c-6.486,4.806-12.915,9.752-19.234,14.829c-0.914,4.707-1.999,9.4-3.465,14.057
		c-2.606,8.273-6.362,16.541-11.712,23.279c8.76,16.278,15.815,33.427,20.702,51.357c2.027,7.488,3.644,15.093,4.804,22.816
		c15.211-11.942,29.871-24.234,47.508-33.773C1306.818,1554.584,1331.89,1544.84,1357.77,1538.36z"/>
	<path style="fill:#EE9821;" d="M1028.952,697.65c33.919-14.977,72.93,2.402,110.002,0.838c33.193-1.417,63.673-18.07,91.927-35.595
		c5.899-3.655,11.764-7.31,17.605-11.047c0.029-0.019,0.06-0.038,0.09-0.057h0.029c22.904-14.519,45.457-29.613,66.826-46.353
		c6.134-4.804,12.955-9.374,19.435-14.285c-5.959,0.024-11.912-0.697-17.696-2.285c-37.886-10.295-63.187-52.2-57.603-91.064
		c2.338-16.337,9.252-31.693,11.766-48c2.514-16.283-0.634-35.192-13.998-44.795c-10.524-7.576-24.492-7.488-37.038-10.611
		c-31.089-7.723-54.83-38.461-54.426-70.47c0.234-19.089,6.972-41.554-6.621-54.972c-12.867-12.697-34.007-7.172-51.791-3.849
		c-35.337,6.568-72.96,0.175-104.132-17.725c-10.003-5.724-19.4-12.638-29.754-17.696c-3.182,2.602-6.246,5.35-9.282,8.068
		c-4.974,4.483-10.212,8.965-15.62,13.53c7.118,15.849,0.029,35.859-17.087,49.939c-12.696,10.47-27.907,17.5-40.774,27.708
		c-26.168,20.76-41.091,54.972-38.373,88.253c1.939,23.596,12.058,45.89,14.139,69.461c2.923,32.994-10.09,65.291-26.051,94.295
		c-37.247,67.493-92.448,124.984-158.382,164.916c-25.16,15.24-52.746,28.136-81.486,33.023
		c4.999,15.99,28.248,33.316,41.637,40.775c44.507,24.896,85.856-0.405,120.239-32.273c31.318-29.062,64.891-57.978,106.616-71.02
		c40.2-12.58,78.456,16.224,117.262,4.745c8.219-2.453,15.457-7.029,22.666-11.76c0.021-0.014,0.041-0.027,0.062-0.04
		C1015.564,705.085,1021.951,700.714,1028.952,697.65z"/>
	<path style="fill:#F08009;" d="M1107.461,265.105c17.783-3.323,38.923-8.848,51.791,3.849c13.593,13.418,6.855,35.883,6.621,54.972
		c-0.404,32.01,23.337,62.747,54.426,70.47c12.545,3.123,26.514,3.035,37.038,10.611c13.364,9.603,16.512,28.512,13.998,44.795
		c-2.514,16.307-9.428,31.663-11.766,48c-5.584,38.865,19.717,80.769,57.603,91.064c5.783,1.588,11.737,2.309,17.696,2.285
		c6.884-5.237,13.389-10.875,18.392-17.642c18.767-25.564-11.104-25.36-29.671-31.493c-19.318-6.388-30.046-28.161-30.07-48.521
		c-0.029-24.375,17.724-51.415,24.346-74.607c3.035-10.699,8.414-26.227,4.857-37.418c-6.042-18.885-29.233-16.224-45.92-15.469
		c-21.515,0.95-45.111-1.506-60.467-16.57c-9.891-9.72-14.919-23.596-16.078-37.393c-2.484-29.9,11.079-58.236,14.923-87.415
		c0.692-5.232,1.043-10.758-1.101-15.586c-4.394-9.92-17.783-12.78-28.195-9.657c-10.407,3.123-18.88,10.524-27.99,16.453
		c-26.027,16.974-59.396,22.236-89.413,14.08c-23.22-6.304-46.324-20.297-69.632-14.372c-9.486,2.402-17.666,7.868-25.271,14.143
		c10.353,5.057,19.751,11.971,29.754,17.696C1034.501,265.28,1072.124,271.673,1107.461,265.105z"/>
	<path style="fill:#FCD48C;" d="M1225.499,1489.546c10.703-55.144-15.164-113.096-47.538-160.257
		c-1.189-1.731-2.411-3.445-3.619-5.167c-28.724-40.937-62.35-79.447-84.121-123.9c-1.325,1.042-2.837,1.754-4.65,1.939
		c-7.8,0.789-11.985-8.775-13.69-16.424c-5.661-25.393-11.26-50.796-16.785-76.214c-4.541-20.877-14.495-46.528-14.631-67.766
		c-0.068-10.923,4.892-22.597,14.753-27.298c3.713-1.77,7.844-2.397,11.981-2.352c0.27-3.686,0.548-7.375,0.829-11.063
		c3.975-52.236,8.392-104.626-2.337-154.746c-1.245-5.817-2.644-11.611-4.324-17.363c-6.246-21.311-16.687-43.025-35.912-54.217
		c-3.907-2.255-8.443-3.673-13.359-4.312c-0.726,5.93-1.769,11.917-3.07,17.929c-0.898,4.104-1.932,8.164-3.029,12.201
		c-0.308,1.132-0.633,2.258-0.955,3.385c-0.895,3.129-1.844,6.24-2.848,9.332c-0.315,0.972-0.615,1.95-0.941,2.919
		c-1.311,3.9-2.694,7.775-4.161,11.621c-0.307,0.808-0.639,1.607-0.953,2.412c-1.213,3.112-2.472,6.207-3.775,9.287
		c-0.504,1.192-1.012,2.382-1.529,3.569c-1.34,3.079-2.719,6.143-4.135,9.193c-0.348,0.75-0.682,1.507-1.034,2.255
		c-1.741,3.693-3.54,7.363-5.377,11.018c-0.554,1.104-1.123,2.202-1.684,3.302c-1.437,2.812-2.894,5.617-4.378,8.41
		c-0.534,1.009-1.066,2.019-1.607,3.026c-1.995,3.713-4.013,7.415-6.069,11.101c-6.884,43.352-38.261,95.547-46.154,128.453
		c-14.719,61.476-3.527,128.741,30.334,182.148c30.392,47.975,76.657,83.196,118.879,121.165
		c42.217,37.997,82.763,82.529,95.225,137.934c0.287,1.301,0.575,2.631,0.809,3.961c1.043,1.127,2.051,2.282,3.078,3.424
		c1.786,1.984,3.55,3.984,5.286,6.008c0.947,1.102,1.887,2.207,2.817,3.321c2.631,3.15,5.216,6.336,7.72,9.578
		c0.202,0.261,0.393,0.53,0.594,0.793c2.492,3.248,4.901,6.551,7.255,9.889c0.438,0.621,0.879,1.242,1.311,1.867
		c2.528,3.641,4.989,7.321,7.34,11.065c3.269,5.208,6.373,10.51,9.277,15.911c5.35-6.738,9.106-15.006,11.712-23.279
		C1223.5,1498.945,1224.585,1494.252,1225.499,1489.546z"/>
	<path style="fill:#BC561B;" d="M1188.884,1107.243c-21.963-21.087-43.931-42.173-65.895-63.259
		c-14.611-14.027-30.636-28.765-50.704-31.527c-1.678-0.232-3.383-0.332-5.086-0.35c-4.136-0.044-8.268,0.582-11.981,2.352
		c-9.861,4.702-14.821,16.375-14.753,27.298c0.136,21.238,10.09,46.889,14.631,67.766c5.525,25.418,11.123,50.821,16.785,76.214
		c1.705,7.649,5.89,17.213,13.69,16.424c1.813-0.185,3.325-0.897,4.65-1.939c5.959-4.683,8.061-16.222,15.944-18.466
		c9.569,7.937,21.038,13.569,33.17,16.288c2.791,0.629,5.803,1.087,8.453,0.005c5.135-2.095,6.504-8.78,5.939-14.295
		c-0.565-5.515-2.289-11.215-0.506-16.463c2.982-8.799,13.866-11.673,23.123-12.419c9.257-0.745,19.844-1.301,25.623-8.57
		c3.252-4.101,4.058-9.538,3.212-14.775c-0.378-2.34-1.053-4.645-2.043-6.765C1199.934,1117.898,1194.35,1112.49,1188.884,1107.243z
		"/>
	<path style="fill:#9F3F16;" d="M1495.3,1068.251c19.951-15.265,34.236-43.722,21.598-65.437
		c-12.809-22.008-47.337-27.211-54.333-51.703c-8.186-28.716,29.149-52.254,29.496-82.095c0.234-18.597-16.828-35.63-35.45-35.337
		c-14.402,0.229-29.325,9.223-42.421,3.235c-15.878-7.196-15.937-29.32-14.056-46.67c1.88-17.349-0.088-39.936-16.775-44.994
		c-15.668-4.746-29.578,10.641-38.777,24.2c-0.463,0.668-0.926,1.359-1.359,2.027c5.642,1.388,10.757,3.844,14.689,8.877
		c9.34,12.029,2.285,29.262,2.836,44.478c0.691,19.834,17.032,37.992,36.696,40.769c11.479,1.618,24.346-1.184,33.92,5.379
		c14.109,9.686,10.294,31.634,2.168,46.733c-8.127,15.094-19.43,31.084-15.211,47.713c3.761,14.894,18.509,23.713,30.914,32.789
		c12.404,9.082,24.638,23.454,20.097,38.144c-3.961,12.809-18.363,18.509-30.105,25.014c-15.556,8.618-29.52,22.845-31.488,40.511
		c-3.527,31.751,31.893,60.092,23.566,90.948c-4.512,16.624-19.78,26.397-33.661,37.447c12.813,4.541,25.968,8.01,39.444,7.231
		c18.246-1.072,37.276-12.293,41.267-30.134c7.26-32.531-36.497-59.888-29.988-92.589
		C1452.791,1092.573,1477.312,1081.99,1495.3,1068.251z"/>
	<path style="fill:#9F3F16;" d="M1305.551,947.447c19.142-19.863,39.308-39.479,55.893-61.559c2.607-3.469-2.69-6.529-5.535-4.268
		c-22.509,17.861-42.407,39.634-62.485,60.151c-17.432,17.812-41.067,36.058-51.615,58.924c-0.95,2.06,0.984,4.131,3.089,3.094
		C1268.693,992.056,1287.32,966.366,1305.551,947.447z"/>
	<path style="fill:#9F3F16;" d="M1421.036,1030.808c-26.437-0.418-52.918,2.334-79.232,4.64c-23.278,2.036-48.6,1.898-70.872,9.361
		c-4.08,1.366-2.961,6.562,0.963,7.084c25.579,3.416,53.663-2.268,79.232-5.001c23.671-2.534,47.461-4.674,70.796-9.518
		C1425.695,1036.591,1424.723,1030.865,1421.036,1030.808z"/>
	<path style="fill:#9F3F16;" d="M1377.556,1166.307c-17.152-10.955-34.371-21.755-50.963-33.555
		c-16.507-11.743-31.738-25.308-49.131-35.695c-3.07-1.836-5.713,2.192-3.625,4.697c25.228,30.271,65.325,53.374,100.431,70.175
		C1378.021,1173.723,1381.128,1168.59,1377.556,1166.307z"/>
	<path style="fill:#9F3F16;" d="M1101.722,1118.697c-9.154-19.108-16.799-38.797-27.23-57.262c-1.998-3.537-6.996-1.048-6.275,2.645
		c3.961,20.366,11.864,39.152,20.244,58.041c7.108,16.029,13.52,35.527,27.708,46.426c1.983,1.52,5.209-0.531,5.033-2.889
		C1119.953,1148.88,1108.888,1133.65,1101.722,1118.697z"/>
	<path style="fill:#9F3F16;" d="M1152.148,1129.903c4.215,3.148,8.536-3.406,5.364-6.953
		c-20.906-23.396-42.139-49.188-66.109-69.466c-2.88-2.441-7.016,0.565-5.248,4.054
		C1100.582,1086.02,1126.847,1111.018,1152.148,1129.903z"/>
	<path style="fill:#F08009;" d="M1019.958,1777.161c-24.38-17.7-41.266-47.6-40.078-76.862c-32.419,6.217-64.692,14.022-94.07,27.44
		c2.197,38.694,17.7,77.154,42.538,107.225c6.709,8.097,13.998,15.615,21.774,22.587c5.408-11.771,12.205-22.875,20.331-32.994
		C983.666,1807.724,1001.016,1790.691,1019.958,1777.161z"/>
	<path style="fill:#F08009;" d="M1196.152,1751.281c-1.042,1.155-2.085,2.285-3.152,3.411
		c-25.423,26.835-62.377,42.65-98.986,43.868c-5.204,11.162-9.164,20.702-11.567,26.226c-12.287,28.166-21.193,57.837-26.519,88.112
		c10.411,2.801,20.964,5.003,31.552,6.65c46.874,7.318,96.555,3.931,139.961-14.402c-16.979-40.311-26.952-83.542-28.979-127.205
		C1198.058,1769.234,1197.712,1759.982,1196.152,1751.281z"/>
	<path style="fill:#F08009;" d="M1389.551,1690.292c-42.626-31.084-97.686-47.162-151.469-48.234
		c-1.072,23.801-6.304,47.308-15.907,68.707c14.806,15.562,30.304,29.583,35.512,36.551c21.428,28.657,39.674,59.688,54.163,92.394
		c3.226-3.892,6.339-7.867,9.382-11.889c2.654-3.51,5.258-7.055,7.792-10.64C1356.236,1778.603,1376.45,1735.519,1389.551,1690.292z
		"/>
	<path style="fill:#F08009;" d="M840.528,580.939c15.961-29.004,28.974-61.301,26.051-94.295
		c-2.08-23.571-12.2-45.866-14.139-69.461c-2.719-33.281,12.205-67.493,38.373-88.253c12.867-10.207,28.078-17.238,40.774-27.708
		c17.116-14.081,24.205-34.09,17.087-49.939c-38.461,32.331-85.477,67.147-109.189,110.67
		c-28.687,52.657-13.622,117.549-22.933,176.769c-15.844,101.096-103.435,178.392-199.005,215.001
		c-16.399,6.275-19.985,15.469-16.887,25.155c28.74-4.887,56.326-17.783,81.486-33.023
		C748.08,705.923,803.281,648.432,840.528,580.939z"/>
	<path style="fill:#F08009;" d="M1136.801,557.864c0.818-38.431-14.212-73.783-38.592-102.908
		c-9.403-11.23-25.549,4.965-16.102,16.102c21.53,25.384,34.032,57.408,32.969,90.957c-0.448,14.163-3.045,28.531-7.503,41.973
		c-4.712,14.197-13.968,26.412-17.276,40.848c-0.77,3.372,2.665,5.978,5.71,4.39
		C1124.884,634.162,1136.162,587.833,1136.801,557.864z"/>
	<path style="fill:#F4C376;" d="M1164.835,1461.064c-12.463-55.405-53.008-99.936-95.225-137.934
		c-42.222-37.969-88.487-73.189-118.879-121.165c-33.861-53.408-45.052-120.672-30.334-182.148
		c7.893-32.906,39.269-85.101,46.154-128.453c-3.954,7.1-8.006,14.147-12.085,21.167c-0.664,1.142-1.324,2.28-1.99,3.421
		c-3.741,6.415-7.499,12.816-11.23,19.198c-27.298,46.757-53.958,95.771-60.205,149.559c-0.475,4.094-0.786,8.176-1.018,12.25
		c-0.066,1.153-0.106,2.305-0.152,3.457c-0.128,3.132-0.187,6.256-0.174,9.374c0.004,1.044-0.011,2.089,0.009,3.131
		c0.073,4.03,0.238,8.048,0.536,12.05c0.041,0.567,0.113,1.131,0.16,1.698c0.282,3.458,0.653,6.903,1.096,10.337
		c0.152,1.176,0.319,2.35,0.49,3.523c0.451,3.111,0.969,6.21,1.549,9.299c0.172,0.916,0.319,1.836,0.502,2.75
		c0.776,3.876,1.648,7.734,2.616,11.573c0.24,0.95,0.514,1.894,0.765,2.842c0.787,2.966,1.625,5.921,2.521,8.862
		c0.376,1.234,0.758,2.466,1.154,3.696c0.978,3.04,2.014,6.066,3.106,9.078c0.291,0.802,0.555,1.61,0.854,2.41
		c1.367,3.659,2.827,7.291,4.354,10.903c0.503,1.192,1.038,2.374,1.559,3.561c1.133,2.58,2.301,5.148,3.513,7.702
		c0.607,1.279,1.211,2.558,1.836,3.83c1.501,3.049,3.052,6.08,4.659,9.089c0.482,0.903,0.963,1.807,1.455,2.706
		c1.691,3.094,3.442,6.163,5.241,9.211c0.771,1.307,1.564,2.604,2.354,3.901c1.398,2.297,2.827,4.58,4.285,6.85
		c0.806,1.257,1.605,2.519,2.43,3.768c2.138,3.238,4.32,6.453,6.571,9.631c0.672,0.948,1.375,1.878,2.056,2.821
		c1.737,2.402,3.496,4.79,5.292,7.156c0.975,1.284,1.965,2.56,2.957,3.833c1.687,2.163,3.399,4.306,5.134,6.435
		c0.648,0.795,1.289,1.594,1.943,2.385c0.27,0.328,0.532,0.662,0.805,0.989c2.355,2.829,4.745,5.634,7.181,8.402
		c1.02,1.158,2.069,2.291,3.101,3.438c1.611,1.79,3.225,3.576,4.867,5.339c1.198,1.285,2.413,2.556,3.626,3.827
		c1.584,1.659,3.18,3.304,4.79,4.938c1.162,1.178,2.323,2.355,3.498,3.519c2.003,1.988,4.032,3.947,6.073,5.894
		c0.784,0.75,1.559,1.513,2.348,2.256c2.859,2.687,5.751,5.329,8.671,7.935c0.74,0.66,1.491,1.304,2.235,1.958
		c2.299,2.026,4.614,4.029,6.949,6.003c0.9,0.762,1.804,1.517,2.71,2.271c2.309,1.923,4.633,3.818,6.971,5.688
		c0.805,0.644,1.605,1.295,2.413,1.932c3.119,2.463,6.256,4.893,9.418,7.26c4.291,3.209,8.63,6.354,12.992,9.466
		c1.408,1.004,2.832,1.99,4.245,2.986c2.932,2.066,5.862,4.132,8.811,6.173c2.283,1.58,4.573,3.15,6.861,4.72
		c2.495,1.711,4.987,3.427,7.484,5.133c3.18,2.173,6.359,4.346,9.536,6.524c3.199,2.192,6.388,4.396,9.572,6.606
		c1.036,0.72,2.075,1.441,3.111,2.164c2.743,1.917,5.469,3.857,8.193,5.8c1.342,0.958,2.689,1.911,4.026,2.877
		c2.729,1.974,5.433,3.983,8.134,5.998c1.178,0.879,2.369,1.743,3.541,2.631c3.833,2.906,7.633,5.855,11.381,8.874
		c14.66,11.8,28.624,24.697,41.408,38.602C1165.41,1463.695,1165.122,1462.365,1164.835,1461.064z"/>
	<path style="fill:#273654;" d="M961.225,576.603c20.765,0,37.593-16.829,37.593-37.593c0-20.76-16.828-37.593-37.593-37.593
		c-20.76,0-37.588,16.833-37.588,37.593C923.637,559.774,940.465,576.603,961.225,576.603z"/>
	<path style="fill:#F08009;" d="M989.858,460.432c5.16-0.594,10.495-1.422,14.802-4.317c4.307-2.899,7.269-8.438,5.608-13.36
		c-0.994-2.943-3.411-5.159-5.847-7.084c-15.187-11.98-35.172-17.686-54.392-15.527c-19.215,2.163-37.437,12.166-49.583,27.216
		c-7.221,8.955-20.853,41.028,0.36,43.825c11.576,1.525,31.83-21.447,44.945-24.916
		C960.109,462.474,975.106,462.123,989.858,460.432z"/>
	<path style="fill:#273654;" d="M685.328,805.513c-5.924-1.301-11.703-3.099-17.174-5.744c-9.34-4.507-16.589-12.892-26.061-16.468
		c-3.591-1.354-7.82,2.85-6.451,6.446c4.083,10.714,17.34,17.778,27.464,21.998c8.555,3.567,24.935,10.626,32.804,3.177
		c1.422-1.344,1.096-3.342,0-4.731C692.88,806.361,690.054,806.551,685.328,805.513z"/>
	<path style="fill:#F3A64B;" d="M1222.886,598.079c0.4,14.83-11.659,26.972-24.107,35.045c-16.882,10.942-36.204,18.1-56.141,20.789
		c-4.658,0.628-9.549,1.086-13.466,3.673c-3.922,2.587-6.354,8.151-3.83,12.112c1.355,2.134,3.786,3.318,6.154,4.215
		c45.12,17.086,111.776-37.944,146.416-60.224c6.305-4.054,13.462-11.211,9.832-17.769c-2.148-3.888-7.054-5.047-11.289-6.392
		c-11.386-3.615-21.412-11.342-27.814-21.427c-12.609-19.873-10.188-45.384-7.323-68.74c1.457-11.854,2.909-23.708,4.365-35.562
		c-7.323-3.873-15.035,4.293-19.25,11.42c-15.791,26.694-30.762,59.021-18.587,87.547
		C1212.918,574.644,1222.535,585.168,1222.886,598.079z"/>
	<path style="fill:#F3A64B;" d="M944.762,359.2c7.435,1.881,14.236,5.783,21.666,7.679c13.998,3.571,29.73-0.75,39.947-10.962
		c7.708-7.708,13.203-18.933,23.742-21.71c16.575-4.365,30.611,15.352,47.747,15.81c11.298,0.307,20.896-7.786,29.057-15.61
		c10.046-9.642,20.536-21.72,18.787-35.532c-0.229-1.813-0.731-3.698-2.031-4.975c-1.413-1.393-3.518-1.812-5.5-1.88
		c-15.338-0.546-27.878,15.488-43.157,14.022c-9.642-0.925-17.033-8.541-25.169-13.798c-14.958-9.661-38.256-9.851-47.615,5.291
		c-6.636,10.733-4.57,26.09-13.705,34.791c-10.499,10.003-27.366,4.38-41.768,2.626c-17.252-2.1-35.016,3.332-48.872,13.637
		c-8.093,6.017-32.755,30.841-24.892,43.157c7.25,11.362,20.297-8.853,26.46-14.792C912.124,364.754,925.917,354.435,944.762,359.2z
		"/>
</g>
</svg>
