<?xml version="1.0" standalone="no"?><!DOCTYPE svg PUBLIC "-//W3C//DTD SVG 1.1//EN" "http://www.w3.org/Graphics/SVG/1.1/DTD/svg11.dtd"><svg t="1779965036122" class="icon" viewBox="0 0 1024 1024" version="1.1" xmlns="http://www.w3.org/2000/svg" p-id="18517" xmlns:xlink="http://www.w3.org/1999/xlink" width="200" height="200"><path d="M237.144 999.264a24 24 0 0 1-24-24c0-37.152 23.696-56.124 41-69.98 16.692-13.368 23-19.632 23-32.516s-6.308-19.148-23-32.516c-17.304-13.856-41-32.828-41-69.98 0-37.148 23.696-56.124 41-69.976 16.692-13.368 23-19.628 23-32.508 0-12.876-6.308-19.14-23-32.504-17.304-13.852-41-32.824-41-69.976 0-37.148 23.696-56.12 41-69.972 16.692-13.364 23-19.628 23-32.504a24 24 0 0 1 48 0c0 37.148-23.696 56.12-41 69.972-16.692 13.364-23 19.628-23 32.504 0 12.88 6.308 19.14 23 32.508 17.304 13.852 41 32.824 41 69.972s-23.696 56.124-41 69.976c-16.692 13.368-23 19.628-23 32.508s6.308 19.144 23 32.512c17.304 13.856 41 32.832 41 69.984s-23.696 56.128-41 69.984c-16.692 13.368-23 19.632-23 32.512a24 24 0 0 1-24 24zM386.592 928.308a24 24 0 0 1-24-24c0-37.152 23.696-56.124 41-69.98 16.692-13.368 23-19.632 23-32.516s-6.308-19.148-23-32.516c-17.304-13.856-41-32.828-41-69.98 0-37.148 23.696-56.124 41-69.976 16.692-13.368 23-19.628 23-32.508 0-12.876-6.308-19.14-23-32.504-17.304-13.852-41-32.824-41-69.972 0-37.152 23.696-56.124 41-69.976 16.692-13.364 23-19.628 23-32.504a24 24 0 0 1 48 0c0 37.148-23.696 56.12-41 69.972-16.692 13.368-23 19.628-23 32.508 0 12.876 6.308 19.14 23 32.504 17.304 13.852 41 32.824 41 69.972s-23.696 56.124-41 69.976c-16.692 13.368-23 19.628-23 32.508s6.308 19.144 23 32.512c17.304 13.856 41 32.832 41 69.984s-23.696 56.128-41 69.984c-16.692 13.368-23 19.632-23 32.512a24 24 0 0 1-24 24zM558.46 999.264a24 24 0 0 1-24-24c0-37.152 23.696-56.124 41-69.98 16.692-13.368 23-19.632 23-32.516s-6.308-19.148-23-32.516c-17.304-13.856-41-32.828-41-69.98 0-37.148 23.696-56.124 41-69.976 16.692-13.368 23-19.628 23-32.508 0-12.876-6.308-19.14-23-32.504-17.304-13.852-41-32.824-41-69.976 0-37.148 23.696-56.12 41-69.972 16.692-13.364 23-19.628 23-32.504a24 24 0 0 1 48 0c0 37.148-23.696 56.12-41 69.972-16.692 13.364-23 19.628-23 32.504 0 12.88 6.308 19.14 23 32.508 17.304 13.852 41 32.824 41 69.972s-23.696 56.124-41 69.976c-16.692 13.368-23 19.628-23 32.508s6.308 19.144 23 32.512c17.304 13.856 41 32.832 41 69.984s-23.696 56.128-41 69.984c-16.692 13.368-23 19.632-23 32.512a24 24 0 0 1-24 24zM722.856 928.308a24 24 0 0 1-24-24c0-37.152 23.696-56.124 41-69.98 16.692-13.368 23-19.632 23-32.516s-6.308-19.148-23-32.516c-17.304-13.856-41-32.828-41-69.98 0-37.148 23.696-56.124 41-69.976 16.692-13.368 23-19.628 23-32.508 0-12.876-6.308-19.14-23-32.504-17.304-13.852-41-32.824-41-69.972 0-37.152 23.696-56.124 41-69.976 16.692-13.364 23-19.628 23-32.504a24 24 0 0 1 48 0c0 37.148-23.696 56.12-41 69.972-16.692 13.368-23 19.628-23 32.508 0 12.876 6.308 19.14 23 32.504 17.304 13.852 41 32.824 41 69.972s-23.696 56.124-41 69.976c-16.692 13.368-23 19.628-23 32.508s6.308 19.144 23 32.512c17.304 13.856 41 32.832 41 69.984s-23.696 56.128-41 69.984c-16.692 13.368-23 19.632-23 32.512a24 24 0 0 1-24 24z" fill="#FFC34C" p-id="18518"></path><path d="M245.144 975.264c0-37.152 23.696-56.124 41-69.98 16.692-13.368 23-19.632 23-32.516s-6.308-19.148-23-32.516c-17.304-13.856-41-32.828-41-69.98 0-37.148 23.696-56.124 41-69.976 16.692-13.368 23-19.628 23-32.508 0-12.876-6.308-19.14-23-32.504-17.304-13.852-41-32.824-41-69.976 0-37.148 23.696-56.12 41-69.972 16.692-13.364 23-19.628 23-32.504a23.92 23.92 0 0 1 8-17.852 23.872 23.872 0 0 0-16-6.148 24 24 0 0 0-24 24c0 12.876-6.308 19.14-23 32.504-17.304 13.852-41 32.824-41 69.972 0 37.152 23.696 56.124 41 69.976 16.692 13.364 23 19.628 23 32.504 0 12.88-6.308 19.14-23 32.508-17.304 13.852-41 32.828-41 69.976 0 37.152 23.696 56.124 41 69.98 16.692 13.368 23 19.632 23 32.516s-6.308 19.148-23 32.516c-17.304 13.856-41 32.828-41 69.98a24 24 0 0 0 24 24 23.872 23.872 0 0 0 16-6.148 23.92 23.92 0 0 1-8-17.852zM394.592 904.308c0-37.152 23.696-56.124 41-69.98 16.692-13.368 23-19.632 23-32.516s-6.308-19.148-23-32.516c-17.304-13.856-41-32.828-41-69.98 0-37.148 23.696-56.124 41-69.976 16.692-13.368 23-19.628 23-32.508 0-12.876-6.308-19.14-23-32.504-17.304-13.852-41-32.824-41-69.972 0-37.152 23.696-56.124 41-69.976 16.692-13.364 23-19.628 23-32.504a23.92 23.92 0 0 1 8-17.852 23.872 23.872 0 0 0-16-6.148 24 24 0 0 0-24 24c0 12.876-6.308 19.14-23 32.504-17.304 13.852-41 32.824-41 69.976 0 37.148 23.696 56.12 41 69.972 16.692 13.364 23 19.628 23 32.504 0 12.88-6.308 19.14-23 32.508-17.304 13.852-41 32.828-41 69.976 0 37.152 23.696 56.124 41 69.98 16.692 13.368 23 19.632 23 32.516s-6.308 19.148-23 32.516c-17.304 13.856-41 32.828-41 69.98a24 24 0 0 0 24 24 23.872 23.872 0 0 0 16-6.148 23.924 23.924 0 0 1-8-17.852zM566.46 975.264c0-37.152 23.696-56.124 41-69.98 16.692-13.368 23-19.632 23-32.516s-6.308-19.148-23-32.516c-17.304-13.856-41-32.828-41-69.98 0-37.148 23.696-56.124 41-69.976 16.692-13.368 23-19.628 23-32.508 0-12.876-6.308-19.14-23-32.504-17.304-13.852-41-32.824-41-69.976 0-37.148 23.696-56.12 41-69.972 16.692-13.364 23-19.628 23-32.504a23.92 23.92 0 0 1 8-17.852 23.872 23.872 0 0 0-16-6.148 24 24 0 0 0-24 24c0 12.876-6.308 19.14-23 32.504-17.304 13.852-41 32.824-41 69.972 0 37.152 23.696 56.124 41 69.976 16.692 13.364 23 19.628 23 32.504 0 12.88-6.308 19.14-23 32.508-17.304 13.852-41 32.828-41 69.976 0 37.152 23.696 56.124 41 69.98 16.692 13.368 23 19.632 23 32.516s-6.308 19.148-23 32.516c-17.304 13.856-41 32.828-41 69.98a24 24 0 0 0 24 24 23.872 23.872 0 0 0 16-6.148 23.92 23.92 0 0 1-8-17.852zM730.856 904.308c0-37.152 23.696-56.124 41-69.98 16.692-13.368 23-19.632 23-32.516s-6.308-19.148-23-32.516c-17.304-13.856-41-32.828-41-69.98 0-37.148 23.696-56.124 41-69.976 16.692-13.368 23-19.628 23-32.508 0-12.876-6.308-19.14-23-32.504-17.304-13.852-41-32.824-41-69.972 0-37.152 23.696-56.124 41-69.976 16.692-13.364 23-19.628 23-32.504a23.92 23.92 0 0 1 8-17.852 23.872 23.872 0 0 0-16-6.148 24 24 0 0 0-24 24c0 12.876-6.308 19.14-23 32.504-17.304 13.852-41 32.824-41 69.976 0 37.148 23.696 56.12 41 69.972 16.692 13.364 23 19.628 23 32.504 0 12.88-6.308 19.14-23 32.508-17.304 13.852-41 32.828-41 69.976 0 37.152 23.696 56.124 41 69.98 16.692 13.368 23 19.632 23 32.516s-6.308 19.148-23 32.516c-17.304 13.856-41 32.828-41 69.98a24 24 0 0 0 24 24 23.872 23.872 0 0 0 16-6.148 23.924 23.924 0 0 1-8-17.852z" fill="#F9BB32" p-id="18519"></path><path d="M512 24.736c-205.452 0-372 145.796-372 325.648v53.288h0.708c6.764 56.788 61.604 101.064 128.268 101.064 42.036 0 79.36-17.608 102.9-44.852 9.24-10.692 27.98-10.692 37.22 0 23.54 27.248 60.868 44.852 102.9 44.852s79.36-17.608 102.9-44.852c9.24-10.692 27.98-10.692 37.22 0 23.54 27.248 60.868 44.852 102.9 44.852 66.664 0 121.504-44.276 128.268-101.064H884V350.384c0-179.848-166.548-325.648-372-325.648z" fill="#FFDF74" p-id="18520"></path><path d="M852 362.388a12 12 0 0 1-12-12c0-124.12-92.84-232.252-231.016-269.076a12 12 0 1 1 6.18-23.188c70.248 18.72 133.456 57.248 177.98 108.488C839.5 219.956 864 283.504 864 350.388a12 12 0 0 1-12 12z" fill="#FCE575" p-id="18521"></path><path d="M252.708 403.676H252V350.384C252 187.2 389.12 52.052 568 28.412a426.96 426.96 0 0 0-56-3.672c-205.448 0-372 145.796-372 325.648v53.288h0.708c6.764 56.788 61.604 101.064 128.268 101.064 20.068 0 39.04-4.052 55.976-11.212-39.304-16.628-67.516-50.176-72.244-89.852z" fill="#FFD551" p-id="18522"></path><path d="M309.756 404.06m-36 0a36 36 0 1 0 72 0 36 36 0 1 0-72 0Z" fill="#FFD551" p-id="18523"></path><path d="M512 104.256m-36 0a36 36 0 1 0 72 0 36 36 0 1 0-72 0Z" fill="#FFD551" p-id="18524"></path></svg>