<svg version="1.1" id="Capa_1" xmlns="http://www.w3.org/2000/svg" xmlns:xlink="http://www.w3.org/1999/xlink" x="0px" y="0px" viewBox="0 0 2122 2122" style="enable-background:new 0 0 2122 2122;" xml:space="preserve" transform="matrix(-1,0,0,1,0,0)">
<g>
	<path style="fill:#F5B467;" d="M1276.502,1139.641c-4.907,5.355-9.843,10.681-14.807,15.978c-1.352,1.443-2.699,2.89-4.055,4.328
		c-12.062,12.792-24.302,25.394-36.755,37.765c-1.624,1.613-3.259,3.211-4.89,4.815c-3.286,3.234-6.578,6.462-9.894,9.661
		c1.391,0.953,2.759,1.945,4.155,2.885c36.648-2.519,72.516,24.619,109.247,18.353c5.497-0.958,11.255-3.212,15.421-6.778
		c-27.703-3.938-55.174-13.432-74.733-28.886c-2.068-1.632,0.212-4.687,2.416-4.146c19.937,4.862,38.553,13.73,58.565,18.602
		c6.523,1.588,13.05,2.765,19.586,3.732c0.437-5.324-1.763-10.696-1.284-16.064c0.838-9.031,9.182-15.123,18.253-17.392
		c-10.592-1.961-21.015-4.834-29.737-10.428c-3.24-2.075-1.976-7.191,1.968-7.27c16.468-0.316,32.811,6.149,49.028,8.955
		c12.063,2.085,24.206,3.476,36.314,5.136c3.684-2.542,6.552-5.947,7.718-10.359c2.643-9.988-4.246-20.58-1.961-30.675
		c0.801-3.528,2.202-6.349,4.024-8.624c-8.859-2.865-18.097-4.926-27.096-6.855c-29.605-6.381-59.212-12.762-88.817-19.143
		c-9.62,10.938-19.323,21.791-29.124,32.541C1278.866,1137.068,1277.682,1138.352,1276.502,1139.641z"></path>
	<path style="fill:#F59E3A;" d="M1423.018,1168.531c-1.166,4.412-4.033,7.817-7.718,10.359c6.283,0.861,12.558,1.776,18.801,2.937
		c3.725,0.692,2.3,5.672-0.818,6.037c-18.08,2.114-35.815,0.643-53.764-2.027c-7.012-1.044-14.442-1.979-21.793-3.341
		c-9.071,2.269-17.416,8.361-18.253,17.392c-0.479,5.368,1.721,10.739,1.284,16.064c16.25,2.406,32.565,3.376,49.067,5.12
		c3.031,0.322,4.336,5.262,0.787,5.803c-16.942,2.592-36.37,2.522-55.688-0.224c-4.166,3.565-9.924,5.82-15.421,6.778
		c-36.731,6.266-72.599-20.872-109.247-18.353c35.41,23.99,72.574,44.536,114.65,55.079c39.501,9.91,84.436,9.832,117.547-13.958
		c33.094-23.732,46.129-76.706,18.219-106.383c-9.581-10.173-22.165-16.273-35.591-20.58c-1.822,2.276-3.223,5.096-4.024,8.624
		C1418.772,1147.952,1425.661,1158.543,1423.018,1168.531z"></path>
	<path style="fill:#E96F20;" d="M1390.611,1226.875c3.549-0.541,2.244-5.481-0.787-5.803c-16.502-1.744-32.817-2.715-49.067-5.12
		c-6.536-0.967-13.063-2.144-19.586-3.732c-20.012-4.872-38.629-13.739-58.565-18.602c-2.205-0.541-4.485,2.514-2.416,4.146
		c19.559,15.454,47.03,24.948,74.733,28.886C1354.241,1229.397,1373.67,1229.467,1390.611,1226.875z"></path>
	<path style="fill:#E96F20;" d="M1433.284,1187.864c3.118-0.365,4.543-5.345,0.818-6.037c-6.243-1.161-12.519-2.076-18.801-2.937
		c-12.108-1.66-24.251-3.051-36.314-5.136c-16.217-2.806-32.56-9.272-49.028-8.955c-3.944,0.078-5.208,5.194-1.968,7.27
		c8.722,5.594,19.145,8.466,29.737,10.428c7.35,1.361,14.781,2.297,21.793,3.341
		C1397.469,1188.507,1415.203,1189.978,1433.284,1187.864z"></path>
	<path style="fill:#F5B467;" d="M1870.26,552.374c-22.999-3.291-43.237,13.997-60.26,29.771
		c-33.742,31.169-68.658,61.016-104.67,89.54c1.096,0.68,2.195,1.398,3.291,2.08c26.797,17.158,55.278,39.004,68.616,66.328
		c34.771-29.277,66.042-61.977,97.262-95.721c1.978-2.141,5.646,0.685,4.036,3.116c-25.984,39.22-59.096,74.17-96.554,104.51
		c2.19,7.282,3.3,14.909,2.978,22.92c-1.286,31.057-23.605,56.514-39.378,83.298c-7.952,13.518-13.939,29.928-14.999,45.575
		c5.551-1.337,11.1-2.683,16.633-4.121c55.817-14.509,107.971-38.853,163.026-54.736c4.611-1.33,7.223,5.228,3.21,7.615
		c-48.336,28.772-109.028,44.397-163.057,58.656c-6.48,1.71-12.984,3.358-19.503,4.959c1.296,10.704,5.482,20.53,13.742,28.11
		c23.756,21.788,72.746,17.401,78.494,49.101c1.628,8.965-1.476,18.158-5.978,26.1c-4.347,7.647-9.843,14.239-16.107,20.058
		c31.709,13.284,61.816,29.392,88.76,47.475c5.557,3.727,0.653,12.346-5.279,9.033c-31.211-17.419-62.762-33.548-95.748-46.71
		c-19.966,13.688-44.87,21.981-68.391,29.156c-22.658,6.923-49.062,12.75-76.034,19.293c51.106,32.838,100.207,69.15,150.785,102.63
		c10.516,6.958,21.939,14.032,34.535,13.618c11.577-0.38,21.903-7.074,31.021-14.226c63.966-49.969,98.541-129.52,114.317-209.15
		c26.175-132.475,5.71-273.688-56.97-393.261C1907.446,577.226,1892.769,555.589,1870.26,552.374z"></path>
	<path style="fill:#F59E3A;" d="M1788.775,1049.329c-12.305-4.91-24.793-9.439-37.56-13.421
		c-44.524-13.891-90.175-20.307-136.022-27.942c-3.693-0.614-2.58-6.17,0.85-6.268c60.978-1.743,125.827,13.045,184.999,37.833
		c6.264-5.819,11.76-12.411,16.107-20.058c4.502-7.942,7.605-17.135,5.978-26.1c-5.749-31.7-54.738-27.313-78.494-49.101
		c-8.26-7.58-12.446-17.406-13.742-28.11c-49.659,12.202-100.385,21.063-151.449,23.533c-4.261,0.205-5.259-6.811-1.013-7.489
		c51.026-8.145,101.923-16.325,152.153-28.417c1.06-15.648,7.047-32.057,14.999-45.575c15.773-26.785,38.092-52.241,39.378-83.298
		c0.322-8.011-0.788-15.638-2.978-22.92c-63.989,51.83-140.693,90.179-216.418,113.178c-6.361,1.932-9.038-7.971-2.733-9.917
		c60.948-18.819,118.806-46.158,171.454-82.248c15.038-10.309,29.241-21.372,42.953-32.917
		c-13.338-27.324-41.82-49.17-68.616-66.328c-1.097-0.682-2.195-1.401-3.291-2.08c-10.37,8.192-20.858,16.237-31.405,24.201
		c-3.8,2.869-7.635,5.692-11.457,8.531c-6.923,5.141-13.877,10.24-20.874,15.283c-4.335,3.124-8.676,6.242-13.039,9.328
		c-7.053,4.99-14.158,9.906-21.282,14.794c-3.984,2.732-7.939,5.505-11.944,8.205c-10.315,6.955-20.701,13.802-31.158,20.541
		c-4.811,3.1-9.674,6.12-14.514,9.174c-6.222,3.925-12.447,7.838-18.715,11.686c-5.732,3.519-11.489,6.997-17.261,10.451
		c-5.244,3.138-10.506,6.239-15.783,9.323c-6.432,3.76-12.861,7.526-19.34,11.206c-0.497,0.282-0.987,0.577-1.484,0.859
		c2.346,5.296,4.086,10.894,5.069,16.57c2.461,13.919,1.135,28.258,2.951,42.292c2.46,19.252,11.159,37.827,25.081,51.333
		c5.674,5.522,12.219,10.251,16.531,16.909c7.944,12.256,6.392,28.826-0.378,41.761c-5.902,11.235-15.133,20.202-24.931,28.373
		c1.205,0.466,2.395,0.973,3.596,1.448c1.513,0.599,3.021,1.211,4.527,1.824c3.648,1.482,7.279,2.998,10.894,4.553
		c1.333,0.573,2.668,1.142,3.995,1.725c4.047,1.775,8.069,3.59,12.07,5.441c0.85,0.394,1.709,0.776,2.558,1.172
		c4.941,2.311,9.856,4.658,14.716,7.061c31.32,15.435,61.281,33.177,90.596,52.052c26.972-6.544,53.377-12.37,76.034-19.293
		C1743.906,1071.311,1768.809,1063.017,1788.775,1049.329z"></path>
	<path style="fill:#E96F20;" d="M1562.83,855.258c-6.305,1.946-3.628,11.849,2.733,9.917c75.725-23,152.429-61.348,216.418-113.178
		c37.458-30.34,70.57-65.289,96.554-104.51c1.61-2.431-2.058-5.257-4.036-3.116c-31.219,33.744-62.491,66.444-97.262,95.721
		c-13.711,11.545-27.915,22.608-42.953,32.917C1681.637,809.099,1623.778,836.439,1562.83,855.258z"></path>
	<path style="fill:#E96F20;" d="M1579.442,939.696c51.064-2.47,101.79-11.331,151.449-23.533c6.519-1.602,13.023-3.249,19.503-4.959
		c54.029-14.258,114.721-29.883,163.057-58.656c4.012-2.387,1.401-8.945-3.21-7.615c-55.055,15.883-107.208,40.227-163.026,54.736
		c-5.533,1.438-11.083,2.784-16.633,4.121c-50.23,12.092-101.127,20.272-152.153,28.417
		C1574.182,932.885,1575.181,939.901,1579.442,939.696z"></path>
	<path style="fill:#E96F20;" d="M1616.043,1001.699c-3.43,0.097-4.543,5.654-0.85,6.268c45.847,7.635,91.498,14.051,136.022,27.942
		c12.767,3.983,25.255,8.511,37.56,13.421c32.985,13.161,64.537,29.291,95.748,46.71c5.932,3.313,10.836-5.306,5.279-9.033
		c-26.944-18.083-57.051-34.19-88.76-47.475C1741.87,1014.744,1677.021,999.955,1616.043,1001.699z"></path>
	<path style="fill:#E96F20;" d="M1398.455,998.308c9.472,0.52,18.543,0.967,26.227,2.291c5.196,0.894,10.365,1.95,15.519,3.089
		c0.682,0.151,1.366,0.292,2.048,0.447c4.969,1.13,9.914,2.373,14.838,3.71c0.745,0.203,1.491,0.41,2.235,0.617
		c5.006,1.391,9.991,2.864,14.947,4.446c0.321,0.102,0.641,0.213,0.962,0.316c5.071,1.632,10.115,3.353,15.129,5.163
		c0.212,0.076,0.424,0.148,0.636,0.224c3.48,1.261,6.95,2.553,10.402,3.891c9.798-8.171,19.028-17.138,24.931-28.373
		c6.77-12.935,8.322-29.506,0.378-41.761c-4.312-6.658-10.858-11.386-16.531-16.909c-13.922-13.505-22.621-32.08-25.081-51.333
		c-1.815-14.034-0.49-28.373-2.951-42.292c-0.984-5.676-2.724-11.274-5.069-16.57c-3.191,1.822-6.433,3.545-9.637,5.343
		c-7.779,4.368-15.558,8.737-23.403,12.976c-9.723,5.252-19.518,10.363-29.338,15.431c-0.001-0.002-0.004-0.005-0.005-0.007
		c-23.604-28.852-57.128-54.257-77.656-73.198c-2.838-2.611-5.713-5.221-8.548-7.793c-9.876,10.024-18.877,22.66-21.715,34.689
		c-6.09,25.798,11.537,51.447,11.651,77.964c0.037,16.153-6.392,31.51-10.478,47.135c-7.756,29.467-7.074,61.091,1.89,90.219
		c5.106,16.607,13.165,32.796,26.027,44.448c12.563-14.623,25.012-29.349,37.411-44.109c0.07-0.084,0.142-0.169,0.213-0.254
		L1398.455,998.308z"></path>
	<path style="fill:#F5B467;" d="M436.755,1382.666c6.837,14.461,15.893,28.372,21.531,39.829c2.801,5.715,5.676,11.425,8.626,17.062
		c33.44,15.206,52.09,56.137,87.383,68.092c5.252,1.758,11.335,2.509,16.667,1.391c-22.649-16.737-42.547-38.336-51.905-61.016
		c-1.025-2.485,2.495-3.898,4.149-2.417c15.617,13.963,27.937,31.065,43.659,45.091c4.663,4.158,9.489,8.019,14.413,11.716
		c2.935-4.483,3.549-10.272,6.532-14.776c5.025-7.538,15.245-8.932,24.295-6.629c-8.492-6.752-16.481-14.266-21.206-23.364
		c-1.854-3.571,1.835-7.05,5.337-5.335c15.382,7.523,27.662,22.563,41.218,33.032c8.859,6.842,17.992,13.28,27.007,19.882
		c4.464-0.478,8.62-2.109,11.753-5.446c7.074-7.527,6.051-20.127,12.862-27.917c2.383-2.724,4.955-4.541,7.64-5.676
		c-6.431-6.733-13.579-12.935-20.577-18.913l-9.207-7.879c-56.8-3.005-113.351-13.559-167.867-31.877
		C477.852,1400.377,457.065,1392.037,436.755,1382.666z"></path>
	<path style="fill:#F5B467;" d="M1188.738,574.51c-2.129-7.106-1.564-14.992-4.714-21.735c-8.911-19.004-37.184-14.658-56.063-5.43
		c-18.916,9.184-43.374,19.613-58.748,5.303c-11.038-10.232-10.278-27.408-13.501-42.095c-1.077-4.888-2.784-9.557-4.967-13.987
		c-20.107,9.856-39.7,20.77-58.682,32.672c-15.273,9.587-30.099,19.887-44.532,30.715c11.281,2.452,22.508,5.14,33.616,8.269
		c56.854,15.961,111.389,40.507,162.552,70.461c15.794-13.74,31.778-27.388,48.518-39.737c3.22-2.404,6.516-4.84,9.61-7.523
		C1195.657,587.406,1190.894,581.733,1188.738,574.51z"></path>
	<path style="fill:#F5B467;" d="M415.743,594.917c-0.712-1.359-1.362-2.75-2.055-4.12c-6.107,3.117-11.599,7.118-16.106,12.536
		c-13.503,16.134-13.462,39.954-24.831,57.647c-11.372,17.732-32.109,26.524-51.825,34.08c-1.376,3.028-2.718,6.095-3.988,9.209
		c-8.063,19.42-9.702,48.471,5.676,58.136c41.352-39.103,86.955-74.148,135.531-104.044
		C441.929,638.717,427.613,617.535,415.743,594.917z"></path>
	<path style="fill:#F5B467;" d="M734.817,435.321c-20.695,12.48-36.87,33.764-60.47,38.916
		c-24.005,5.263-47.691-7.817-72.056-11.962c-3.971,11.171-7.551,22.213-10.731,32.708c-10.443,34.211-17.062,69.636-19.771,105.339
		c58.721-24.191,119.974-40.827,181.963-48.378c9.593-44.078,25.778-86.669,48.245-125.576
		C779.497,420.64,754.754,423.318,734.817,435.321z"></path>
	<path style="fill:#F59E3A;" d="M602.291,462.275c-2.5-0.425-5.005-0.788-7.52-0.995c-30.882-2.5-62.419,16.024-75.238,44.26
		c-7.747,17.15-9.359,37.438-21.593,51.71c-19.873,23.156-57.834,20.064-84.252,33.547c0.693,1.369,1.342,2.76,2.055,4.12
		c11.87,22.618,26.186,43.8,42.403,63.444c36.392-22.397,74.45-41.893,113.643-58.039c2.709-35.703,9.327-71.129,19.771-105.339
		C594.739,484.488,598.32,473.446,602.291,462.275z"></path>
	<path style="fill:#F59E3A;" d="M1050.746,496.567c-14.398-29.214-50.801-47.253-82.567-38.132
		c-29.559,8.485-56.782,36.402-85.942,26.614c-17.837-6.024-28-24.19-41.432-37.337c-10.732-10.5-24.308-17.652-38.807-21.343
		c-22.467,38.907-38.652,81.499-48.245,125.576c21.781-2.653,43.648-4.226,65.53-4.564c24.134-0.378,48.268,0.718,72.326,3.33
		c18.829,2.042,37.47,5.232,55.924,9.244c14.433-10.828,29.259-21.128,44.532-30.715
		C1011.045,517.337,1030.639,506.423,1050.746,496.567z"></path>
	<path style="fill:#A394BE;" d="M778.162,1100.653c-60.26-32.76-89.651-107.961-80.385-175.9
		c9.306-67.939,51.712-127.934,104.519-171.664c-27.16-43.237-33.666-98.845-17.25-147.228c7.34-21.522,19.142-41.459,34.236-58.482
		c-21.882,0.338-43.749,1.911-65.53,4.564c-61.989,7.551-123.242,24.187-181.963,48.378
		c-39.193,16.146-77.251,35.642-113.643,58.039c-48.576,29.896-94.179,64.941-135.531,104.044
		c-30.778,29.103-59.212,60.44-84.753,93.576c-8.246,10.706-16.229,21.6-23.832,32.685c24.852,0.794,47.549,17.893,59.768,39.681
		c12.673,22.585,15.698,49.366,14.753,75.203c-0.115,3.406-0.302,6.923,1.06,10.063c1.815,4.273,6.014,6.921,9.873,9.569
		c48.419,33.439,63.286,102.402,45.318,158.426c-9.04,28.18-34.197,70.548-64.799,98.879c21.184,18.651,43.54,35.903,66.918,51.673
		c28.536,19.186,58.607,36.094,89.833,50.505c20.309,9.372,41.097,17.711,62.31,24.852c54.516,18.319,111.067,28.872,167.867,31.877
		c34.912,1.847,69.921,0.854,104.61-2.976C705.153,1337.837,705.986,1196.132,778.162,1100.653z"></path>
	<path style="fill:#B4A5D1;" d="M1146.229,1081.097c-36.541-27.878-59.578-72.743-60.904-118.704
		c-1.362-45.961,19.028-92.073,53.907-122.034c0.87-0.719-5.525-58.899-4.54-66.426c3.291-24.741,12.18-48.533,25.042-69.907
		c7.186-11.915,16.416-25.608,27.274-38.28c-5.257-3.52-10.592-6.999-15.927-10.402c-8.999-5.74-18.155-11.258-27.382-16.66
		c-51.163-29.953-105.698-54.499-162.552-70.461c-11.109-3.129-22.335-5.817-33.616-8.269c-18.453-4.012-37.095-7.202-55.924-9.244
		c-24.058-2.612-48.192-3.708-72.326-3.33c-15.094,17.023-26.896,36.96-34.236,58.482c-16.417,48.383-9.91,103.99,17.25,147.228
		c-52.806,43.729-95.213,103.724-104.519,171.664c-9.267,67.939,20.124,143.14,80.385,175.9
		c-72.175,95.479-73.008,237.184-6.619,335.766c10.897-1.191,21.761-2.667,32.585-4.412c-2.005-14.319-3.904-28.656-5.576-43.028
		c-5.637-48.458-35.861-145.408,12.672-180.097c1.06-0.76,2.156-1.515,3.291-2.193c41.345-25.349,93.815,0.526,136.144,24.283
		c47.887,26.887,97.203,51.258,147.617,73.083c27.528-20.335,53.822-42.066,79.086-64.952
		C1140.329,1196.926,1126.558,1134.056,1146.229,1081.097z"></path>
	<path style="fill:#F5B467;" d="M814.515,1206.689c-1.135,0.677-2.232,1.432-3.291,2.193c1.437,23.79,1.854,45.925,4.502,60.297
		c2.457,13.25,5.917,26.312,10.114,39.144c-0.114-4.902-0.114-9.792,0.112-14.657c0.19-4.112,6.022-5.008,7.199-0.974
		c7.28,24.984,12.866,50.171,19.254,75.164c27.949,48.387,68.659,89.377,118.266,115.316c10.1,5.296,23.832,9.496,31.774,1.325
		c6.777-6.952,4.429-17.253,1.296-27.13c-22.848-17.426-43.7-38.903-62.083-59.111c-27.065-29.754-47.861-61.16-63.204-98.266
		c-0.621-1.501,1.766-2.875,2.767-1.608c24.241,30.66,48.989,61.881,75.603,90.509c13.319,14.325,27.776,26.908,42.5,39.153
		c2.66-21.541,17.958-41.744,39.021-39.859c17.364,1.515,29.885,16.419,44.221,26.329c23.189,16,54.663,19.181,80.572,8.097
		c8.437-3.596,16.495-8.852,21.299-16.643c12.407-20.166-1.74-45.057-4.124-68.999c-27.644-10.196-54.991-21.206-82.036-32.914
		c-50.414-21.825-99.731-46.196-147.617-73.083C908.329,1207.216,855.859,1181.34,814.515,1206.689z"></path>
	<path style="fill:#F59E3A;" d="M1184.436,1405.968c-4.804,7.79-12.862,13.047-21.299,16.643
		c-25.909,11.084-57.383,7.903-80.572-8.097c-14.336-9.91-26.858-24.814-44.221-26.329c-21.062-1.884-36.36,18.319-39.021,39.859
		c15.553,12.935,31.403,25.49,46.55,39.283c6.365,5.798-1.776,14.845-8.738,11.328c-11.541-5.834-22.685-13.12-33.396-21.288
		c3.133,9.877,5.481,20.178-1.296,27.13c-7.942,8.171-21.674,3.971-31.774-1.325c-49.606-25.938-90.316-66.929-118.266-115.316
		c5.418,21.197,11.404,42.257,19.583,62.916c9.586,24.204,20.885,47.736,33.725,70.382c10.719,18.904,24.136,36.38,32.572,56.448
		c2.865,6.812-6.918,10.797-11.459,6.67c-33.751-30.67-54.027-83.089-70.015-124.95c-15.593-40.818-29.934-86.507-30.972-130.999
		c-4.197-12.833-7.658-25.894-10.114-39.144c-2.648-14.372-3.065-36.507-4.502-60.297c-48.533,34.689-18.309,131.639-12.672,180.097
		c1.672,14.371,3.571,28.708,5.576,43.028c10.463,74.745,25.44,148.75,45.569,221.542c0.877,3.159,1.794,6.361,2.777,9.563
		c0.007,0.021,0.013,0.041,0.019,0.062c0.96,3.122,1.989,6.241,3.101,9.324c0.052,0.147,0.106,0.291,0.158,0.437
		c1.088,2.986,2.264,5.932,3.543,8.808c0.079,0.178,0.155,0.356,0.236,0.533c1.314,2.918,2.74,5.76,4.305,8.486
		c0.029,0.051,0.052,0.109,0.082,0.161c10.706-5.934,22.584-9.871,34.726-11.381c14.073-1.745,28.714-0.38,42.065-5.145
		c13.355-4.731,25.118-18.802,20.731-32.268c-2.687-8.097-10.782-15.021-9.154-23.415c1.588-8.059,11.045-11.503,19.064-13.355
		c15.623-3.634,31.36-6.772,47.172-9.344c16-2.646,32.986-5.106,45.583-15.323c12.597-10.212,18.005-31.206,6.431-42.553
		c-5.676-5.564-14.451-8.137-17.856-15.284c-4.387-9.306,3.215-19.898,11.576-25.876c34.575-24.814,83.335-15.469,122.411-32.302
		c13.24-5.676,25.004-14.266,35.976-23.567c13.919-11.844,26.894-25.384,34.536-41.993c4.692-10.25,3.783-21.676,3.065-32.57
		c-3.715-2.086-7.669-3.906-11.677-5.557c-0.62-0.255-1.232-0.509-1.855-0.755c-1.529-0.606-3.062-1.183-4.594-1.739
		c-0.933-0.338-1.851-0.662-2.779-0.983c-1.576-0.545-3.156-1.093-4.704-1.595c-18.195-6.012-36.314-12.331-54.322-18.948
		C1182.697,1360.911,1196.843,1385.803,1184.436,1405.968z"></path>
	<path style="fill:#F59E3A;" d="M689.077,1471.863c-6.811,7.79-5.788,20.39-12.862,27.917c-3.133,3.337-7.289,4.968-11.753,5.446
		c5.14,3.765,10.252,7.569,15.227,11.568c2.346,1.885-0.19,6.246-2.991,5.135c-17.635-6.982-33.091-17.072-48.18-28.531
		c-5.193-3.944-10.905-8.01-16.412-12.388c-9.05-2.303-19.269-0.91-24.295,6.629c-2.983,4.504-3.597,10.293-6.532,14.776
		c13.172,9.891,27.095,18.519,40.839,27.85c2.631,1.783,1.043,6.568-2.275,5.403c-15.893-5.59-33.052-14.933-48.88-26.628
		c-5.332,1.118-11.415,0.366-16.667-1.391c-35.293-11.956-53.944-52.886-87.383-68.092c19.747,37.944,42.67,73.691,74.672,102.967
		c30.036,27.503,69.602,48.799,110.044,43.615c40.399-5.14,77.055-45.544,66.613-84.921c-3.593-13.505-11.764-24.853-21.525-35.031
		C694.032,1467.322,691.46,1469.14,689.077,1471.863z"></path>
	<path style="fill:#E96F20;" d="M1257.179,1399.118c-7.642,16.609-20.616,30.149-34.536,41.993
		c-10.972,9.301-22.735,17.891-35.976,23.567c-39.077,16.833-87.836,7.488-122.411,32.302c-8.361,5.978-15.963,16.57-11.576,25.876
		c3.405,7.147,12.18,9.72,17.856,15.284c11.573,11.347,6.165,32.341-6.431,42.553c-12.597,10.216-29.583,12.677-45.583,15.323
		c-15.812,2.572-31.549,5.71-47.172,9.344c-8.019,1.852-17.476,5.296-19.064,13.355c-1.627,8.395,6.467,15.318,9.154,23.415
		c4.387,13.466-7.376,27.537-20.731,32.268c-13.352,4.765-27.992,3.401-42.065,5.145c-12.141,1.51-24.02,5.447-34.726,11.381
		c0.014,0.026,0.034,0.049,0.048,0.075c1.164,2.019,2.429,3.954,3.755,5.833c0.242,0.342,0.479,0.687,0.725,1.023
		c1.292,1.76,2.672,3.438,4.132,5.039c0.319,0.351,0.647,0.692,0.976,1.034c1.51,1.574,3.097,3.072,4.799,4.454
		c0.285,0.232,0.591,0.445,0.882,0.672c1.849,1.435,3.777,2.787,5.866,3.965c19.141,10.855,43.201,6.884,64.005-0.302
		c69.947-24.175,124.19-78.987,175.752-132.059c44.675-46.002,89.349-92,134.024-137.997c13.24-13.618,27.576-30.529,23.983-49.179
		c-0.273-1.43-0.658-2.799-1.107-4.128c-0.157-0.467-0.362-0.907-0.54-1.362c-0.332-0.846-0.676-1.685-1.076-2.491
		c-0.246-0.497-0.521-0.975-0.793-1.457c-0.409-0.727-0.836-1.444-1.297-2.139c-0.312-0.467-0.634-0.927-0.968-1.38
		c-0.503-0.682-1.035-1.346-1.587-1.996c-0.346-0.407-0.686-0.817-1.05-1.212c-0.652-0.705-1.34-1.384-2.045-2.052
		c-0.312-0.294-0.605-0.601-0.925-0.888c-2.179-1.949-4.569-3.741-7.127-5.382c-0.023-0.015-0.047-0.028-0.071-0.043
		c-1.307-0.837-2.654-1.638-4.035-2.403C1260.962,1377.442,1261.871,1388.867,1257.179,1399.118z"></path>
	<path style="fill:#E96F20;" d="M372.751,660.98c11.369-17.693,11.328-41.513,24.831-57.647c4.507-5.418,9.999-9.419,16.106-12.536
		c26.417-13.482,64.379-10.391,84.252-33.547c12.234-14.273,13.846-34.56,21.593-51.71c12.819-28.236,44.356-46.76,75.238-44.26
		c2.515,0.207,5.02,0.57,7.52,0.995c24.365,4.145,48.051,17.225,72.056,11.962c23.601-5.152,39.776-26.436,60.47-38.916
		c19.938-12.004,44.68-14.682,67.18-8.954c14.499,3.691,28.075,10.843,38.807,21.343c13.432,13.148,23.596,31.313,41.432,37.337
		c29.16,9.788,56.383-18.129,85.942-26.614c31.766-9.121,68.169,8.918,82.567,38.132c2.183,4.43,3.891,9.099,4.967,13.987
		c3.223,14.687,2.463,31.863,13.501,42.095c15.374,14.309,39.832,3.881,58.748-5.303c18.879-9.228,47.152-13.574,56.063,5.43
		c3.15,6.743,2.584,14.628,4.714,21.735c2.156,7.223,6.918,12.896,13.089,16.913c5.642-4.843,10.516-10.402,12.967-17.32
		c6.821-19.094-7.671-38.947-22.736-52.507c-23.605-21.171-50.94-37.63-79.629-51.325c-11.796-5.627-23.861-10.787-35.993-15.647
		c-82.138-32.867-170.704-51.842-258.989-52.98c-59.225-0.74-118.343,6.544-175.335,23.06c-9.713,2.804-19.34,5.919-28.877,9.306
		c-79.228,27.985-152.278,74.95-209.225,136.141c-34.219,36.814-62.685,78.823-83.084,124.908
		C340.642,687.504,361.38,678.712,372.751,660.98z"></path>
	<path style="fill:#8274A5;" d="M1309.837,1028.025c-8.964-29.128-9.647-60.752-1.89-90.219
		c4.086-15.625,10.514-30.982,10.478-47.135c-0.114-26.517-17.741-52.166-11.651-77.964c2.838-12.029,11.839-24.665,21.715-34.689
		c-0.72-0.656-1.452-1.297-2.173-1.951c-4.051-3.673-8.121-7.325-12.209-10.958c-1.994-1.772-3.999-3.533-6.001-5.294
		c-3.612-3.177-7.233-6.34-10.875-9.482c-2.502-2.158-5.021-4.295-7.537-6.434c-3.265-2.776-6.533-5.548-9.824-8.293
		c-2.952-2.462-5.928-4.892-8.901-7.328c-2.95-2.416-5.895-4.837-8.867-7.226c-3.388-2.724-6.812-5.404-10.229-8.09
		c-2.651-2.083-5.291-4.182-7.96-6.242c-3.845-2.968-7.733-5.879-11.617-8.796c-2.321-1.743-4.625-3.511-6.961-5.234
		c-4.516-3.334-9.083-6.599-13.654-9.857c-1.772-1.263-3.521-2.558-5.302-3.81c-6.402-4.501-12.854-8.932-19.368-13.275
		c-10.858,12.672-20.088,26.365-27.274,38.28c-12.862,21.374-21.752,45.167-25.042,69.907c-0.984,7.527,5.411,65.708,4.54,66.426
		c-34.879,29.961-55.269,76.073-53.907,122.034c1.325,45.961,24.363,90.826,60.904,118.704
		c-19.671,52.96-5.9,115.829,31.133,158.007c6.436-5.83,12.788-11.752,19.1-17.718c1.76-1.663,3.504-3.341,5.255-5.014
		c4.791-4.579,9.552-9.193,14.278-13.844c1.631-1.604,3.266-3.202,4.89-4.815c12.452-12.372,24.693-24.973,36.755-37.765
		c1.356-1.439,2.703-2.886,4.055-4.328c4.962-5.298,9.899-10.623,14.807-15.978c1.18-1.289,2.364-2.573,3.542-3.865
		c12.394-13.597,24.632-27.356,36.744-41.242c0.198-0.227,0.395-0.454,0.591-0.68c6.19-7.099,12.35-14.228,18.484-21.381
		C1323.001,1060.821,1314.943,1044.631,1309.837,1028.025z"></path>
	
		<ellipse transform="matrix(0.0334 -0.9994 0.9994 0.0334 -530.3248 1351.5354)" style="fill:#273654;" cx="433.585" cy="949.947" rx="66.199" ry="66.2"></ellipse>
	<path style="fill:#8274A5;" d="M934.885,744.033c-4.633,8.455-7.508,17.778-12.066,26.278
		c-5.832,10.87-14.414,20.394-18.066,32.178c-9.92,32.012,23.442,65.135,53.783,48.509c28.943-15.859,70.887-33.096,82.104-67.347
		c6.387-19.503,2.365-42.607-11.876-57.384c-12.85-13.335-32.96-18.772-51.074-14.926
		C959.577,715.19,943.788,727.794,934.885,744.033z"></path>
	<path style="fill:#8274A5;" d="M962.985,677.882c2.309-12.402-3.496-25.93-14.076-32.799c-10.994-7.138-25.637-6.841-37.754-1.842
		c-12.117,4.996-22.07,14.117-30.792,23.902c-16.792,18.846-34.904,81.218,12.409,74.789
		C913.801,739.075,959.109,698.71,962.985,677.882z"></path>
	<path style="fill:#8274A5;" d="M1062.95,716.9c20.892,3.532,30.063-22.69,26.604-39.73c-2.931-14.438-14.534-26.755-28.767-30.543
		c-10.317-2.745-23.333,0.049-27.776,9.754c-1.659,3.628-1.907,7.732-1.834,11.718C1031.542,687.358,1041.403,713.255,1062.95,716.9
		z"></path>
	<path style="fill:#8274A5;" d="M995.832,1059.601c-5.05-7.742-11.846-14.197-19.072-19.961
		c-10.404-8.297-22.234-15.464-35.391-17.457c-13.157-1.995-27.834,2.073-35.825,12.716c-8.261,11.004-7.851,26.024-7.077,39.762
		c0.933,16.55,2.149,33.988,11.354,47.771c9.053,13.559,31.688,34.372,49.537,30.704c16.957-3.489,35.43-23.43,41.688-38.719
		C1008.278,1096.751,1006.266,1075.586,995.832,1059.601z"></path>
	<path style="fill:#8274A5;" d="M1092.517,1099.718c-5.257-5.992-13.179-10.061-21.097-9.135
		c-16.687,1.954-15.344,17.515-19.547,29.306c-4.931,13.832-18.319,24.112-28.212,34.295c-11.863,12.205-22.567,29.179-17.191,45.33
		c3.079,9.247,11.23,16.312,20.485,19.356c9.257,3.045,19.454,2.378,28.762-0.506c18.95-5.876,34.512-20.858,42.628-38.957
		c8.117-18.105,9.077-39.016,4.283-58.27C1100.702,1113.399,1097.774,1105.71,1092.517,1099.718z"></path>
	<path style="fill:#8274A5;" d="M869.053,1027.272c-4.989-13.515-22.465-20.762-35.554-14.743
		c-12.958,5.961-18.797,21.101-21.379,35.128c-1.289,7.006-2.083,14.2-1.018,21.24c1.199,7.937,4.712,15.357,8.953,22.163
		c8.514,13.666,38.255,35.839,45.456,9.564c2.772-10.12-0.105-21.545,0.804-31.869
		C867.518,1055.087,874.076,1040.887,869.053,1027.272z"></path>
	<path style="fill:#8274A5;" d="M1006.755,1032.79c10.952,9.104,24.631,13.978,35.559,2.936
		c10.034-10.139,13.208-26.285,7.992-39.535c-4.677-11.89-15.99-20.943-28.636-22.777c-7.854-1.138-16.307,0.524-22.468,5.527
		c-8.054,6.539-11.075,18.034-9.009,28.2C992.259,1017.309,998.777,1026.156,1006.755,1032.79z"></path>
	<path style="fill:#8274A5;" d="M407.901,854.751c16.828-4.314,34.592-3.961,51.725-1.094c8.556,1.432,17.14,3.491,25.795,2.884
		c8.653-0.606,17.662-4.448,21.857-12.041c3.956-7.16,2.779-16.407-1.547-23.347c-4.328-6.94-11.371-11.818-18.838-15.16
		c-23.688-10.599-51.294-6.977-76.231,0.212c-26.551,7.654-54.056,21.047-65.883,46.019c-6.329,13.369-2.117,35.6,16.775,29.656
		c7.106-2.236,13.386-10.95,19.471-15.094C389.188,861.228,398.34,857.204,407.901,854.751z"></path>
	<path style="fill:#F5B467;" d="M344.803,1181.608c17.968-56.024,3.101-124.987-45.318-158.426
		c-3.859-2.648-8.058-5.296-9.873-9.569c-1.362-3.14-1.174-6.657-1.06-10.063c0.945-25.837-2.081-52.618-14.753-75.203
		c-12.219-21.788-34.916-38.886-59.768-39.681c-24.702,35.746-46.037,73.349-63.476,112.16
		c-15.169,33.893-20.541,68.582-9.532,102.136c13.505,3.557,26.972,5.978,41.042,6.202c31.057,0.604,60.792-7.337,88.254-21.71
		c10.063-5.262,18.801,9.491,8.928,15.318c-28.56,16.833-60.979,25.574-94.153,25.837c-8.098,0.078-20.429,0.039-33.026-1.359
		l0.682,1.17c25.987,43.2,57.196,83.259,92.565,119.274c11.16,11.347,22.735,22.319,34.689,32.794
		C310.606,1252.156,335.763,1209.788,344.803,1181.608z"></path>
	<path style="fill:#B4A5D1;" d="M565.95,1328.945c-2.658-14.192-12.906-26.061-25.055-33.875
		c-12.027-7.732-27.272-12.093-40.762-7.352c-3.474,1.223-6.98,3.264-8.402,6.66c-1.006,2.402-0.819,5.111-0.617,7.703
		c1.045,13.355,2.159,26.992,7.469,39.289C514.593,1378.451,575.08,1377.695,565.95,1328.945z"></path>
	<path style="fill:#B4A5D1;" d="M417.814,1276.419c-6.385-0.799-13.493,1.783-16.597,7.42c-3.06,5.559-1.678,12.404-0.217,18.582
		c1.92,8.112,3.884,16.341,7.925,23.63c10.348,18.665,39.352,23.245,45.381-2.08
		C458.659,1305.686,435.302,1278.597,417.814,1276.419z"></path>
	<path style="fill:#B4A5D1;" d="M654.176,1375.235c-1.902-2.787-4.582-4.93-7.07-7.211c-5.086-4.658-9.491-10.036-14.721-14.529
		c-5.23-4.497-11.569-8.166-18.46-8.448c-6.892-0.288-14.261,3.6-16.337,10.178c-1.035,3.274-0.707,6.806-0.368,10.226
		c1.632,16.443,7.861,40.828,27.472,43.878C641.735,1411.98,666.581,1393.403,654.176,1375.235z"></path>
	<path style="fill:#B4A5D1;" d="M452.206,1207.703c-4.521-0.926-9.612,0.151-12.784,3.508c-3.985,4.209-4.104,10.655-3.985,16.453
		c0.097,4.848,0.197,9.691,0.295,14.538c0.307,15.079,16.453,31.006,31.629,20.843c16.312-10.918,8.044-37.51-3.323-48.521
		C460.722,1211.313,456.727,1208.624,452.206,1207.703z"></path>
	<path style="fill:#B4A5D1;" d="M560.347,650.352c-7.464,8.848-14.412,21.155-8.962,31.366c3.345,6.268,10.794,9.627,17.895,9.459
		c10.767-0.251,20.872-7.953,30.74-11.797c12.276-4.785,24.906-8.58,37.812-11.235c10.758-2.214,21.9-3.734,31.579-8.923
		c9.681-5.192,17.771-15.17,16.948-26.122c-1.026-13.659-15.001-22.782-28.385-25.698c-18.263-3.98-37.691-0.445-54.478,7.773
		C586.707,623.394,572.401,636.067,560.347,650.352z"></path>
	<path style="fill:#B4A5D1;" d="M719.277,716.656c5.493-5.747,7.118-15.771,1.649-21.54c-2.765-2.919-6.77-4.288-10.68-5.221
		c-18.219-4.351-39.41-1.388-55.781,7.598c-7.259,3.983-14.126,9.635-16.921,17.43c-2.794,7.795-0.134,17.929,7.401,21.364
		c4.702,2.141,10.243,1.372,15.104-0.378c4.86-1.749,9.357-4.414,14.236-6.112c7.508-2.609,15.598-2.83,23.466-3.961
		C705.623,724.707,713.782,722.4,719.277,716.656z"></path>
	<path style="fill:#B4A5D1;" d="M443.397,737.278c5.179-1.401,9.63-4.687,14.592-6.733c7.325-3.023,15.45-3.235,23.264-4.546
		c7.815-1.308,16.014-4.161,20.504-10.69c10.794-15.695-6.458-31.498-21.993-28.889c-17.369,2.914-35.7,17.803-46.285,31.123
		c-3.432,4.319-6.582,10.127-4.17,15.086C431.658,737.455,438.215,738.68,443.397,737.278z"></path>
	<path style="fill:#EF786D;" d="M646.975,950.57c-39.959-31.198-99.742-11.167-120.575,32.473
		c-21.627,45.296,3.033,112.212,59.157,110.272c42.326-1.461,83.352-38.777,86.794-81.296
		C674.215,989.004,665.175,964.782,646.975,950.57z"></path>
	<path style="fill:#273654;" d="M185.093,1128.609c33.174-0.263,65.593-9.003,94.153-25.837c9.873-5.827,1.135-20.58-8.928-15.318
		c-27.462,14.373-57.196,22.315-88.254,21.71c-14.071-0.224-27.537-2.646-41.042-6.202c2.687,8.171,6.317,16.268,11.045,24.288
		C164.664,1128.649,176.995,1128.687,185.093,1128.609z"></path>
	<path style="fill:#E96F20;" d="M856.812,1439.322c15.988,41.862,36.263,94.28,70.015,124.95c4.541,4.126,14.324,0.141,11.459-6.67
		c-8.436-20.068-21.854-37.544-32.572-56.448c-12.84-22.646-24.139-46.178-33.725-70.382c-8.18-20.659-14.165-41.719-19.583-62.916
		c-6.388-24.993-11.974-50.18-19.254-75.164c-1.177-4.034-7.009-3.138-7.199,0.974c-0.227,4.865-0.227,9.756-0.112,14.657
		C826.878,1352.816,841.218,1398.504,856.812,1439.322z"></path>
	<path style="fill:#E96F20;" d="M1045.874,1467.327c-15.147-13.793-30.997-26.349-46.55-39.283
		c-14.724-12.245-29.18-24.828-42.5-39.153c-26.614-28.628-51.362-59.849-75.603-90.509c-1.001-1.267-3.389,0.107-2.767,1.608
		c15.342,37.106,36.139,68.511,63.204,98.266c18.383,20.208,39.235,41.685,62.083,59.111c10.711,8.169,21.855,15.454,33.396,21.288
		C1044.098,1482.173,1052.239,1473.125,1045.874,1467.327z"></path>
	<path style="fill:#E96F20;" d="M928.056,1274.178c32.329,27.532,67.41,49.671,105.91,67.683
		c33.574,15.707,75.315,37.876,112.913,37.885c4.434,0,5.827-5.876,2.207-8.151c-14.913-9.364-32.748-13.685-49.215-19.839
		c-20.855-7.791-41.357-16.399-61.396-26.105c-36.083-17.477-71.262-37.204-105.978-57.228
		C929.004,1266.407,924.802,1271.411,928.056,1274.178z"></path>
	<path style="fill:#E96F20;" d="M622.118,1530.265c-13.744-9.331-27.667-17.959-40.839-27.85
		c-4.925-3.697-9.751-7.558-14.413-11.716c-15.722-14.027-28.041-31.128-43.659-45.091c-1.654-1.481-5.174-0.068-4.149,2.417
		c9.358,22.68,29.256,44.279,51.905,61.016c15.827,11.696,32.987,21.039,48.88,26.628
		C623.16,1536.833,624.749,1532.048,622.118,1530.265z"></path>
	<path style="fill:#E96F20;" d="M676.698,1521.929c2.801,1.11,5.337-3.25,2.991-5.135c-4.975-3.999-10.086-7.803-15.227-11.568
		c-9.015-6.603-18.149-13.04-27.007-19.882c-13.557-10.47-25.837-25.51-41.218-33.032c-3.503-1.715-7.191,1.764-5.337,5.335
		c4.725,9.098,12.714,16.611,21.206,23.364c5.507,4.378,11.219,8.444,16.412,12.388
		C643.606,1504.857,659.063,1514.947,676.698,1521.929z"></path>
</g>
</svg>