<svg version="1.1" xmlns="http://www.w3.org/2000/svg" xmlns:xlink="http://www.w3.org/1999/xlink" x="0px" y="0px" viewBox="0 0 2196 2050" style="enable-background:new 0 0 2196 2050;" xml:space="preserve" transform="matrix(-1,0,0,1,0,0)">
<g id="Capa_3">
</g>
<g id="Capa_4">
	<g>
		<path style="fill:#F8AB18;" d="M1653.077,465.669c-52.832,15.375-103.371,40.564-148.953,73.058
			c-46.393,33.15-87.614,73.768-120.652,119.238c-12.43,17.119-32.823,26.606-53.867,24.425
			c-36.095-3.707-72.08-26.169-103.1-47.869c-21.415-14.921-42.796-29.844-64.171-44.794c27.009,3.305,54.044,2.456,79.218-7.273
			c17.034-6.582,32.305-16.935,48.572-25.232c44.979-22.948,101.698-28.037,150.976-17.005
			c-77.139-132.128-220.74-208.102-373.561-200.782c-96.663,4.631-191.979,34.787-273.762,86.506
			c-33.029-0.624-66.451,1.507-100.109,5.271c-100.973,11.341-204.18,27.915-292.178,78.838
			c-23.622,13.688-45.835,29.677-67.5,46.376c-6.938-0.793-14.798-0.757-23.66,0.239c-33.912,3.817-67.222,19.3-88.543,45.962
			c-5.396,6.76-9.868,14.284-13.3,22.19c-5.51,12.485-8.507,26.061-8.562,39.581v0.165c0,9.326,1.439,18.584,4.447,27.423
			c-4.671,8.126-8.856,16.402-12.462,24.809c-12.43,0-23.661,4.414-35.711,5.778c-3.981,0.437-7.249,3.49-7.743,7.414
			c-5.067,40.237-0.596,81.239,10.796,120.33c4.306,14.777,9.606,29.278,15.761,43.385c0.049,0.113,0.096,0.225,0.145,0.338
			c0.793,1.813,1.603,3.62,2.424,5.42c0.052,0.113,0.104,0.227,0.155,0.339c0.211,0.461,0.423,0.922,0.637,1.382
			c0.094,0.204,0.188,0.409,0.283,0.612c0.191,0.411,0.382,0.821,0.574,1.23c0.126,0.269,0.252,0.538,0.379,0.806
			c0.166,0.354,0.333,0.707,0.502,1.06c0.158,0.333,0.318,0.666,0.476,0.998c0.147,0.308,0.294,0.615,0.442,0.921
			c0.19,0.394,0.381,0.787,0.571,1.179c0.121,0.25,0.243,0.5,0.365,0.75c0.316,0.646,0.632,1.289,0.951,1.933
			c28.677,57.848,70.603,108.226,116.565,153.585c8.288,8.181,16.721,16.212,25.29,24.096c0.229,16.803,1.341,33.569,3.685,50.257
			c16.173,115.19,95.436,218.981,200.978,267.134c16.086,7.34,34.872-1.615,39.014-18.81c8.864-36.789,17.709-74.522,16.236-111.483
			c-0.184-4.627-0.478-9.262-0.884-13.892c17.107,7.971,34.431,15.469,51.952,22.473c2.571,11.619,11.549,25.001,19.97,40.402
			c37.564,68.969,93.939,125.563,166.345,157.618c19.025,8.398,38.818,14.997,58.992,19.738
			c72.296,16.956,150.148,10.467,218.138-19.464c-55.01-43.235-110.025-86.525-165.036-129.814
			c-7.469-5.89-14.993-11.776-22.627-17.501c-7.798-5.89-15.757-11.56-23.935-16.846c-16.676-10.809-34.34-19.97-52.584-27.843
			c29.382-11.059,58.201-23.61,86.328-37.564c42.956,35.598,94.135,61.314,148.53,73.22c17.278,3.782,33.752-8.939,34.171-26.615
			c0.905-37.831,1.587-76.579-7.646-112.4c-3.212-12.456-7.255-24.788-12.175-36.743c73.777-57.603,139.048-126.059,192.384-203.018
			c11.011-15.92,28.187-25.897,47.052-30.206c10.96-2.508,25.299-12.485,39.038-9.704c10.197,2.073,17.556,10.469,23.497,19.082
			c10.631,15.375,19.738,31.839,26.933,49.07c0.874,2.018,1.638,4.036,2.457,6.051c6.379,16.411,11.392,33.152,15.373,50.104
			c24.155,101.138,13.084,210.073,43.944,310.008c53.976,174.742,212.523,299.541,381.81,368.836
			c-35.926-75.02-30.256-169.558-19.68-252.051c10.631-82.488,28.352-165.306,19.68-247.963
			c-15.263-146.716-111.82-273.258-223.589-369.543c-14.828-12.758-30.535-25.897-39.254-43.127
			c-1.967-3.815-1.309-8.559,1.634-11.721c33.203-35.494,83.037-63.681,129.815-74.531c48.96-11.448,99.994-19.409,143.174-45.198
			c46.832-28.023,116.401-80.035,158.001-129.76c9.213-10.904,16.957-21.7,22.897-32.059
			C1950.925,437.864,1767.244,432.576,1653.077,465.669z"></path>
		<g>
			<path style="fill:#DAEDEA;" d="M310.329,556.665c-33.912,3.817-67.222,19.3-88.543,45.962c-5.396,6.76-9.868,14.284-13.3,22.19
				c-5.51,12.485-8.507,26.061-8.562,39.581v0.165c0,9.326,1.439,18.584,4.447,27.423c9.171-15.957,20.218-31.329,32.463-45.96
				c11.469-13.732,23.978-26.796,36.912-39.06c13.257-12.57,26.961-24.299,40.455-35.035c6.561-5.205,13.149-10.387,19.789-15.504
				C327.051,555.633,319.191,555.669,310.329,556.665z"></path>
			<g>
				<path style="fill:#C2E1DC;" d="M273.746,606.965c-1.852-7.123-6.778-13.544-13.792-15.243
					c-7.359-1.744-14.832,1.853-21.207,5.888c-11.506,7.307-21.702,16.576-30.26,27.208c-5.51,12.485-8.507,26.061-8.562,39.581
					v0.165c0,9.326,1.439,18.584,4.447,27.423c9.171-15.957,20.218-31.329,32.463-45.96
					C248.304,632.294,260.812,619.229,273.746,606.965z"></path>
			</g>
			<path style="fill:#EA940A;" d="M498.426,752.778c-11.121-2.945-21.098-8.668-30.037-15.975
				c-9.542-7.743-17.885-17.283-25.299-27.043c-0.441-0.583-0.879-1.173-1.315-1.77c-1.291,0.474-2.59,0.918-3.897,1.334
				c19.629,45.723,61.611,98.347,103.869,114.78c23.038,8.958,51.633,7.089,69.525-9.963c16.674-15.888,20.808-41.728,15.526-64.143
				c-5.287-22.415-18.594-42.049-32.823-60.158c-1.619-2.062-3.258-4.114-4.92-6.152c-0.823,8.995-3.04,17.831-6.773,26.183
				C568.269,741.001,531.469,761.392,498.426,752.778z"></path>
			<path style="fill:#FBBB3F;" d="M273.746,606.965c-12.934,12.264-25.442,25.328-36.912,39.06c3.111,0.055,6.273-0.108,9.162-0.382
				c60.081-5.179,103.971,66.081,164.272,67.717c9.631,0.266,18.806-1.23,27.611-4.035c1.306-0.416,2.606-0.861,3.897-1.334
				c-37.712-51.575-57.723-150.984,37.245-140.312c33.912,3.817,67.221,19.299,88.539,45.96c0.122,0.154,0.243,0.31,0.364,0.465
				C633.562,570.246,711.47,544.709,790.388,542c9.147-0.312,18.222-0.285,27.231,0.049c-0.349-0.573-0.593-1.257-0.678-2.051
				c-0.67-6.206-0.164-12.23-1.587-18.416c-1.43-6.211-3.97-11.703-7.575-16.936c-2.579-3.747,3.433-8.357,6.297-4.86
				c8.731,10.659,16.36,27.453,11.105,41.327c-0.18,0.477-0.41,0.891-0.674,1.249c109.336,5.955,209.273,56.526,312.527,98.538
				c13.194,5.343,31.895,8.943,38.764-3.597c5.341-9.759-1.473-21.535-8.069-30.478c-6.869-9.322-13.848-18.7-20.938-27.969
				c-24.151-16.846-48.361-33.693-72.511-50.594c-2.475-1.727-4.951-3.455-7.43-5.182c-4.869-3.391-9.747-6.775-14.645-10.133
				c-15.939-10.929-32.073-21.579-48.701-31.294c-5.104-2.982-10.255-5.876-15.46-8.662c-10.413-5.574-21.044-10.72-31.967-15.282
				c-7.296-3.045-14.628-5.836-21.993-8.389c-6.681-2.316-13.391-4.435-20.125-6.369c-39.262-11.274-79.423-16.241-120.184-17.01
				c-33.029-0.624-66.451,1.507-100.109,5.271c-100.973,11.341-204.18,27.915-292.178,78.838
				c-23.622,13.688-45.835,29.677-67.5,46.376c-6.64,5.117-13.227,10.299-19.789,15.504
				C300.707,582.667,287.003,594.395,273.746,606.965z"></path>
			<path style="fill:#EA940A;" d="M817.067,1107.251c-6.37-17.341-11.313-35.086-15.267-53.085c1.825-4.404,0.834-9.66-2.751-13.357
				c-7.642-39.646-11.048-80.333-14.755-120.492c1.21,38.792,0.726,77.669-1.404,116.417c-8.749,1.854-17.284,8.611-21.296,15.495
				c-5.226,8.962-6.573,25.939,2.941,32.756c-0.159,0.088-0.317,0.178-0.48,0.263c-5.625,2.958-12.087,3.593-18.521,3.191
				c1.139,0.577,2.04,1.71,2.211,3.384c0.917,9.017-1.583,17.14-7.876,23.833c-5.596,5.952-14.53,11.105-22.877,9.064
				c-3.343-0.819-4.369-6.199-1.011-7.74c5.631-2.574,11.18-3.848,15.675-8.425c4.224-4.299,7.775-10.663,8.147-16.733
				c0.121-2.011,1.268-3.219,2.654-3.651c-1.075-0.117-2.145-0.259-3.206-0.417c-19.683-3.039-38.063-11.602-54.486-23.049
				c-0.867-9.354-4.831-18.884-9.745-25.731c-7.225-10.07-22.787-21.403-35.733-16.491c-6.775-7.463-13.56-15.074-21.073-22.837
				c-11.206-11.572-22.601-23.013-34.236-34.207c-0.201-12.95-7.639-26.213-16.566-34.82c-8.891-8.572-24.689-17.52-37.522-13.425
				c-20.69-16.899-42.256-32.632-64.935-46.659c-6.021-20.478-31.666-37.105-51.461-30.117c-0.889,0.314-1.704,0.761-2.438,1.31
				c-31.146-14.013-64.074-24.349-97.591-29.614c-5.179-9.892-14.48-20.495-24.523-23.234c-12.316-3.357-32.649,4.279-31.874,19.4
				c-12.61,0.307-25.209,1.427-37.734,3.435l-0.74,0.12c-37.639,6.246-58.636,46.872-43.58,81.866
				c0.049,0.113,0.096,0.225,0.145,0.338c0.793,1.813,1.603,3.62,2.424,5.42c0.052,0.113,0.104,0.227,0.155,0.339
				c0.211,0.461,0.423,0.922,0.637,1.382c0.094,0.204,0.188,0.409,0.283,0.612c0.191,0.411,0.382,0.821,0.574,1.23
				c0.126,0.269,0.252,0.538,0.379,0.806c0.166,0.354,0.333,0.707,0.502,1.06c0.158,0.333,0.318,0.666,0.476,0.998
				c0.147,0.308,0.294,0.615,0.442,0.921c0.19,0.394,0.381,0.787,0.571,1.179c0.121,0.25,0.243,0.5,0.365,0.75
				c0.316,0.646,0.632,1.289,0.951,1.933c28.677,57.848,70.603,108.226,116.565,153.585c8.288,8.181,16.721,16.212,25.29,24.096
				c13.613,12.522,27.573,24.667,41.857,36.418c7.233,5.95,14.548,11.799,21.943,17.546c9.552,7.423,19.238,14.674,29.048,21.751
				c6.706,4.837,13.47,9.594,20.291,14.267c11.589,7.938,23.342,15.638,35.247,23.092c6.905,4.325,13.864,8.566,20.871,12.725
				c16.116,9.564,32.493,18.688,49.105,27.354c13.408,6.984,26.969,13.669,40.666,20.052c17.107,7.971,34.431,15.469,51.952,22.473
				c13.49,5.394,27.098,10.495,40.812,15.297c2.754,0.965,5.511,1.918,8.273,2.859c2.915,0.993,5.76,1.912,8.542,2.762
				c15.399,4.705,28.873,7.263,41.677,7.995c5.225,0.298,10.341,0.292,15.429,0.004c8.531-0.483,16.99-1.761,25.775-3.729
				c3.988-0.893,8.043-1.928,12.205-3.097c10.599-2.976,21.882-6.812,34.471-11.349c4.036-1.456,8.063-2.94,12.078-4.452
				c29.382-11.059,58.201-23.61,86.328-37.564C874.808,1214.192,837.925,1164.028,817.067,1107.251z"></path>
			<path style="fill:#52110E;" d="M210.199,725.965l0.866-0.149c23.124,6.296,47.114,9.622,70.447,15.177
				c23.677,5.637,47.036,12.802,70.975,17.211c7.316,4.077,14.609,8.3,21.898,12.598c2.394,1.409,5.102-1.947,3.01-3.897
				c-45.688-42.537-108.313-71.471-171.231-55.573C196.64,713.738,200.695,727.953,210.199,725.965z"></path>
			<path style="fill:#DAEDEA;" d="M567.924,614.104c-0.121-0.155-0.242-0.31-0.364-0.465c-21.318-26.661-54.627-42.143-88.539-45.96
				c-94.969-10.673-74.957,88.737-37.245,140.312c0.436,0.597,0.874,1.187,1.315,1.77c7.414,9.76,15.757,19.3,25.299,27.043
				c8.939,7.306,18.916,13.03,30.037,15.975c33.043,8.613,69.843-11.778,83.856-42.908c3.734-8.352,5.951-17.187,6.773-26.183
				c0.247-2.693,0.37-5.399,0.37-8.112v-0.165C589.371,653.527,581.494,631.429,567.924,614.104z"></path>
			<path style="fill:#E58C01;" d="M563.963,646.917c-0.325-2.289-0.855-4.55-1.529-6.721c-3.34-10.931-9.902-20.831-18.555-28.29
				c-3.287-2.833-6.873-5.314-10.702-7.366c-5.49-2.935-11.623-5.076-17.873-4.812c-16.699,0.702-23.129,9.732-23.522,22.808
				c-0.083,2.757,0.101,5.692,0.515,8.769c1.611,12.267,6.101,24.415,14.495,33.456c1.262,1.35,2.614,2.641,4.052,3.815
				c8.127,6.75,18.809,10.506,29.198,8.892c12.206-1.879,23.156-12.12,24.151-24.417
				C564.343,650.996,564.252,648.943,563.963,646.917z"></path>
			<path style="fill:#E58603;" d="M837.135,820.211c-0.968,2.755,3.158,4.318,4.604,1.94c24.409-40.202,26.713-94.787,1.92-135.471
				c-4.871-7.992-17.736-0.311-12.477,7.293C849.396,736.686,852.703,776.014,837.135,820.211z"></path>
			<path style="fill:#E58603;" d="M928.307,691.068c1.391,9.93,0.223,20.232-3.531,29.521c-1.571,3.888,4.341,5.841,6.442,2.716
				c6.873-10.239,10.145-21.386,8.676-33.809c-1.183-9.971-5.458-24.376-15.357-28.822c-3.053-1.371-6.348,0.874-5.615,4.317
				C920.869,674.13,926.955,681.395,928.307,691.068z"></path>
			<path style="fill:#E58603;" d="M946.258,822.839c1.128,9.752-0.666,18.635-2.743,28.089c-0.897,4.07,4.334,6.256,6.646,2.804
				c9.675-14.448,12.022-44.826-2.931-56.837c-2.304-1.853-7.129-0.991-6.717,2.782
				C941.387,807.636,945.326,814.764,946.258,822.839z"></path>
			<path style="fill:#E58603;" d="M1026.364,797.285c-0.909,3.754,4.699,6.53,6.509,2.745c4.028-8.431,6.564-16.26,6.544-25.683
				c-0.008-3.964-0.51-7.979-1.293-11.864c-0.829-4.107-3.215-8.55-4.471-12.802c0.654-0.979,0.93-2.258,0.563-3.333
				c-0.893-2.625-1.791-3.795-4.553-4.538c-1.482-0.4-3.249-0.016-4.311,1.138c-5.572,6.054-0.466,12.128,1.258,19.1
				C1029.393,773.302,1029.076,786.063,1026.364,797.285z"></path>
			<path style="fill:#E58603;" d="M1048.756,940.979c1.403,8.833-0.177,17.048-2.03,25.654c-0.952,4.404,4.518,6.513,7.054,2.974
				c10.314-14.389,11.36-43.153-3.174-55.396c-3.97-3.347-10.447-0.261-9.005,5.241
				C1043.544,926.858,1047.525,933.254,1048.756,940.979z"></path>
			<path style="fill:#E58603;" d="M1104.977,780.238c2.351,8.831,1.826,17.462,2.12,26.448c0.118,3.554,5.678,5.805,7.332,1.987
				c8.029-18.534,0.74-45.861-15.55-57.883c-3.484-2.571-7.395,2.288-5.588,5.588
				C1097.673,764.372,1102.579,771.241,1104.977,780.238z"></path>
			<path style="fill:#E58603;" d="M1119.864,854.805c0.584,2.23,1.595,4.187,2.288,6.358c1.113,3.499,6.779,3.053,6.631-0.898
				c-0.086-2.259,0.188-4.398-0.004-6.667c-0.204-2.357-0.748-4.585-1.313-6.879c-1.152-4.675-9.138-3.836-8.61,1.166
				C1119.104,850.213,1119.269,852.536,1119.864,854.805z"></path>
			<path style="fill:#E58603;" d="M1138.443,934.484c1.303-2.294,2.042-4.884,2.301-7.583c0.776-8.073-2.747-17.122-8.348-22.172
				c-3.605-3.249-8.394,0.785-6.474,4.994c1.759,3.854,3.523,7.73,4.428,11.885c0.871,4.002,0.676,7.957,1.303,11.95
				c0.002,0.012,0.004,0.026,0.006,0.039C1132.173,936.847,1136.977,937.065,1138.443,934.484z"></path>
			<path style="fill:#E58603;" d="M1177.951,810.069c3.515,9.319,7.873,17.64,9.122,27.692c1.356,10.886-0.787,20.855-2.441,31.526
				c-0.662,4.271,4.467,6.736,7.054,2.974c12.716-18.484,10.024-50.812-5.228-67.143
				C1183.131,801.554,1176.129,805.238,1177.951,810.069z"></path>
			<path style="fill:#E58603;" d="M1171.806,698.755c1.564,3.013,6.199,1.51,6.219-1.685c0.07-10.038-5.662-19.041-12.426-26.052
				c-4.224-4.379-10.862,2.278-6.67,6.672C1164.796,683.835,1167.954,691.333,1171.806,698.755z"></path>
			<path style="fill:#E58603;" d="M1219.172,907.175c-2.359-2.543-5.772-0.296-6.145,2.545c-0.337,2.577,0.172,5.225,0.827,7.749
				c0.298,1.14,0.513,2.338,0.893,3.451c0.697,2.032,2.096,3.006,4.024,3.783c1.916,0.774,4.138-0.539,5.161-2.1
				c1.896-2.904,0.344-5.674-0.733-8.531C1222.221,911.481,1221.053,909.196,1219.172,907.175z"></path>
			<path style="fill:#E58603;" d="M742.456,1088.173c-1.386,0.431-2.533,1.639-2.654,3.651c-0.372,6.07-3.923,12.434-8.147,16.733
				c-4.495,4.577-10.044,5.85-15.675,8.425c-3.358,1.541-2.332,6.921,1.011,7.74c8.347,2.042,17.281-3.111,22.877-9.064
				c6.294-6.693,8.794-14.817,7.876-23.833c-0.17-1.674-1.071-2.807-2.211-3.384
				C744.578,1087.955,743.455,1087.863,742.456,1088.173z"></path>
			<path style="fill:#E58603;" d="M742.385,1217.512c15.835-12.786,22.63-31.307,21.165-51.323c-0.302-4.134-6.188-4.166-6.454,0
				c-1.086,16.999-9.193,32.995-20.75,45.284C732.501,1215.564,738.183,1220.901,742.385,1217.512z"></path>
			<path style="fill:#E58603;" d="M814.077,499.785c-2.865-3.497-8.876,1.113-6.297,4.86c3.605,5.233,6.144,10.725,7.575,16.936
				c1.423,6.186,0.917,12.211,1.587,18.416c0.085,0.794,0.329,1.478,0.678,2.051c1.513,2.478,5.061,2.802,6.889,0.313
				c0.264-0.358,0.494-0.772,0.674-1.249C830.437,527.238,822.808,510.444,814.077,499.785z"></path>
			<path style="fill:#E58603;" d="M1252.727,743.814c2.414,7.551,6.078,14.264,6.96,22.288c0.944,8.609-0.713,16.56-2.05,25.001
				c-0.721,4.564,4.859,7.31,7.603,3.203c10.059-15.061,8.397-42.12-4.566-55.118C1257.41,735.914,1251.254,739.21,1252.727,743.814
				z"></path>
			<path style="fill:#E58603;" d="M1267.999,843.952c6.247,12.144,4.256,24.443-0.404,36.687c-1.026,2.7,2.912,4.784,4.769,2.778
				c11.055-11.944,10.22-29.996,2.304-43.362C1272.121,835.756,1265.738,839.548,1267.999,843.952z"></path>
			<path style="fill:#E58603;" d="M1326.391,810.571c1.097,2.48,5.439,2.48,6.536,0c1.909-4.299,1.562-9.883,1.316-14.895
				c-0.06-1.226-0.115-2.417-0.129-3.547c-0.067-5.735-8.841-5.745-8.911,0c-0.016,1.301-0.085,2.683-0.156,4.105
				C1324.807,801.101,1324.553,806.432,1326.391,810.571z"></path>
			<path style="fill:#EA940A;" d="M610.321,985.137c1.431,1.748,2.657,4.495,4.076,6.677c0.984,1.513,2.14,3.186,3.444,4.44
				c0.984,0.807,1.994,1.571,3.037,2.292c2.578,0.905,3.17,1.195,1.764,0.878c3.652,2.332,8.088,0.525,10.361-2.716
				c2.727-3.891,4.04-9.409,2.136-15.193c-1.724-5.247-5.228-10.255-9.084-14.158c-3.613-3.652-8.335-7.238-13.422-8.37
				c-6-1.332-14.15,1.176-14.546,8.39C597.616,975.944,605.673,979.466,610.321,985.137z"></path>
			<path style="fill:#EA940A;" d="M505.993,892.096c5.032,5.733,8.037,12.056,14.241,16.815c6.838,5.244,15.314-2.063,15.765-9.046
				c0.63-9.791-6.059-18.526-12.454-25.323c-5.518-5.872-12.519-11.572-20.493-13.413c-1.136-0.417-2.32-0.585-3.498-0.544
				c-0.079-0.006-0.156-0.013-0.234-0.019c0.001,0.01,0.003,0.019,0.004,0.028c-7.14,0.414-13.987,8.466-9.052,15.738
				C494.445,882.479,501.087,886.506,505.993,892.096z"></path>
			<path style="fill:#EA940A;" d="M358.184,805.224c-3.033,4.569-1.18,12.346,3.872,14.76c-2.716-1.297,3.382,1.757,3.554,1.806
				c1.943,0.548,3.727,0.511,5.639-0.114c0.676-0.222,1.292-0.498,1.851-0.819c0.858,0.161,2.053,0.449,3.192,0.746
				c4.675,1.213,8.84,3.2,13.771,2.069c3.538-0.811,7.233-5.063,6.771-8.895c-0.631-5.224-2.849-8.6-7.108-11.533
				c-2.782-1.918-5.992-3.474-9.284-4.222C371.942,797.087,363.447,797.294,358.184,805.224z"></path>
			<path style="fill:#EA940A;" d="M199.634,802.802c4.228-2.395,7.826-0.898,12.477-0.854c4.926,0.043,11.874-1.146,9.985-8.535
				c-3.84-15.001-24.029-12.614-32.541-3.674C183.077,796.544,191.295,807.522,199.634,802.802z"></path>
			<path style="fill:#EA940A;" d="M697.108,1056.885c-1.403-1.638-1.102-1.203,0.905,1.297c0.74,0.569,1.477,1.14,2.214,1.709
				c1.387,1.003,2.943,1.501,4.538,2.049c2.003,0.686,4.021,1.478,6.051,2.057c6.763,1.936,16.372-0.921,16.674-9.056
				c0.278-7.402-5.773-12.787-12.289-14.844c-2.512-0.791-5.224-1.136-7.861-1.077c-2.489,0.055-4.554,0.521-6.725,1.775
				c-0.976,0.466-1.842,1.101-2.602,1.909c-1.979,2.571-2.277,2.954-0.905,1.152
				C693.612,1047.883,693.738,1052.817,697.108,1056.885z"></path>
			<path style="fill:#EA940A;" d="M745.288,1013.41c0.297,1.066,0.834,1.987,1.614,2.771c0.56,0.945,1.309,1.697,2.253,2.257
				c0.784,0.776,1.709,1.317,2.775,1.614c1.497,0.788,3.111,1.148,4.839,1.082c1.113-0.149,2.226-0.298,3.343-0.447
				c0.999-0.423,1.999-0.846,3.002-1.27c0.846-0.654,1.693-1.309,2.543-1.963c0.655-0.846,1.309-1.696,1.963-2.543
				c0.423-1,0.843-2.003,1.266-3.002c0.525-1.67,0.6-3.339,0.224-5.012c0-1.133-0.286-2.19-0.854-3.17
				c-0.51-1.556-1.376-2.904-2.599-4.044l-0.795-0.874c-1.034-1.113-2.265-1.905-3.684-2.363c-1.364-0.717-2.833-1.047-4.409-0.988
				c-1.015,0.137-2.026,0.274-3.041,0.407c-1.94,0.545-3.621,1.529-5.052,2.943l-0.791,0.874c-0.655,0.851-1.309,1.697-1.967,2.543
				c-0.419,0.999-0.842,2.003-1.266,3.002c-0.521,1.669-0.6,3.343-0.223,5.012C744.434,1011.373,744.72,1012.431,745.288,1013.41z"></path>
			<path style="fill:#EA940A;" d="M676.946,999.225c0.443,1.575,1.238,2.939,2.39,4.099c0.627,0.482,1.254,0.968,1.877,1.45
				c1.45,0.842,3.013,1.266,4.686,1.269c1.282,0.047,2.473-0.219,3.578-0.799c1.152-0.376,2.148-1.015,2.99-1.92
				c0.905-0.843,1.544-1.838,1.92-2.99c0.58-1.105,0.846-2.296,0.799-3.578c-0.109-0.823-0.219-1.646-0.333-2.469
				c-0.438-1.572-1.234-2.935-2.386-4.095c-0.627-0.486-1.254-0.968-1.881-1.454c-1.446-0.839-3.01-1.262-4.687-1.266
				c-1.278-0.047-2.469,0.219-3.578,0.799c-1.148,0.372-2.147,1.015-2.986,1.92c-0.905,0.842-1.548,1.838-1.92,2.986
				c-0.58,1.109-0.846,2.3-0.799,3.578L676.946,999.225z"></path>
			<path style="fill:#EA940A;" d="M764.647,943.377c9.836,0,9.855-15.29,0-15.29C754.807,928.087,754.791,943.377,764.647,943.377z"></path>
			<path style="fill:#EA940A;" d="M578.904,921.214c0.133,0.631,0.333,1.029,0.619,1.707c0.333,0.788,0.666,1.497,1.062,2.239
				c1.626,3.043,5.4,5.233,8.857,5.079c0.909-0.122,1.818-0.245,2.727-0.367c1.736-0.488,3.245-1.365,4.522-2.637
				c1.003-0.929,1.708-2.03,2.12-3.299c0.643-1.223,0.937-2.539,0.886-3.952c0-3.503-1.928-7.173-5.078-8.854
				c-0.74-0.396-1.454-0.731-2.238-1.062c-0.682-0.288-1.031-0.478-1.642-0.607l-0.595-0.123c-1.634-0.441-3.268-0.441-4.906,0
				c-1.56,0.437-2.919,1.229-4.071,2.373c-1.144,1.15-1.932,2.508-2.371,4.071c-0.439,1.636-0.439,3.27,0,4.906L578.904,921.214z"></path>
			<path style="fill:#EA940A;" d="M453.612,828.127c10.988,0,11.007-17.081,0-17.081
				C442.62,811.045,442.601,828.127,453.612,828.127z"></path>
			<path style="fill:#EA940A;" d="M916.057,973.565c0.439,1.344,1.187,2.508,2.245,3.491c1.352,1.344,2.947,2.276,4.789,2.79
				c1.607,0.45,3.135,0.933,4.851,0.956c1.442,0.02,2.963-0.349,4.412-0.56c1.564-0.439,2.916-1.227,4.068-2.367
				c0.898-0.835,1.532-1.822,1.905-2.967c1.164-2.759,0.948-5.557-0.466-8.198c-0.717-1.344-1.423-2.602-2.547-3.711
				c-1.082-1.07-2.618-2.026-3.864-2.986c-1.693-0.98-3.515-1.473-5.474-1.481c-0.964,0.129-1.924,0.259-2.884,0.388
				c-1.842,0.517-3.437,1.446-4.789,2.79c-1.058,0.984-1.807,2.147-2.245,3.491c-0.678,1.293-0.992,2.689-0.933,4.181
				C915.066,970.881,915.379,972.272,916.057,973.565z"></path>
			<path style="fill:#EA940A;" d="M1076.308,925.034c0.553,1.966,1.548,3.67,2.982,5.118c0.783,0.603,1.567,1.209,2.347,1.812
				c1.811,1.05,3.762,1.578,5.855,1.583c0.556-0.047,1.109-0.094,1.665-0.141c1.575,0.059,3.049-0.268,4.412-0.986
				c1.419-0.462,2.649-1.252,3.688-2.369c1.117-1.038,1.904-2.267,2.367-3.687c0.717-1.364,1.046-2.835,0.987-4.413
				c-0.137-1.015-0.274-2.029-0.407-3.045c-0.545-1.942-1.528-3.627-2.947-5.055c-0.772-0.597-1.548-1.193-2.32-1.791
				c-1.787-1.036-3.712-1.557-5.78-1.563c-0.557-0.047-1.109-0.096-1.665-0.143c-1.599-0.059-3.088,0.274-4.468,0.999
				c-1.438,0.468-2.684,1.268-3.734,2.398c-1.129,1.05-1.928,2.294-2.398,3.733c-0.725,1.381-1.058,2.87-0.996,4.467
				C1076.034,922.979,1076.171,924.007,1076.308,925.034z"></path>
			<path style="fill:#EA940A;" d="M1016.622,957.201c12.43,0,12.45-19.315,0-19.315
				C1004.192,937.885,1004.173,957.201,1016.622,957.201z"></path>
			<path style="fill:#EA940A;" d="M1222.232,853.528c1.811-0.507,3.386-1.424,4.722-2.751c1.325-1.336,2.242-2.909,2.751-4.724
				c0.149-0.424,0.302-0.846,0.451-1.27c0.478-1.779,0.478-3.558,0-5.335c-0.474-1.701-1.336-3.178-2.578-4.43
				c-1.254-1.244-2.731-2.104-4.428-2.581c-1.779-0.478-3.558-0.478-5.337,0l-1.27,0.453c-1.814,0.507-3.39,1.424-4.722,2.751
				c-1.328,1.336-2.245,2.909-2.755,4.722c-1.015,3.684,0.055,7.716,2.755,10.414
				C1214.516,853.475,1218.548,854.543,1222.232,853.528z"></path>
			<path style="fill:#EA940A;" d="M1285.464,798.784c0.834,0.644,1.665,1.287,2.5,1.93c1.415,0.903,2.943,1.391,4.585,1.466
				c1.642,0.367,3.284,0.294,4.922-0.221c0.984-0.414,1.968-0.829,2.951-1.245c1.854-1.097,3.331-2.572,4.428-4.428
				c0.58-1.064,1.14-2.077,1.478-3.3c0.458-1.466,0.521-2.929,0.196-4.393c-0.067-1.466-0.501-2.83-1.309-4.095l-0.09-0.167
				l-0.203-0.368c-0.294-0.527-0.49-0.678-1.038-1.383c-0.87-1.344-2.022-2.404-3.461-3.18c-0.983-0.414-1.967-0.829-2.951-1.245
				c-1.638-0.513-3.28-0.588-4.922-0.22c-1.642,0.075-3.17,0.562-4.585,1.464c-0.835,0.644-1.665,1.287-2.5,1.93
				c-1.529,1.54-2.586,3.356-3.174,5.447c-0.145,1.093-0.294,2.187-0.439,3.28c-0.067,1.701,0.29,3.284,1.063,4.755
				C1283.411,796.343,1284.261,797.667,1285.464,798.784z"></path>
			<path style="fill:#EA940A;" d="M1396.559,808.559c13.676,0,13.696-21.255,0-21.255
				C1382.883,787.304,1382.859,808.559,1396.559,808.559z"></path>
			<path style="fill:#EA940A;" d="M1405.063,910.964c1.359-0.388,2.643-0.921,3.857-1.594c1.455-0.606,2.74-1.506,3.851-2.701
				l2.281-2.951c0.084-0.2,0.168-0.401,0.254-0.601c0.753-1.301,1.342-2.687,1.76-4.157c0.208-1.524,0.412-3.047,0.615-4.569
				c0.09-2.367-0.403-4.573-1.481-6.623c-0.69-2.13-1.877-3.974-3.551-5.531c-1.559-1.675-3.402-2.861-5.533-3.552
				c-2.049-1.078-4.255-1.569-6.623-1.481c-1.104-0.041-2.172,0.045-3.206,0.258c-3.046-14.866-6.333-29.879-9.784-45.193
				c-2.488-10.977-9.45-19.8-18.647-26.031c0.367-0.26,0.718-0.544,1.056-0.853c1.09-0.645,1.956-1.513,2.602-2.602
				c0.898-0.905,1.52-1.971,1.865-3.2c0.905-1.73,1.32-3.592,1.246-5.588l-0.517-3.856c-0.486-1.156-0.975-2.31-1.461-3.464
				c-0.913-1.691-2.156-3.047-3.735-4.069c-1.403-1.282-3.045-2.148-4.933-2.596l-0.2-0.031l-0.078-0.014
				c-1.195-0.161-2.386-0.319-3.578-0.48c-1.203,0.131-2.402,0.292-3.594,0.484l-0.18,0.027c-0.682,0.119-0.321,0.116-1.814,0.745
				c-1.227,0.345-2.292,0.966-3.198,1.865c-1.579,1.023-2.825,2.379-3.738,4.069c-0.486,1.154-0.972,2.308-1.462,3.464l-0.517,3.856
				c-0.04,1.072,0.063,2.103,0.305,3.097c-4.174-0.88-8.44-1.359-12.682-1.416c0.246,5.012,0.593,10.596-1.316,14.895
				c-1.097,2.48-5.439,2.48-6.536,0c-1.838-4.14-1.584-9.47-1.343-14.336c-20.125,2.776-38.025,13.127-54.569,25.274
				c-0.404-0.884-0.915-1.732-1.544-2.546c-3.958-5.122-10.827-6.35-16.517-3.298c-0.392,0.21-0.78,0.419-1.172,0.629
				c-2.677,1.436-5.267,4.757-5.945,7.728c-0.359,1.579-0.508,3.246-0.361,4.878c-0.101,1.931,0.232,3.925,1.282,5.554
				c0.839,1.301,1.974,2.586,3.326,3.478c-19.582,15.93-38.77,32.423-58.17,48.616c-15.681-6.212-34.434,8.018-33.37,25.569
				c0.029,0.488,0.1,0.957,0.204,1.41c-5.77,4.533-11.589,8.998-17.469,13.376c-0.259,2.699-0.998,5.288-2.301,7.583
				c-1.466,2.581-6.27,2.363-6.784-0.886c-0.001-0.013-0.004-0.027-0.006-0.039c-7.091,5.105-14.282,10.07-21.596,14.858
				c-18.785-7.125-43.875,8.087-51.38,25.329c-0.674,1.548-0.985,3.061-1.009,4.498c-12.148,5.868-24.559,11.111-37.177,15.546
				c-7.679-6.65-20.706-8.696-29.929-8.946c-13.845-0.38-25.864,3.366-35.742,13.03c-3.305,3.235-3.349,7.484-1.51,10.76
				c-7.227,0.6-14.487,0.862-21.771,0.757c3.866,2.694,7.796,5.298,11.788,7.806c26.807,16.843,56.346,29.535,80.968,49.435
				c26.992,21.814,46.655,51.331,59.928,83.588c73.777-57.603,139.048-126.059,192.384-203.018
				c11.011-15.92,28.187-25.897,47.052-30.206c10.96-2.508,25.299-12.485,39.038-9.704c10.197,2.073,17.556,10.469,23.497,19.082
				c10.631,15.375,19.738,31.839,26.933,49.07c-2.332-21.635-5.517-42.86-9.324-64.145
				C1404.223,911.206,1404.642,911.096,1405.063,910.964z M1223.933,922.603c-1.023,1.562-3.245,2.874-5.161,2.1
				c-1.928-0.778-3.327-1.752-4.024-3.783c-0.38-1.113-0.596-2.31-0.893-3.451c-0.655-2.524-1.164-5.172-0.827-7.749
				c0.372-2.841,3.786-5.088,6.145-2.545c1.881,2.022,3.049,4.306,4.029,6.897C1224.278,916.928,1225.829,919.699,1223.933,922.603z
				 M1272.364,883.418c-1.858,2.006-5.796-0.079-4.769-2.778c4.66-12.244,6.65-24.543,0.404-36.687
				c-2.261-4.404,4.123-8.196,6.67-3.897C1282.584,853.422,1283.419,871.474,1272.364,883.418z"></path>
			<path style="fill:#EA940A;" d="M1404.071,824.915c-0.697,0.294-1.395,0.588-2.092,0.884c-1.023,0.55-1.842,1.303-2.461,2.257
				c-0.541,0.547-0.917,1.191-1.125,1.934c-0.548,1.045-0.803,2.169-0.756,3.376c0.016,0.656,0.027,1.313,0.043,1.969
				c-0.035,0.929,0.161,1.797,0.583,2.6c0.271,0.837,0.737,1.561,1.396,2.172c1.336,1.229,2.931,1.936,4.773,1.977
				c0.655,0.016,1.313,0.029,1.968,0.045c0.78-0.106,1.555-0.21,2.332-0.313c0.697-0.294,1.395-0.59,2.092-0.884
				c1.023-0.551,1.842-1.303,2.461-2.257c0.541-0.547,0.917-1.191,1.125-1.934c0.396-0.684,0.596-1.421,0.599-2.212
				c0.208-0.776,0.208-1.552,0-2.329c-0.004-0.79-0.203-1.528-0.599-2.21c-0.353-1.087-0.956-2.028-1.811-2.821l-1.775-1.37
				c-0.698-0.296-1.395-0.59-2.092-0.884c-0.776-0.104-1.552-0.209-2.332-0.313C1405.623,824.706,1404.847,824.811,1404.071,824.915
				z"></path>
			<path style="fill:#EA940A;" d="M1422.148,961.692c10.608,0,10.624-16.484,0-16.484
				C1411.541,945.208,1411.525,961.692,1422.148,961.692z"></path>
			<path style="fill:#EA940A;" d="M1321.25,739.288l-0.235,0.318c-1.144,1.971-1.721,4.097-1.728,6.379
				c0.008,2.281,0.584,4.406,1.728,6.38l0.235,0.315c0.694,0.893,1.384,1.789,2.073,2.684c1.203,1.293,2.625,2.208,4.271,2.743
				c1.035,0.6,2.151,0.901,3.347,0.905c1.764,0.396,3.527,0.315,5.29-0.238l0.18-0.049c1.72-0.409,3.217-1.198,4.495-2.365
				c0.689-0.535,1.046-0.746,1.532-1.227l0.49-0.484c1.195-1.109,2.038-2.424,2.536-3.944c0.764-1.461,1.117-3.035,1.054-4.722
				c-0.145-1.087-0.294-2.173-0.439-3.26c-0.58-2.075-1.634-3.88-3.151-5.408l-0.49-0.484l-0.196-0.192
				c-1.195-1.289-2.614-2.2-4.252-2.733c-0.56-0.315-1.144-0.554-1.759-0.715c-1.175-0.159-2.351-0.315-3.527-0.474
				c-1.826-0.069-3.531,0.311-5.11,1.142c-1.124,0.316-2.1,0.884-2.927,1.707C1323.221,736.502,1322.084,737.744,1321.25,739.288z"></path>
			<path style="fill:#EA940A;" d="M1360.672,734.133c0.412,0.926,0.823,1.851,1.234,2.778c1.121,2.533,4.515,4.73,7.061,5.433
				c2.829,0.778,6.599,0.427,9.108-1.193c2.524-1.626,4.745-4.05,5.435-7.064c0.713-3.129,0.411-6.27-1.191-9.107
				c-0.498-0.878-0.992-1.754-1.489-2.63c-0.231-0.41-0.447-0.827-0.694-1.229c-1.375-2.255-2.606-3.039-4.675-4.624
				c-1.763-1.02-3.664-1.536-5.705-1.542c-2.038,0.006-3.942,0.522-5.706,1.542c-3.409,1.997-5.635,5.788-5.596,9.76
				c0.027,2.78,0.56,4.113,1.646,6.578C1360.292,733.269,1360.484,733.7,1360.672,734.133z"></path>
			<path style="fill:#EA940A;" d="M1303.063,710.589c0.811,0.931,1.92,1.669,2.915,2.328c1.799,1.042,3.735,1.565,5.815,1.573
				c2.081-0.008,4.017-0.531,5.815-1.573c1.446-0.823,3.402-2.6,4.134-4.134c0.731-1.261,1.207-2.591,1.427-3.991
				c0.066-0.195,0.128-0.392,0.183-0.592c0.498-1.591,0.568-3.182,0.212-4.773c-0.071-1.593-0.545-3.076-1.419-4.45
				c-0.752-1.395-1.779-2.516-3.084-3.358c-1.156-1.058-2.512-1.773-4.068-2.143c-2.124-0.571-4.244-0.571-6.364,0
				c-2.547,1.027-3.578,1.287-5.565,3.227c-0.788,0.766-1.481,1.648-2.038,2.596c-1.642,2.806-2.21,6.44-1.258,9.587
				C1300.535,707.419,1301.354,708.625,1303.063,710.589z"></path>
			<path style="fill:#EA940A;" d="M1245.607,679.502l0.098,0.557c0.396,2.132,1.587,3.435,2.892,5.049
				c0.964,1.039,2.109,1.773,3.429,2.205c1.27,0.666,2.637,0.972,4.107,0.917c0.944-0.127,1.889-0.255,2.829-0.38
				c1.806-0.507,3.374-1.42,4.702-2.741c1.325-1.638,2.473-2.896,2.892-5.049l0.098-0.557c0.074-0.431,0.153-0.864,0.227-1.297
				c0.533-1.975,0.533-3.952,0-5.927c-0.529-1.889-1.485-3.529-2.868-4.92c-0.752-0.582-1.501-1.162-2.254-1.744
				c-1.74-1.009-3.617-1.516-5.627-1.522c-1.536-0.057-2.967,0.263-4.299,0.961c-1.379,0.45-2.574,1.219-3.585,2.306
				c-1.384,1.391-2.339,3.031-2.869,4.92c-0.529,1.975-0.529,3.952,0,5.927C1245.458,678.638,1245.533,679.072,1245.607,679.502z"></path>
			<g>
				<path style="fill:#E94C1D;" d="M583.801,1261.558c-13.697-6.383-27.258-13.068-40.666-20.052
					c-16.612-8.667-32.99-17.79-49.105-27.354c-7.007-4.159-13.966-8.401-20.871-12.725c-11.905-7.454-23.658-15.154-35.247-23.092
					c-6.821-4.673-13.585-9.43-20.291-14.267c-9.81-7.077-19.496-14.328-29.048-21.751c-7.396-5.747-14.711-11.597-21.943-17.546
					c-14.284-11.751-28.244-23.896-41.857-36.418c0.229,16.803,1.341,33.569,3.685,50.257
					c16.173,115.19,95.436,218.981,200.978,267.134c16.086,7.34,34.872-1.615,39.014-18.81
					c8.864-36.789,17.709-74.522,16.236-111.483C584.5,1270.823,584.206,1266.188,583.801,1261.558z"></path>
				<path style="fill:#E94C1D;" d="M911.535,1335.01c-7.798-5.89-15.757-11.56-23.935-16.846
					c-16.676-10.809-34.34-19.97-52.584-27.843c-4.016,1.512-8.042,2.996-12.078,4.452c-12.589,4.537-23.872,8.373-34.471,11.349
					c-4.162,1.169-8.217,2.203-12.205,3.097c-8.786,1.968-17.244,3.246-25.775,3.729c-5.088,0.289-10.204,0.295-15.429-0.004
					c-12.803-0.731-26.277-3.289-41.677-7.995c-2.782-0.85-5.626-1.77-8.542-2.762c-2.763-0.94-5.519-1.894-8.273-2.859
					c-13.714-4.802-27.322-9.903-40.812-15.297c2.571,11.619,11.549,25.001,19.97,40.402
					c37.564,68.969,93.939,125.563,166.345,157.618c19.025,8.398,38.818,14.997,58.992,19.738
					c72.296,16.956,150.148,10.467,218.138-19.464c-55.01-43.235-110.025-86.525-165.036-129.814
					C926.692,1346.621,919.168,1340.735,911.535,1335.01z"></path>
				<path style="fill:#E94C1D;" d="M1067.538,339.435c-96.663,4.631-191.979,34.787-273.762,86.506
					c40.762,0.769,80.922,5.736,120.184,17.01c6.734,1.934,13.443,4.053,20.125,6.369c7.365,2.553,14.698,5.344,21.993,8.389
					c10.922,4.563,21.554,9.708,31.967,15.282c5.206,2.786,10.356,5.68,15.46,8.662c16.628,9.714,32.762,20.365,48.701,31.294
					c4.898,3.357,9.776,6.741,14.645,10.133c2.479,1.726,4.955,3.454,7.43,5.182c24.151,16.901,48.36,33.748,72.511,50.594
					c5.18,3.627,10.359,7.249,15.54,10.873c27.009,3.305,54.044,2.456,79.218-7.273c17.034-6.582,32.305-16.935,48.572-25.232
					c44.979-22.948,101.698-28.037,150.976-17.005C1363.96,408.088,1220.359,332.115,1067.538,339.435z"></path>
				<path style="fill:#E94C1D;" d="M1084.224,1150.219c-13.273-32.257-32.936-61.774-59.928-83.588
					c-24.622-19.899-54.16-32.592-80.968-49.435c-3.991-2.507-7.922-5.111-11.788-7.806
					c-44.096-30.731-79.844-73.382-102.246-122.252c-14.973-5.031-32.799,0.282-42.687,12.567
					c-2.582,3.213-3.546,7.434-3.158,11.538c0.285,3.022,0.566,6.046,0.845,9.073c3.707,40.159,7.113,80.846,14.755,120.492
					c3.585,3.698,4.575,8.954,2.751,13.357c3.954,17.999,8.897,35.744,15.267,53.085c20.858,56.777,57.742,106.941,104.276,145.505
					c42.956,35.598,94.135,61.314,148.53,73.22c17.278,3.782,33.752-8.939,34.171-26.615c0.905-37.831,1.587-76.579-7.646-112.4
					C1093.188,1174.506,1089.144,1162.174,1084.224,1150.219z"></path>
				<path style="fill:#E94C1D;" d="M1653.077,465.669c-52.832,15.375-103.371,40.564-148.953,73.058
					c-18.046,20.718-34.837,42.473-50.429,65.099c-7.359,10.686-14.613,22.08-16.086,34.947
					c-1.524,12.867,4.581,27.533,16.85,31.731c-19.954,14.23-31.295,39.692-28.352,64.008c2.888,24.315,19.844,46.452,42.58,55.557
					c-24.805-7.034-49.724,25.352-48.635,51.141c1.148,25.734,15.377,48.96,21.482,73.985c3.872,15.812,4.417,31.839,2.998,47.926
					v0.055c-1.959,22.842-7.794,45.794-13.574,68.42c24.155,101.138,13.084,210.073,43.944,310.008
					c53.976,174.742,212.523,299.541,381.81,368.836c-35.926-75.02-30.256-169.558-19.68-252.051
					c10.631-82.488,28.352-165.306,19.68-247.963c-15.263-146.716-111.82-273.258-223.589-369.543
					c-14.828-12.758-30.535-25.897-39.254-43.127c-1.967-3.815-1.309-8.559,1.634-11.721
					c33.203-35.494,83.037-63.681,129.815-74.531c48.96-11.448,99.994-19.409,143.174-45.198
					c46.832-28.023,116.401-80.035,158.001-129.76c9.213-10.904,16.957-21.7,22.897-32.059
					C1950.925,437.864,1767.244,432.576,1653.077,465.669z"></path>
			</g>
			<g>
				<path style="fill:#D33F16;" d="M494.029,1214.151c4.115,6.978,7.939,14.084,10.91,21.425c2.433,6.003-6.294,8.135-9.475,3.994
					c-8.776-11.412-15.424-25.197-22.306-38.144c-11.905-7.454-23.658-15.154-35.247-23.092
					c19.745,38.072,42.128,74.188,63.046,111.951c2.559,4.62-3.731,9.793-7.445,5.745c-33.832-36.896-58.147-84.781-75.892-131.963
					c-9.81-7.077-19.496-14.328-29.048-21.751c5.622,21.556,11.385,43.014,20.735,63.914c15.106,33.767,36.138,63.169,55.61,94.358
					c3.44,5.505-4.268,10.98-8.727,6.736c-28.324-26.953-48.286-63.404-63.448-99.076c-10.832-25.495-22.089-54.697-26.114-83.478
					c-14.284-11.751-28.244-23.896-41.857-36.418c0.229,16.803,1.341,33.569,3.685,50.257
					c16.173,115.19,95.436,218.981,200.978,267.134c16.086,7.34,34.872-1.615,39.014-18.81
					c8.864-36.789,17.709-74.522,16.236-111.483c-0.184-4.627-0.478-9.262-0.884-13.892c-13.697-6.383-27.258-13.068-40.666-20.052
					C526.522,1232.839,510.145,1223.716,494.029,1214.151z"></path>
				<path style="fill:#9F3116;" d="M456.191,1307.324c4.459,4.244,12.167-1.231,8.727-6.736
					c-19.472-31.189-40.504-60.591-55.61-94.358c-9.35-20.9-15.113-42.358-20.735-63.914c-7.396-5.747-14.711-11.597-21.943-17.546
					c4.025,28.782,15.282,57.983,26.114,83.478C407.904,1243.92,427.866,1280.371,456.191,1307.324z"></path>
				<path style="fill:#9F3116;" d="M500.957,1290.286c-20.918-37.763-43.301-73.879-63.046-111.951
					c-6.821-4.673-13.585-9.43-20.291-14.267c17.745,47.182,42.059,95.067,75.892,131.963
					C497.227,1300.078,503.516,1294.906,500.957,1290.286z"></path>
				<path style="fill:#9F3116;" d="M504.939,1235.577c-2.97-7.341-6.795-14.447-10.91-21.425
					c-7.007-4.159-13.966-8.401-20.871-12.725c6.881,12.947,13.53,26.732,22.306,38.144
					C498.645,1243.712,507.372,1241.58,504.939,1235.577z"></path>
				<path style="fill:#D33F16;" d="M855.77,1407.661c-0.004-0.028-0.007-0.056-0.01-0.085c-1.221-11.936-1.661-24.654,1.121-36.131
					c-31.343-14.209-58.376-36.059-80.619-62.226c-8.786,1.968-17.244,3.246-25.775,3.729
					C781.758,1349.07,817.292,1379.128,855.77,1407.661z"></path>
				<path style="fill:#D33F16;" d="M788.466,1306.121c21.615,21.395,45.929,38.756,72.482,54.093
					c1.403-2.772,3.092-5.408,5.118-7.868c10.792-13.03,28.132-17.611,45.469-17.337c-7.798-5.89-15.757-11.56-23.935-16.846
					c-16.676-10.809-34.34-19.97-52.584-27.843c-4.016,1.512-8.042,2.996-12.078,4.452
					C810.348,1299.309,799.065,1303.146,788.466,1306.121z"></path>
				<path style="fill:#D33F16;" d="M676.565,1299.328c-13.714-4.802-27.322-9.903-40.812-15.297
					c2.571,11.619,11.549,25.001,19.97,40.402c37.564,68.969,93.939,125.563,166.345,157.618
					c19.025,8.398,38.818,14.997,58.992,19.738c-0.937-6.034-2.399-12.323-4.161-18.742
					C797.331,1440.11,729.193,1372.545,676.565,1299.328z"></path>
				<path style="fill:#D33F16;" d="M872.877,1469.541c-4.491-14.201-9.657-28.611-13.203-41.966
					c-48.877-27.696-91.013-69.381-124.617-114.63c-12.803-0.731-26.277-3.289-41.677-7.995
					C743.958,1370.331,804.841,1422.272,872.877,1469.541z"></path>
				<path style="fill:#9F3116;" d="M876.899,1483.047c0.771,0.415,1.542,0.829,2.315,1.241c4.922,2.618,8.88-4.318,4.334-7.41
					c-3.576-2.434-7.133-4.88-10.671-7.338c-68.036-47.268-128.919-99.21-179.497-164.591c-2.782-0.85-5.626-1.77-8.542-2.762
					c-2.763-0.94-5.519-1.894-8.273-2.859C729.193,1372.545,797.331,1440.11,876.899,1483.047z"></path>
				<path style="fill:#9F3116;" d="M859.674,1427.574c5.164,2.926,10.403,5.697,15.715,8.299c6.65,3.256,11.752-5.62,5.76-9.856
					c-8.589-6.078-17.053-12.182-25.379-18.356c-38.478-28.533-74.011-58.591-105.284-94.713
					c-5.088,0.289-10.204,0.295-15.429-0.004C768.661,1358.193,810.797,1399.878,859.674,1427.574z"></path>
				<path style="fill:#9F3116;" d="M856.881,1371.445c3.032,1.375,6.104,2.68,9.217,3.908c5.745,2.269,9.456-6.976,4.165-9.887
					c-3.135-1.725-6.239-3.475-9.315-5.251c-26.553-15.337-50.868-32.698-72.482-54.093c-4.162,1.169-8.217,2.203-12.205,3.097
					C798.505,1335.386,825.538,1357.236,856.881,1371.445z"></path>
				<path style="fill:#9F3116;" d="M1084.545,407.471c69.667-2.018,141.794,1.685,208.722,22.021
					c4.174,1.269,7.054-5.171,3.017-7.162c-31.851-15.722-66.159-21.429-101.224-24.86c-38.968-3.815-78.77-5.978-117.925-4.779
					c-55.443,1.695-116.73,17-163.174,50.259c6.734,1.934,13.443,4.053,20.125,6.369c16.494-9.03,33.3-17.331,51.474-23.686
					C1017.425,414.489,1050.813,408.447,1084.545,407.471z"></path>
				<path style="fill:#9F3116;" d="M1198.277,442.402c4.44-0.472,4.667-7.026,0-7.092c-67.552-0.964-149.138,3.033-210.232,37.681
					c5.206,2.786,10.356,5.68,15.46,8.662c26.303-11.071,52.685-20.077,81.498-25.418
					C1122.698,449.246,1160.242,446.446,1198.277,442.402z"></path>
				<path style="fill:#9F3116;" d="M1146.582,491.302c-31.676-3.597-67.373,3.089-94.375,21.645
					c4.898,3.357,9.776,6.741,14.645,10.133c24.974-12.249,49.924-20.637,79.73-22.002
					C1152.997,500.784,1152.726,491.999,1146.582,491.302z"></path>
				<path style="fill:#D33F16;" d="M2026.493,536.547c-25.08-3.652-50.814,1.581-75.348,8.178
					c-137.283,36.855-262.192,118.421-351.17,229.261c-3.653,4.581-7.414,9.487-8.233,15.32c-1.038,7.197,2.563,14.121,6.105,20.446
					c78.891,142.354,172.234,286.782,177.086,449.474c0.544,18.536-0.275,37.835-8.943,54.192
					c-20.229,38.109-74.42,43.944-114.876,28.786c-4.062-1.526-8.031-3.196-11.913-4.995c2.289,4.66,4.554,9.338,6.779,14.044
					c3.018,6.383-5.38,14.338-10.486,8.092c-10.581-12.937-20.102-26.901-28.755-41.575
					c-52.905-39.49-86.065-105.867-109.32-169.713c-21.153-58.173-33.529-117.929-50.595-177.195
					c-0.764-2.618-1.528-5.181-2.292-7.685c-1.959,22.842-7.794,45.794-13.574,68.42c24.155,101.138,13.084,210.073,43.944,310.008
					c53.976,174.742,212.523,299.541,381.81,368.836c-35.926-75.02-30.256-169.558-19.68-252.051
					c10.631-82.488,28.352-165.306,19.68-247.963c-15.263-146.716-111.82-273.258-223.589-369.543
					c-14.828-12.758-30.535-25.897-39.254-43.127c-1.967-3.815-1.309-8.559,1.634-11.721
					c33.203-35.494,83.037-63.681,129.815-74.531c48.96-11.448,99.994-19.409,143.174-45.198
					C1915.323,638.284,1984.892,586.271,2026.493,536.547z"></path>
				<path style="fill:#9F3116;" d="M1645.98,1351.253c-2.226-4.706-4.491-9.384-6.779-14.044
					c-15.97-32.513-33.132-64.142-46.632-98.019c-14.852-37.259-27.541-75.408-39.25-113.756
					c-23.089-75.63-41.202-153.096-72.061-226.077c-3.076-7.281-14.703-2.049-12.61,5.318
					c22.685,79.847,44.371,160.125,68.875,239.443c17.701,57.295,37.698,120.2,69.216,173.651
					c8.654,14.674,18.175,28.638,28.755,41.575C1640.599,1365.591,1648.998,1357.636,1645.98,1351.253z"></path>
				<path style="fill:#9F3116;" d="M1658.395,1130.979c3.864,5.004,12.547,0.255,8.7-5.083
					c-31.753-44.042-62.026-89.299-90.989-135.227c-29.03-46.037-54.423-94.146-82.782-140.532
					c-3.609-5.899-11.803-0.754-9.087,5.31C1528.314,953.852,1592.729,1045.967,1658.395,1130.979z"></path>
				<path style="fill:#9F3116;" d="M1556.74,858.604c4.326,3.039,8.253-3.311,5.29-6.856c-12.983-15.547-28.418-29.07-43.932-42.04
					c-5.408-4.52-12.979,2.682-7.861,7.861C1524.736,832.245,1539.831,846.721,1556.74,858.604z"></path>
				<path style="fill:#9F3116;" d="M1548.894,726.527c-13.903-4.169-30.687-0.641-43.901,4.336
					c-5.819,2.193-3.566,10.34,2.559,9.284c13.347-2.302,26.58-1.177,39.845-2.555
					C1553.475,736.959,1555.333,728.457,1548.894,726.527z"></path>
				<path style="fill:#9F3116;" d="M1502.254,696.58c46.178-22.464,91.2-47.081,137.844-68.646
					c48.356-22.354,98.002-41.214,147.104-61.747c5.274-2.205,3.456-10.434-2.442-8.85c-49.889,13.396-98.555,33.314-145.497,54.722
					c-48.725,22.221-97.239,46.638-141.191,77.367C1493.704,692.481,1497.431,698.926,1502.254,696.58z"></path>
				<path style="fill:#9F3116;" d="M1507.09,625.568c24.597-16.985,47.592-36.195,72.045-53.416
					c24.555-17.293,50.567-32.357,75.247-49.411c5.678-3.925,0.831-12.148-5.388-9.215
					c-52.361,24.705-107.172,63.234-147.104,105.301C1498.668,622.219,1502.928,628.442,1507.09,625.568z"></path>
				<path style="fill:#9F3116;" d="M859.212,1060.623c-9.185-22.102-17.136-44.704-24.535-67.457
					c-6.779-20.836-11.169-43.448-22.556-62.321c-1.764-2.923-6.728-1.813-6.607,1.789c0.803,23.974,10.686,47.741,18.128,70.352
					c7.661,23.277,16,46.335,25.605,68.883c19.613,46.045,44.289,89.86,80.235,125.073c5.114,5.005,12.289-2.445,7.759-7.759
					C904.36,1150.647,878.625,1107.346,859.212,1060.623z"></path>
				<path style="fill:#9F3116;" d="M922.378,1088.336c-22.568-31.346-40.582-65.563-62.746-97.054
					c-3.237-4.597-12.415-1.904-9.887,4.17c14.789,35.558,38.423,68.62,60.771,99.821c22.403,31.279,46.307,64.259,75.913,89.076
					c3.452,2.896,9.742-0.913,6.74-5.2C971.189,1147.755,944.808,1119.49,922.378,1088.336z"></path>
				<path style="fill:#9F3116;" d="M976.009,1112.62c4.534,3.997,10.063-1.912,6.489-6.493
					c-24.245-31.048-54.055-58.455-81.293-86.866c-4.436-4.628-11.345,2.34-7.018,7.019
					C920.904,1055.164,946.466,1086.584,976.009,1112.62z"></path>
			</g>
			<g>
				<path style="fill:#C2E1DC;" d="M556.768,617.401c-3.97-2.59-8.329-4.381-12.889-5.495c8.653,7.46,15.215,17.359,18.555,28.29
					c0.674,2.171,1.203,4.432,1.529,6.721c0.29,2.026,0.38,4.079,0.231,6.133c-0.995,12.297-11.944,22.538-24.151,24.417
					c-10.389,1.615-21.071-2.142-29.198-8.892c-1.438-1.173-2.79-2.465-4.052-3.815c-8.394-9.04-12.884-21.188-14.495-33.456
					c-0.414-3.076-0.599-6.012-0.515-8.769c-14.828,9.328-26.757,23.322-33.099,39.628c-10.957,28.187-4.745,53.267,9.706,74.639
					c8.939,7.306,18.916,13.03,30.037,15.975c33.043,8.613,69.843-11.778,83.856-42.908c3.734-8.352,5.951-17.187,6.773-26.183
					c0.247-2.693,0.37-5.399,0.37-8.112v-0.165c-3.001-13.684-8.178-26.824-15.432-38.764
					C569.468,629.234,564.017,622.145,556.768,617.401z"></path>
			</g>
			<g>
				<path style="fill:#B67114;" d="M492.297,631.305c1.611,12.267,6.101,24.415,14.495,33.456c1.262,1.35,2.614,2.641,4.052,3.815
					c-1.556-8.188-2.32-16.699,0.172-24.594c0.896-2.796,2.302-5.486,4.1-7.851c-0.02-0.084-0.039-0.167-0.058-0.251
					c-0.529,0.071-1.057,0.141-1.585,0.212c-1.716,0.065-3.319-0.294-4.804-1.074c-1.548-0.504-2.884-1.364-4.012-2.578
					c-1.219-1.13-2.077-2.469-2.579-4.015c-0.78-1.485-1.141-3.088-1.074-4.804l-0.003-0.071c0.008-2.251,0.576-4.35,1.7-6.296
					c0.651-0.842,1.301-1.683,1.952-2.525c1.556-1.546,3.393-2.616,5.506-3.207l3.315-0.447c1.717-0.065,3.319,0.294,4.808,1.076
					c1.544,0.501,2.884,1.362,4.013,2.578c0.971,0.903,1.716,1.94,2.232,3.108c1.6,0.247,3.413,0.788,5.461,1.673
					c4.932,2.132,8.895,6.177,11.253,10.996c2.632,1.366,5.15,3.057,7.577,4.731c5.223,3.639,10.478,7.365,15.146,11.68
					c-0.325-2.289-0.855-4.55-1.529-6.721c-3.34-10.931-9.902-20.831-18.555-28.29c-3.287-2.833-6.873-5.314-10.702-7.366
					c-5.49-2.935-11.623-5.076-17.873-4.812c-16.699,0.702-23.129,9.732-23.522,22.808
					C491.699,625.292,491.883,628.228,492.297,631.305z"></path>
				<path style="fill:#382613;" d="M534.596,655.111c5-1.211,8.08-6.46,8.821-11.554c0.647-4.448-0.203-9.02-2.177-13.051
					c-2.358-4.819-6.321-8.864-11.253-10.996c-2.048-0.885-3.861-1.426-5.461-1.673c0.13,0.294,0.246,0.596,0.347,0.906
					c0.783,1.487,1.14,3.088,1.074,4.806l-0.004,0.071c-0.004,2.251-0.572,4.35-1.701,6.295c-0.651,0.841-1.301,1.682-1.952,2.524
					c-1.556,1.546-3.39,2.614-5.502,3.207c-0.577,0.076-1.154,0.155-1.73,0.232c0.019,0.084,0.038,0.168,0.058,0.251
					c1.196,5.161,3.472,10.177,6.104,13.189C524.583,653.167,529.627,656.314,534.596,655.111z"></path>
				<path style="fill:#FAC296;" d="M541.837,656.01c-3.589,3.264-8.221,4.01-12.916,4.309c-3.554,0.225-6.411,4.994-3.193,7.71
					c6.235,5.265,14.084,4.346,20.675,0.047c5.372-3.503,12.379-11.055,10.282-17.979c-0.623-2.052-2.865-3.519-5.016-2.845
					C547.198,648.654,545.157,652.991,541.837,656.01z"></path>
				<path style="fill:#FFFFFF;" d="M522.291,632.439c0.651-0.842,1.301-1.683,1.952-2.524c1.128-1.945,1.697-4.044,1.701-6.295
					l0.004-0.071c0.067-1.718-0.29-3.319-1.074-4.806c-0.101-0.31-0.217-0.612-0.347-0.906c-0.516-1.169-1.261-2.205-2.232-3.108
					c-1.128-1.217-2.469-2.077-4.013-2.578c-1.489-0.782-3.092-1.14-4.808-1.076l-3.315,0.447c-2.113,0.592-3.95,1.661-5.506,3.207
					c-0.651,0.842-1.301,1.683-1.952,2.525c-1.125,1.946-1.693,4.044-1.7,6.296l0.003,0.071c-0.067,1.716,0.294,3.319,1.074,4.804
					c0.501,1.546,1.36,2.884,2.579,4.015c1.128,1.215,2.465,2.075,4.012,2.578c1.485,0.78,3.088,1.139,4.804,1.074
					c0.528-0.071,1.056-0.142,1.585-0.212c0.576-0.078,1.153-0.156,1.73-0.232C518.901,635.053,520.735,633.985,522.291,632.439z"></path>
			</g>
		</g>
	</g>
</g>
</svg>