<?xml version="1.0" standalone="no"?><!DOCTYPE svg PUBLIC "-//W3C//DTD SVG 1.1//EN" "http://www.w3.org/Graphics/SVG/1.1/DTD/svg11.dtd"><svg t="1779964787535" class="icon" viewBox="0 0 1064 1024" version="1.1" xmlns="http://www.w3.org/2000/svg" p-id="18359" xmlns:xlink="http://www.w3.org/1999/xlink" width="207.8125" height="200"><path d="M549.00736 54.272c-1.31072 2.78528-5.67296 7.168-17.48992 7.168-11.776 0-16.13824-4.38272-17.44896-7.168 2.06848 4.38272 4.46464 12.57472 6.63552 23.83872l58.08128 302.01856c9.48224 49.37728 56.77056 83.82464 106.76224 77.57824l305.19296-38.0928c11.38688-1.4336 19.92704-1.67936 24.69888-1.06496-3.03104-0.38912-8.56064-3.19488-12.20608-14.41792-3.62496-11.22304-0.8192-16.71168 1.41312-18.80064-3.52256 3.29728-10.56768 8.11008-20.62336 13.66016L714.752 547.55328c-44.032 24.28928-62.17728 79.91296-40.79616 125.52192l130.53952 278.46656c4.87424 10.40384 7.76192 18.432 8.64256 23.18336-0.57344-3.01056 0.38912-9.13408 9.95328-16.0768 9.54368-6.92224 15.62624-5.9392 18.30912-4.46464-4.23936-2.31424-10.97728-7.55712-19.3536-15.40096L597.54496 728.59648c-36.72064-34.36544-95.232-34.42688-131.9936 0L241.0496 938.8032c-8.3968 7.86432-15.1552 13.1072-19.37408 15.40096 2.70336-1.47456 8.8064-2.4576 18.37056 4.5056 9.5232 6.92224 10.46528 13.02528 9.91232 16.01536 0.88064-4.73088 3.76832-12.77952 8.64256-23.1424L389.12 673.05472c21.34016-45.52704 3.33824-101.19168-40.77568-125.5424L79.0528 399.01184c-10.0352-5.55008-17.1008-10.36288-20.60288-13.68064 2.21184 2.10944 5.05856 7.63904 1.39264 18.8416-3.64544 11.22304-9.17504 14.00832-12.1856 14.39744 4.77184-0.6144 13.312-0.34816 24.69888 1.06496l305.17248 38.0928c49.90976 6.22592 97.28-28.09856 106.78272-77.57824l58.08128-302.01856c2.17088-11.264 4.54656-19.456 6.61504-23.81824z m-125.0304 314.24512c-3.39968 17.67424-21.03296 30.45376-38.83008 28.22144l-305.17248-38.0928c-89.6-11.18208-109.69088 50.50368-30.59712 94.12608l269.29152 148.5824c15.74912 8.68352 22.44608 29.3888 14.82752 45.64992L202.9568 925.47072c-38.2976 81.73568 14.1312 119.9104 80.0768 58.1632l224.50176-210.18624c13.12768-12.288 34.89792-12.26752 48.00512 0L780.04224 983.6544c65.90464 61.70624 118.41536 23.63392 80.0768-58.1632l-130.51904-278.46656c-7.63904-16.2816-0.90112-36.98688 14.82752-45.6704l269.27104-148.56192c79.0528-43.60192 59.06432-105.30816-30.57664-94.12608l-305.17248 38.0928c-17.85856 2.23232-35.4304-10.58816-38.83008-28.22144L581.0176 66.51904c-17.05984-88.6784-81.92-88.71936-98.97984 0l-58.08128 301.99808z" fill="#F48809" p-id="18360"></path><path d="M513.2288 77.84448c10.6496-55.48032 27.97568-55.43936 38.62528 0l58.08128 302.01856c6.43072 33.42336 38.8096 57.1392 72.8064 52.89984l305.17248-38.0928c56.07424-7.00416 61.37856 9.48224 11.93984 36.74112L730.58304 579.9936c-29.81888 16.44544-42.35264 54.5792-27.81184 85.6064l130.53952 278.46656c23.9616 51.15904 9.9328 61.29664-31.27296 22.71232L577.536 756.5312c-24.84224-23.26528-64.98304-23.40864-89.98912 0L263.04512 966.7584c-41.24672 38.6048-55.23456 28.40576-31.27296-22.7328l130.53952-278.46656c14.4384-30.8224 2.17088-69.0176-27.81184-85.58592L65.20832 431.4112c-49.4592-27.27936-44.07296-43.7248 11.93984-36.74112l305.19296 38.0928c33.792 4.21888 66.33472-19.2512 72.8064-52.89984l58.0608-302.01856z" fill="#FFA81C" p-id="18361"></path><path d="M532.48 552.7552V40.96m4.77184 515.2768L1024 398.04928m-488.57088 163.75808l300.83072 414.06464M529.53088 561.82784L228.70016 975.89248m299.008-419.67616L40.96 398.06976" fill="" p-id="18362"></path><path d="M532.48 471.04a30.72 30.72 0 1 0 0-61.44 30.72 30.72 0 0 0 0 61.44z m0-98.304a22.528 22.528 0 1 0 0-45.056 22.528 22.528 0 0 0 0 45.056z m0-90.112a18.432 18.432 0 1 0 0-36.864 18.432 18.432 0 0 0 0 36.864zM532.48 143.36a10.24 10.24 0 1 0 0-20.48 10.24 10.24 0 0 0 0 20.48z m0 67.584A13.312 13.312 0 1 0 532.48 184.32a13.312 13.312 0 0 0 0 26.624z m0-112.64a8.192 8.192 0 1 0 0-16.384 8.192 8.192 0 0 0 0 16.384z m87.6544 436.4288a30.72 30.72 0 1 0 58.42944-19.00544 30.72 30.72 0 0 0-58.42944 18.98496z m-33.4848 103.0144a30.72 30.72 0 1 0 36.10624 49.72544 30.72 30.72 0 0 0-36.10624-49.70496z m-108.3392 0a30.72 30.72 0 1 0-36.10624 49.72544 30.72 30.72 0 0 0 36.10624-49.70496z m-33.4848-103.0144a30.72 30.72 0 1 0-58.42944-19.00544 30.72 30.72 0 0 0 58.42944 18.98496z m268.8-30.39232a22.528 22.528 0 1 0 42.84416-13.9264 22.528 22.528 0 0 0-42.84416 13.9264z m-69.20192 212.95104a22.528 22.528 0 1 0 26.50112 36.4544 22.528 22.528 0 0 0-26.50112-36.4544z m-223.88736 0a22.528 22.528 0 1 0-26.50112 36.4544 22.528 22.528 0 0 0 26.50112-36.4544z m-69.20192-212.95104a22.528 22.528 0 1 0-42.84416-13.9264 22.528 22.528 0 0 0 42.84416 13.9264z m447.97952-27.8528a18.432 18.432 0 1 0 35.06176-11.38688 18.432 18.432 0 0 0-35.06176 11.38688z m-101.90848 313.71264a18.432 18.432 0 1 0 21.66784 29.81888 18.432 18.432 0 0 0-21.66784-29.81888z m-329.85088 0a18.432 18.432 0 1 0-21.66784 29.81888 18.432 18.432 0 0 0 21.66784-29.81888z m-101.90848-313.71264a18.432 18.432 0 1 0-35.06176-11.38688 18.432 18.432 0 0 0 35.06176 11.38688z m666.13248-43.008a10.24 10.24 0 1 0 19.456-6.3488 10.24 10.24 0 0 0-19.456 6.3488zM779.264 902.84032a10.24 10.24 0 1 0 12.02176 16.56832 10.24 10.24 0 0 0-12.02176-16.5888z m-493.568 0a10.24 10.24 0 1 0-12.02176 16.56832 10.24 10.24 0 0 0 12.02176-16.5888z m-152.51456-469.4016a10.24 10.24 0 1 0-19.456-6.32832 10.24 10.24 0 0 0 19.456 6.3488z m734.3104 20.8896a13.312 13.312 0 1 0 25.33376-8.23296 13.312 13.312 0 0 0-25.33376 8.23296z m-127.95904 393.8304a13.312 13.312 0 1 0 15.64672 21.54496 13.312 13.312 0 0 0-15.64672-21.54496z m-414.1056 0a13.312 13.312 0 1 0-15.64672 21.54496 13.312 13.312 0 0 0 15.64672-21.54496z m-127.95904-393.8304a13.312 13.312 0 1 0-25.33376-8.23296 13.312 13.312 0 0 0 25.33376 8.23296z m777.15456-34.816a8.192 8.192 0 1 0 15.5648-5.05856 8.192 8.192 0 0 0-15.5648 5.05856z m-168.87808 519.7824a8.192 8.192 0 1 0 9.6256 13.25056 8.192 8.192 0 0 0-9.6256-13.25056z m-546.52928 0a8.192 8.192 0 1 0-9.6256 13.25056 8.192 8.192 0 0 0 9.6256-13.25056z m-168.87808-519.7824a8.192 8.192 0 1 0-15.5648-5.05856 8.192 8.192 0 0 0 15.5648 5.05856z" fill="#FFFFFF" p-id="18363"></path></svg>