<svg t="1779964579292" class="icon" viewBox="0 0 1024 1024" version="1.1" xmlns="http://www.w3.org/2000/svg" p-id="16951" xmlns:xlink="http://www.w3.org/1999/xlink" width="200" height="200" transform="matrix(-1,0,0,1,0,0)"><path d="M775.12 448.48l10.48-101.36-30.8-139.68s22.56-24.8 35.28-30.8 27.04-9.36 27.04-9.36 33.04-5.6 54.8-6.4c21.76-0.72 46.56 3.04 45.84-7.52-0.72-10.48-98.32-27.04-151.68-28.56-53.28-1.52-231.28 6.72-359.68 69.04S244.24 311.84 244.24 311.84l-42.8 84.88-42.8 17.28s-39.04 65.36-51.84 102.88-26.24 66.8-33.04 74.32c-6.72 7.52-40.56 33.76-40.56 39.04s34.56 24.8 34.56 30c0 5.28-27.76 12-27.76 18s48.8 60.8 122.4 116.4 164.4 96.08 231.28 112.64c66.8 16.48 156.16 24 159.92 21.04 3.76-3.04-69.84-60.8-69.84-60.8s70.56 30 114.88 35.28c44.32 5.28 51.28 5.6 94.64 3.92 43.36-1.68 113.36-63.28 113.36-63.28l37.52-123.92-16.88-80.88s-22.72-36.4-23.68-43.92c-0.96-7.52 9.36-1.76 18.56 0.56 11.28 2.8 37.52 21.04 54.08 38.32 10.16 10.64 41.44 44 54.4 58 6.16 6.72 17.2 4.16 19.92-4.48l12.24-70.4-6.72-222.24-25.44-87.44c-2.88-7.52-13.04-8.88-17.76-2.24-18 25.36-57.2 85.44-68.72 100.24-15.76 20.24-42.72 50.88-58 56.32-9.04 3.2-12.4 1.68-12.4 1.68l1.36-14.56z" fill="#FFB800" p-id="16952"></path><path d="M682 905.04s115.52-22.8 135.68-134c15.76-86.72-16.88-176.8-16.88-176.8s1.2-12.32 14.64 4.48c24.8 30.96 70.96 133.44 11.84 237.6-50 88.08-141.92 72.08-147.52 72.08s2.24-3.36 2.24-3.36zM817.12 167.28s-70.4-5.04-73.2 59.68c-2.24 51.28 25.92 87.28 24.8 142.48-1.12 55.2-7.2 95.12 5.04 93.44 8.48-1.12 27.04-27.6 27.6-84.48s-37.68-115.68-36.64-152.08c1.2-37.6 52.4-59.04 52.4-59.04z" fill="#B5D219" p-id="16953"></path><path d="M919.68 300.24c-11.76 4.64 0.56 40.56 4.48 51.84s15.52 72.64 16.32 162.72c0.56 64.72-5.6 127.84-8.48 141.92s-9.04 35.44 6.16 38.88 30.32-28.16 38.88-81.68c6.72-42.24 6.16-80.56 6.72-120.48 1.2-84-19.12-138-26.48-156-7.2-18.08-21.84-43.44-37.6-37.2zM621.92 314.08c-13.52 1.52 8.96 51.36 15.04 87.84 9.76 58.56 9.76 96.08 8.48 144.32-1.2 44.72-12.24 122.16-47.28 188.08-7.68 14.48-12.4 27.04-1.68 28.16 21.36 2.24 61.6-49.76 82.24-105.84 23.2-63.12 27.6-119.36 19.12-186.4-6.8-53.92-19.36-89.52-27.76-108.08-7.68-16.8-24.88-50.64-48.16-48.08zM434.8 211.84c-20.8 5.84 8.48 48.96 21.2 82 19.92 51.6 61.2 144.88 62.32 243.44S489.04 708.32 480 730.8c-9.36 23.44-23.84 57.04-28.32 66.64-4.48 9.6-4.32 20.64 0.56 22 11.28 3.04 30.24-9.92 49.52-29.28 12.8-12.8 36.8-38.32 64.4-117.68 15.12-43.52 29.44-119.6 18.96-203.68-12.48-99.84-56.8-167.04-72.64-191.12-23.44-35.68-53.44-72.64-77.68-65.84z" fill="#2C2F30" p-id="16954"></path><path d="M304.16 307.52c-16.88 4.64 30.96 54.24 53.52 111.68s29.44 105.28 32.32 155.44c2.8 50.08-4.16 103.6-9.04 136.64-3.92 26.8-18.24 75.44-15.36 84.48 2.8 9.04 19.52 9.36 31.92-10.88 12.4-20.24 39.04-64.56 55.36-160.32 7.6-44.48 3.92-148.8-44.48-223.52-41.76-64.4-84.56-98.96-104.24-93.52zM158.72 414s31.52-45.04 45.04-61.6c13.52-16.48 50.32-54.08 50.32-54.08s1.52 107.36 5.28 135.92c3.76 28.56 16.48 91.6 30.8 124.64 7.44 17.2 21.68 59.2 19.52 76.56-3.76 30.8-38.4 77.04-53.28 78.8-31.52 3.76-62.32-56.16-76.56-95.36-20.4-55.52-36.16-156.88-21.12-204.88z" fill="#2C2F30" p-id="16955"></path><path d="M273.2 604.32c0.8 21.52-16.72 35.28-35.28 35.28s-32.64-17.76-32.64-36.4 15.76-32.64 34.32-32.64 32.8 13.44 33.6 33.76z" fill="#FFB805" p-id="16956"></path><path d="M240.56 603.52c-4.88 5.6-18.56 5.52-23.44-0.24-4.88-5.76-4.24-17.44 2.8-23.36 7.04-6 16.88-7.12 22.72 1.76 4.08 6.32 3.92 14.88-2.08 21.84z" fill="#FFEDC7" p-id="16957"></path></svg>