<?xml version="1.0" encoding="utf-8"?>
<!-- Generator: Adobe Illustrator 27.5.0, SVG Export Plug-In . SVG Version: 6.00 Build 0)  -->
<svg version="1.1" id="Capa_2" xmlns="http://www.w3.org/2000/svg" xmlns:xlink="http://www.w3.org/1999/xlink" x="0px" y="0px"
	 viewBox="0 0 2372 1898" style="enable-background:new 0 0 2372 1898;" xml:space="preserve">
<path style="fill:#A8C7CE;" d="M2043.507,700.276c-0.731,1.356-2.422,1.863-3.778,1.132c-1.357-0.731-1.863-2.423-1.132-3.779
	c37.727-70.018,60.963-147.821,67.813-227.061l0.001,0c0.084-0.987,0.7-1.765,1.518-2.191
	c-20.294-18.94-45.677-30.937-73.497-33.305c-35.477-3.019-70.363,7.543-100.295,26.277
	c-62.971,39.414-104.834,103.853-150.55,160.624c-25.951,32.226-56.238,59.728-87.322,86.886
	c-32.208,28.141-65.514,56.17-90.205,91.42c-24.169,34.507-43.737,72.126-69.639,105.437
	c-25.122,32.308-55.416,62.023-85.775,89.374c-11.908,10.729-24.3,21.153-37.135,31.01c-5.266,27.158-10.589,54.378-19.4,80.32
	c-8.424,24.801-19.824,47.941-33.484,69.722c32.808-1.169,65.574-4.376,97.823-9.258c59.705-9.017,118.811-23.746,175.86-43.979
	c62.297-22.094,122.045-50.906,177.27-86.557c43.905-28.345,85.016-60.878,122.138-97.901
	c86.601-86.328,144.516-193.602,178.055-310.474c8.949-31.206,21.439-78.197,24.178-123.778
	c-6.609-11.704-14.691-22.485-24.098-31.997C2104.81,551.808,2081.414,629.919,2043.507,700.276z"/>
<path style="fill:#92B8BF;" d="M2136.343,495.671c0.088-2.696,0.139-5.384,0.148-8.059c0.001-0.141-0.003-0.28-0.003-0.42
	c0.006-2.603-0.023-5.195-0.098-7.771c-0.006-0.219-0.021-0.436-0.027-0.655c-0.079-2.491-0.188-4.97-0.346-7.428
	c-0.021-0.323-0.054-0.64-0.076-0.963c-0.161-2.351-0.349-4.69-0.588-7.005c-0.043-0.416-0.104-0.824-0.149-1.238
	c-0.242-2.211-0.506-4.41-0.824-6.583c-0.075-0.514-0.175-1.015-0.254-1.526c-0.321-2.059-0.656-4.111-1.049-6.131
	c-0.117-0.601-0.264-1.185-0.388-1.782c-0.396-1.909-0.798-3.815-1.263-5.683c-0.171-0.687-0.379-1.351-0.559-2.033
	c-0.465-1.753-0.929-3.506-1.459-5.219c-0.237-0.765-0.517-1.501-0.767-2.258c-0.527-1.596-1.048-3.197-1.636-4.753
	c-0.321-0.848-0.693-1.66-1.032-2.495c-0.579-1.427-1.142-2.864-1.777-4.253c-0.416-0.911-0.892-1.78-1.333-2.674
	c-0.625-1.27-1.228-2.556-1.903-3.79c-0.528-0.965-1.125-1.882-1.684-2.825c-0.66-1.111-1.29-2.245-1.994-3.323
	c-0.679-1.039-1.434-2.022-2.155-3.03c-0.663-0.927-1.288-1.883-1.988-2.782c-0.928-1.193-1.942-2.319-2.935-3.462
	c-0.57-0.656-1.095-1.346-1.688-1.985c-1.625-1.754-3.334-3.444-5.129-5.064c-90.5-16.054-277.598,82.574-277.598,82.574
	l-224.557,269.948c-45.857,67.326-97.949,131.2-160.405,183.349c-0.349,0.292-0.71,0.57-1.06,0.861
	c-13.102,31.13-19.677,64.943-26.259,98.89c12.835-9.857,25.227-20.282,37.135-31.01c30.359-27.351,60.653-57.066,85.775-89.374
	c25.902-33.311,45.47-70.93,69.639-105.437c24.691-35.251,57.996-63.279,90.205-91.42c31.084-27.159,61.371-54.661,87.322-86.886
	c45.716-56.771,87.579-121.21,150.55-160.624c29.932-18.734,64.818-29.296,100.295-26.277c27.82,2.368,53.203,14.365,73.497,33.305
	c0.455-0.237,0.953-0.394,1.5-0.347c1.534,0.133,2.671,1.484,2.539,3.019c-0.033,0.384-0.081,0.766-0.115,1.151
	c9.407,9.512,17.489,20.292,24.098,31.997l0,0c0-0.003,0-0.005,0-0.008c0.167-2.777,0.297-5.548,0.389-8.311
	C2136.341,495.809,2136.341,495.74,2136.343,495.671z"/>
<path style="fill:#302F5B;" d="M2073.145,373.002c-32.62-11.205-68.484-3.483-101.407,6.634
	c-71.227,21.937-138.099,54.62-203.436,90.76c-9.899,5.476-19.753,11.05-29.592,16.659c-40.667,23.185-80.907,47.273-121.396,70.512
	c-35.898,20.625-72.536,40.749-109.974,58.995c-22.463,10.947-45.215,21.219-68.269,30.517
	c-61.476,24.795-125.102,42.665-191.132,47.971c-15.073,1.207-30.125,1.751-45.156,1.731c-7.516-0.009-15.027-0.16-22.534-0.439
	c-15.012-0.559-30.006-1.632-44.983-3.121c-22.466-2.233-44.893-5.401-67.29-9.171c-29.438-4.968-58.813-10.982-88.124-17.272
	c-14.655-3.144-29.295-6.358-43.917-9.544c-14.623-3.186-29.228-6.344-43.818-9.379c-3.671-0.763-7.349-1.519-11.034-2.265
	c-3.142-0.637-6.291-1.261-9.442-1.883c-0.327-0.065-0.654-0.131-0.983-0.196c-3.913-0.77-7.832-1.529-11.758-2.274
	c-2.763-0.523-5.532-1.032-8.301-1.542c-0.491-0.09-0.98-0.183-1.471-0.274c-4.174-0.764-8.354-1.515-12.539-2.242
	c-2.462-0.428-4.929-0.839-7.395-1.253c-0.545-0.092-1.09-0.186-1.636-0.277c-6.645-1.107-13.302-2.157-19.968-3.152
	c-0.546-0.081-1.091-0.165-1.637-0.246c-1.004-0.148-2.008-0.307-3.013-0.452c-5.685-0.824-11.377-1.587-17.072-2.315
	c-0.513-0.066-1.025-0.133-1.538-0.197c-1.301-0.165-2.601-0.341-3.902-0.5c-5.452-0.666-10.908-1.266-16.363-1.833
	c-0.442-0.046-0.885-0.092-1.328-0.137c-1.618-0.166-3.236-0.345-4.854-0.501c-5.22-0.504-10.44-0.939-15.658-1.34
	c-0.344-0.027-0.688-0.051-1.032-0.078c-6.952-0.526-13.9-0.957-20.844-1.284c-0.186-0.009-0.373-0.017-0.559-0.025
	c-7.093-0.328-14.18-0.549-21.256-0.65c-0.013,0-0.025,0-0.038,0c-13.952-0.198-27.868,0.048-41.71,0.851
	c-11.144,0.646-22.242,1.642-33.279,3.025c-1.377,0.172-2.748,0.381-4.123,0.567c31.326-37.585,47.121-75.959,55.972-138.417
	c6.756-47.68-11.638-132.24-44.51-174.175c-2.635-0.045-5.426,0.938-6.82,3.149c-10.561,16.762-9.58,36.175-10.745,55.21
	c-0.581,9.473-1.553,19.315-5.965,27.878c-3.776,7.331-10.036,11.518-17.062,15.421c-7.151,3.974-14.513,7.677-19.968,13.965
	c-6.164,7.105-8.588,16.841-9.299,26.038c-0.792,10.244,0.731,20.555-0.403,30.768c-1.25,11.26-6.714,21.103-15.786,27.918
	c-8.158,6.128-17.014,11.326-23.154,19.736c-4.922,6.741-6.932,14.624-9.293,22.472c-8.917,29.642,65.138,77.112,65.138,77.112
	c-69.953-3.798-113.47-38.436-119.087-32.51c-6.502,6.86-10.755,15.296-16.064,23.023c-11.786,17.155-32.216,18.958-50.567,25.127
	c-11.595,3.899-22.301,10.018-30.079,19.627c-7.083,8.747-11.196,19.945-19.328,27.854c-7.081,6.885-17.403,10.721-25.763,15.779
	c-8.378,5.069-16.174,11.279-20.267,20.409c-1.44,3.212-0.356,7.822,2.616,9.86c28.936,19.847,68.429,17.557,101.735,14.536
	c16.997-1.542,33.83-3.642,50.481-6.58c0.815-0.289,1.704-0.546,2.504-0.841c53.851-19.898,94.281-42.297,122.576-85.461
	c1.931-2.946,3.805-5.994,5.624-9.139c5.861,1.562,11.723,3.271,17.579,5.102c53.104,16.591,105.106,43.683,139.579,73.539
	c38.963,33.763,75.061,70.576,110.678,107.906c48.246,50.513,101.917,97.765,162.072,132.942
	c64.46,37.714,137.972,58.986,212.197,50.745c8.432-0.938,16.76-2.275,25.023-3.843c-8.371,4.657-16.245,9.883-22.06,17.409
	c-11.591,15.001-12.355,35.464-19.215,53.149c-0.11,0.284-0.192,0.582-0.306,0.865c-10.132,25.244-31.465,41.485-55.569,55.579
	c-38.419,22.466-83.894,39.465-102.4,78.674c-14.724,31.196-8.393,69.958-26.255,99.469c-9.509,15.71-24.926,27.018-35.341,42.143
	c-8.742,12.697-13.629,27.584-18.405,42.242c-12.604,38.685-23.153,86.894-35.757,125.579
	c73.755-54.816,147.509-109.632,221.263-164.448c76.401-56.782,156.031-117.891,205.674-197.048
	c13.66-21.781,25.06-44.921,33.484-69.722c8.811-25.942,14.135-53.162,19.4-80.32c6.582-33.947,13.157-67.76,26.259-98.89
	c0.35-0.291,0.711-0.569,1.06-0.861c62.455-52.149,114.548-116.022,160.405-183.349l224.557-269.948
	c0,0,187.098-98.627,277.598-82.574C2095.204,383.083,2085.238,377.15,2073.145,373.002z"/>
<path style="fill:#202043;" d="M1569.775,1276.443c2.984,34.367,27.969,64.67,27.393,99.162
	c-0.307,18.361-7.934,35.892-9.318,54.204c-1.161,15.371,2.111,30.695,5.364,45.764c8.586,39.771,23.742,86.735,32.328,126.506
	c36.128-84.494,72.256-168.988,108.384-253.482c42.558-99.531,85.88-205.999,77.652-312.246
	c-55.225,35.652-114.973,64.463-177.27,86.557C1617.352,1174.443,1564.943,1220.785,1569.775,1276.443z"/>
<path style="fill:#A8C7CE;" d="M1207.415,1093.954c0.113-0.283,0.196-0.58,0.306-0.865c-62.66-6.637-123.301-32.031-177.376-63.109
	c-64.628-37.143-121.319-84.211-171.424-139.222c-57.374-62.992-110.45-130.628-180.148-180.827
	c-25.186-18.14-51.404-35.136-79.325-48.687c-5.856-1.83-11.718-3.539-17.579-5.102c-1.818,3.146-3.693,6.193-5.624,9.139
	c202.45,104.902,307.746,357.469,515.6,459.943c19.464,9.602,39.53,17.597,60.001,24.308
	C1175.95,1135.439,1197.283,1119.198,1207.415,1093.954z"/>
<path style="fill:#92B8BF;" d="M858.921,890.759c50.104,55.01,106.796,102.078,171.424,139.222
	c54.075,31.078,114.716,56.472,177.376,63.109c6.86-17.685,7.624-38.147,19.215-53.149c5.816-7.526,13.689-12.751,22.06-17.409
	c-8.263,1.568-16.592,2.906-25.023,3.843c-74.225,8.24-147.737-13.032-212.197-50.745
	c-60.154-35.177-113.826-82.429-162.072-132.942c-35.617-37.33-71.715-74.143-110.678-107.906
	c-34.473-29.855-86.474-56.947-139.579-73.539c27.921,13.552,54.139,30.547,79.325,48.687
	C748.47,760.131,801.546,827.766,858.921,890.759z"/>
<path style="fill:#25264F;" d="M298.949,743.628c-2.971-2.038-4.055-6.648-2.616-9.86c4.093-9.13,11.889-15.34,20.267-20.409
	c8.36-5.058,18.683-8.895,25.763-15.779c8.133-7.908,12.246-19.107,19.328-27.854c7.779-9.609,18.485-15.728,30.079-19.627
	c18.351-6.169,38.781-7.972,50.567-25.127c5.309-7.727,9.562-16.163,16.064-23.023c5.617-5.926,49.134,28.712,119.087,32.51
	c0,0-74.055-47.471-65.138-77.112c2.361-7.848,4.371-15.731,9.293-22.472c6.14-8.41,14.997-13.607,23.154-19.736
	c9.072-6.816,14.536-16.658,15.786-27.918c1.133-10.213-0.389-20.524,0.403-30.768c0.711-9.197,3.136-18.933,9.299-26.038
	c5.455-6.288,12.816-9.991,19.968-13.965c7.026-3.904,13.285-8.09,17.062-15.421c4.412-8.564,5.384-18.405,5.965-27.878
	c1.165-19.035,0.184-38.448,10.745-55.21c1.394-2.212,4.185-3.194,6.82-3.149h0.001c-0.002-0.002-0.003-0.003-0.004-0.004
	c-3.073-3.92-6.278-7.448-9.594-10.565c-0.343-0.323-0.69-0.628-1.036-0.942c-1.266-1.147-2.55-2.218-3.849-3.232
	c-0.431-0.336-0.858-0.684-1.292-1.005c-1.644-1.217-3.307-2.355-5.001-3.347c-0.004-0.002-0.007-0.005-0.011-0.007
	c-0.548-0.321-1.124-0.436-1.673-0.39c-0.548,0.046-1.068,0.253-1.5,0.577c-0.866,0.649-1.389,1.767-1.108,3.005
	c2.092,9.227,3.566,20.512,3.735,32.341c0.204,14.195-1.472,29.175-6.213,42.325c-1.308,3.627-2.913,7.068-4.712,10.362
	c-0.813,1.486-1.685,2.923-2.605,4.325c-3.198,4.877-6.99,9.274-11.614,12.86c-8.964,6.954-19.377,13.539-27.568,21.164
	c-0.104,0.096-0.214,0.191-0.317,0.288c-6.387,6.007-11.373,12.67-13.174,20.674c-1.662,7.385-0.215,14.87,0.282,22.305
	c0.099,1.487,0.161,2.971,0.152,4.453c-0.018,2.963-0.317,5.913-1.158,8.84c-1.066,3.711-2.623,7.442-4.732,10.889
	c-1.054,1.724-2.247,3.376-3.585,4.92c-0.058,0.067-0.135,0.119-0.194,0.185c-1.292,1.467-2.699,2.849-4.265,4.08
	c-3.17,2.493-6.177,4.86-9.014,7.149c-2.837,2.289-5.505,4.499-8,6.678c-2.495,2.179-4.818,4.326-6.963,6.489
	c-1.073,1.082-2.101,2.167-3.085,3.261c-1.967,2.19-3.755,4.419-5.36,6.734c-1.233,1.779-2.323,3.632-3.337,5.534
	c-1.626,3.048-3.004,6.258-4.057,9.764c-1.282,4.271-2.133,8.946-2.539,14.185c-0.02,0.244-0.096,0.47-0.173,0.696
	c-0.128,0.374-0.302,0.728-0.561,1.02c-0.415,0.468-0.977,0.805-1.616,0.93c-2.235,0.436-4.371,0.905-6.416,1.408
	c-7.5,1.845-13.735,4.173-19.188,6.979c-1.38,0.711-2.711,1.457-3.992,2.233c-4.698,2.845-8.812,6.106-12.582,9.875
	c-7.75,7.748-14.21,17.525-22.15,29.642c-1.097,1.674-2.389,3.246-3.832,4.714c-4.329,4.405-10.015,7.879-15.875,10.392
	c-3.289,1.409-6.737,2.276-10.257,2.902c-9.672,1.721-19.92,1.522-29.149,4.965c-7.322,2.733-13.067,7.289-17.949,12.786
	c-3.254,3.664-6.125,7.745-8.822,11.982c-4.046,6.355-7.703,13.059-11.682,19.228c-2.383,3.694-4.941,7.177-7.663,10.459
	c-5.444,6.565-11.546,12.323-18.227,17.343c-13.362,10.039-29.039,17.125-46.401,21.798c-4.341,1.169-8.787,2.186-13.328,3.061
	c-0.621,0.119-1.135,0.404-1.525,0.788c-1.17,1.152-1.228,3.199,0.253,4.385c0.088,0.07,0.19,0.125,0.277,0.195
	c3.161,2.512,6.502,4.863,10.024,7.042c1.22,0.754,2.57,1.379,3.83,2.094c2.478,1.407,4.924,2.846,7.545,4.105
	c1.627,0.781,3.38,1.423,5.058,2.149c2.399,1.037,4.751,2.126,7.247,3.053c1.941,0.72,3.992,1.301,5.986,1.955
	c2.362,0.775,4.677,1.608,7.107,2.293c2.257,0.636,4.607,1.136,6.918,1.696c2.267,0.55,4.492,1.16,6.806,1.638
	c2.601,0.538,5.277,0.942,7.928,1.392c2.101,0.356,4.166,0.774,6.294,1.075c2.966,0.422,5.986,0.713,8.995,1.032
	c1.86,0.198,3.695,0.453,5.569,0.612c3.356,0.285,6.745,0.445,10.132,0.611c1.551,0.076,3.088,0.205,4.643,0.257
	c3.723,0.124,7.458,0.13,11.191,0.119c1.223-0.003,2.444,0.037,3.667,0.019c4.061-0.059,8.113-0.229,12.155-0.438
	c0.881-0.045,1.767-0.057,2.646-0.11c4.361-0.26,8.693-0.626,12.996-1.05c0.537-0.054,1.082-0.085,1.618-0.141
	c4.564-0.473,9.078-1.044,13.536-1.691c0.26-0.038,0.528-0.065,0.787-0.104c4.644-0.685,9.216-1.462,13.7-2.323
	c0.069-0.013,0.141-0.024,0.21-0.037c13.715-2.644,26.577-6.082,37.976-10.128c0.002-0.001,0.004-0.001,0.006-0.002h-0.001
	c-16.651,2.938-33.484,5.037-50.481,6.58C367.378,761.185,327.885,763.475,298.949,743.628z"/>
<path style="fill:#202246;" d="M1559.24,761.33c-9.215,3.492-19.516-1.148-23.008-10.363c-3.483-9.191,1.129-19.457,10.296-22.975
	c-1.619,0.211-3.237,0.558-4.83,1.162c-11.064,4.192-16.635,16.561-12.442,27.625c4.193,11.064,16.561,16.634,27.625,12.442
	c9.274-3.515,14.601-12.777,13.64-22.198C1569.665,753.294,1565.575,758.929,1559.24,761.33z"/>
<path style="fill:#FFFFFF;" d="M1569.603,738.321c-3.492-9.215-13.794-13.854-23.008-10.363c-0.024,0.009-0.043,0.024-0.067,0.033
	c-9.167,3.518-13.778,13.784-10.296,22.975c3.492,9.215,13.793,13.854,23.008,10.363c6.335-2.401,10.425-8.036,11.28-14.307
	C1570.909,744.171,1570.694,741.201,1569.603,738.321z"/>
<path d="M1564.448,734.81c0.596,1.79,0.118,3.765-1.401,4.863c-1.895,1.369-4.608,0.835-6.059-1.194
	c-1.451-2.028-1.091-4.782,0.804-6.151c0.619-0.447,1.328-0.621,2.048-0.677c-2.381-0.857-5.052-0.947-7.603,0.02
	c-5.683,2.154-8.544,8.507-6.391,14.19c2.154,5.683,8.506,8.544,14.189,6.391c5.683-2.154,8.544-8.506,6.391-14.19
	C1565.958,736.829,1565.262,735.756,1564.448,734.81z"/>
<path style="fill:#8AB5BD;" d="M2106.41,470.569L2106.41,470.569c-6.851,79.24-30.087,157.042-67.813,227.06
	c-0.731,1.356-0.224,3.048,1.132,3.779c1.356,0.731,3.047,0.224,3.778-1.132c37.907-70.357,61.303-148.468,68.345-228.076
	c0.034-0.384,0.081-0.767,0.115-1.151c0.132-1.535-1.004-2.886-2.539-3.019c-0.548-0.047-1.046,0.11-1.5,0.347
	C2107.11,468.804,2106.494,469.583,2106.41,470.569z"/>
<path style="fill:#8AB5BD;" d="M1943.023,760.004c1.263,0.881,3.002,0.571,3.883-0.692c43.441-62.278,75.75-132.284,94.954-205.748
	c0.389-1.49-0.503-3.014-1.993-3.403c-1.49-0.389-3.014,0.503-3.403,1.993l0-0.001c-19.035,72.822-51.07,142.235-94.132,203.967
	C1941.45,757.384,1941.76,759.122,1943.023,760.004z"/>
<path style="fill:#8AB5BD;" d="M2012.825,744.793c-1.381-0.684-3.053-0.119-3.737,1.262l0,0
	c-43.097,87.035-108.023,163.185-187.151,219.5c-1.255,0.893-1.548,2.635-0.655,3.89c0.893,1.255,2.634,1.548,3.89,0.655
	c79.885-56.859,145.401-133.699,188.914-221.569C2014.77,747.149,2014.205,745.476,2012.825,744.793z"/>
<path style="fill:#8AB5BD;" d="M1942.128,620.385c1.325,0.786,3.036,0.35,3.823-0.975c32.53-54.805,56.876-114.451,71.987-176.365
	c0.365-1.497-0.552-3.005-2.048-3.37c-1.497-0.365-3.005,0.552-3.371,2.048v-0.001c-14.979,61.375-39.117,120.513-71.365,174.84
	C1940.367,617.887,1940.803,619.598,1942.128,620.385z"/>
<path style="fill:#8AB5BD;" d="M1761.269,871.308c-1.118,1.06-1.165,2.825-0.105,3.944c1.059,1.117,2.825,1.165,3.943,0.105
	c55.087-52.215,101.803-113.234,137.835-180.039c0.731-1.355,0.225-3.047-1.13-3.778c-1.356-0.731-3.047-0.225-3.779,1.131h0
	C1862.283,758.952,1815.925,819.504,1761.269,871.308z"/>
<path style="fill:#8AB5BD;" d="M1907.019,806.258c-1.291-0.841-3.018-0.476-3.859,0.814l0,0
	c-39.164,60.14-99.085,103.673-157.952,145.927c-1.251,0.899-1.537,2.641-0.639,3.893c0.899,1.251,2.641,1.537,3.893,0.639
	c58.855-42.28,119.421-86.125,159.371-147.415C1908.673,808.826,1908.309,807.099,1907.019,806.258z"/>
<path style="fill:#8AB5BD;" d="M1763.551,1001.699L1763.551,1001.699c-77.251,52.352-165.269,91.283-256.862,113.606
	c-1.395,0.34-2.251,1.746-1.91,3.142c0.34,1.395,1.747,2.251,3.142,1.911c92.199-22.473,180.769-61.645,258.547-114.354
	c1.189-0.805,1.499-2.422,0.694-3.611C1766.356,1001.204,1764.74,1000.893,1763.551,1001.699z"/>
<path style="fill:#8AB5BD;" d="M1711.087,935.207c1.219-1.017,1.383-2.829,0.367-4.047c-1.016-1.219-2.828-1.384-4.047-0.367v0
	c-69.328,57.802-151.657,98.669-239.052,118.669c-1.547,0.354-2.514,1.896-2.16,3.443c0.354,1.547,1.896,2.514,3.443,2.16
	C1557.927,1034.857,1641.063,993.586,1711.087,935.207z"/>
<path style="fill:#8AB5BD;" d="M1491.523,982.756c191.181-92.443,347.501-259.567,435.805-465.808
	c0.651-1.522-0.054-3.283-1.576-3.935c-1.522-0.651-3.283,0.054-3.934,1.576l-0.001-0.001
	c-87.754,204.971-243.121,371.014-432.905,462.77c-1.49,0.721-2.114,2.513-1.393,4.003
	C1488.24,982.853,1490.032,983.476,1491.523,982.756z"/>
<path style="fill:#8AB5BD;" d="M1085.405,1091.516L1085.405,1091.516c-45.691-22.815-88.153-52.094-125.722-86.688
	c-1.133-1.043-2.898-0.971-3.941,0.163c-1.044,1.133-0.971,2.898,0.163,3.941c37.956,34.949,80.847,64.524,127.008,87.574
	c1.378,0.688,3.053,0.128,3.741-1.25C1087.343,1093.879,1086.783,1092.204,1085.405,1091.516z"/>
<path style="fill:#3A3A68;" d="M1477.501,731.843c2.162-5.881,4.071-12.714,0.948-18.146c-4.017-6.986-13.737-7.561-21.772-6.942
	c-44.923,3.463-88.322,17.485-132.805,24.654c-80.158,12.918-161.545,3.099-240.556-12.583
	c-68.301-13.556-135.639-31.594-204.085-44.455c-33.886-6.368-68.043-11.536-102.444-14.104
	c-17.779-1.326-35.603-1.974-53.432-1.776c-8.6,0.095-26.265-2.91-26.717,4.837c-0.071,1.23,0.29,2.731,1.192,4.558
	c3.052,6.189,34.586,15.89,41.785,19.988c12.445,7.085,24.409,14.987,36.03,23.348c24.612,17.708,47.434,37.749,69.902,58.063
	c44.322,40.073,87.35,82.509,138.695,113.723c83.959,51.04,189.155,67.748,283.555,40.491
	C1362.196,896.243,1443.592,824.063,1477.501,731.843z"/>
<path style="fill:#3A3A68;" d="M1379.921,981.311c-31.744,54.236-113.539,58.075-121.995,82.403
	c-8.455,24.328-10.335,51.185-23.398,73.381c-28.783,48.91-101.329,59.06-127.713,109.303
	c-10.804,20.575-11.947,44.811-19.919,66.64c-17.774,48.669-67.267,80.46-84.983,129.149
	c75.342-25.295,139.112-79.68,197.882-133.181c38.228-34.801,75.444-71.136,106.095-112.766
	c30.651-41.63,55.401-79.791,72.615-128.538C1392.033,1029.392,1379.921,981.311,1379.921,981.311z"/>
<path style="fill:#92B8BF;" d="M1917.85,705.335c-11.189,15.547-13.882,32.741-6.014,38.403c7.868,5.663,23.316-2.351,34.505-17.897
	c11.189-15.547,13.882-32.741,6.014-38.403C1944.489,681.775,1929.04,689.788,1917.85,705.335z"/>
<path style="fill:#92B8BF;" d="M1936.839,799.668c-6.256,8.691-7.76,18.304-3.362,21.469c4.399,3.166,13.036-1.314,19.291-10.006
	c6.256-8.691,7.761-18.304,3.362-21.469C1951.73,786.497,1943.094,790.976,1936.839,799.668z"/>
<path style="fill:#92B8BF;" d="M1983.307,640.9c5.354-9.274,5.89-18.989,1.197-21.699c-4.693-2.709-12.838,2.612-18.193,11.886
	c-5.354,9.274-5.89,18.988-1.196,21.698C1969.808,655.495,1977.953,650.174,1983.307,640.9z"/>
<path style="fill:#92B8BF;" d="M1870.768,792.625c-8.794,8.794-12.316,19.532-7.865,23.982c4.451,4.451,15.188,0.929,23.982-7.865
	c8.795-8.795,12.316-19.532,7.865-23.982C1890.299,780.31,1879.562,783.831,1870.768,792.625z"/>
<path style="fill:#92B8BF;" d="M1992.044,711.007c-6.13,8.517-7.605,17.937-3.295,21.039c4.31,3.102,12.774-1.287,18.904-9.804
	c6.13-8.517,7.605-17.937,3.295-21.039C2006.638,698.1,1998.174,702.49,1992.044,711.007z"/>
<path style="fill:#92B8BF;" d="M1885.41,866.276c-5.739,5.739-8.037,12.746-5.133,15.65c2.905,2.904,9.911,0.606,15.651-5.133
	c5.739-5.739,8.036-12.745,5.132-15.65C1898.156,858.239,1891.149,860.537,1885.41,866.276z"/>
<path style="fill:#92B8BF;" d="M1858.626,728.19c6.13-8.518,7.605-17.936,3.295-21.039c-4.31-3.102-12.774,1.288-18.904,9.805
	c-6.13,8.517-7.605,17.937-3.294,21.039C1844.033,741.097,1852.496,736.708,1858.626,728.19z"/>
<path style="fill:#92B8BF;" d="M1913.124,648.56c7.507-11.793,8.755-24.434,2.787-28.233c-5.968-3.799-16.893,2.681-24.401,14.474
	c-7.507,11.793-8.755,24.434-2.787,28.234C1894.693,666.834,1905.616,660.353,1913.124,648.56z"/>
</svg>
