<?xml version="1.0" standalone="no"?><!DOCTYPE svg PUBLIC "-//W3C//DTD SVG 1.1//EN" "http://www.w3.org/Graphics/SVG/1.1/DTD/svg11.dtd"><svg t="1779954009798" class="icon" viewBox="0 0 1024 1024" version="1.1" xmlns="http://www.w3.org/2000/svg" p-id="1930" xmlns:xlink="http://www.w3.org/1999/xlink" width="200" height="200"><path d="M266.517333 535.744C267.349333 513.621333 256.810667 490.666667 234.666667 490.666667c-64 0-106.666667-128-106.666667-128s-26.794667 35.882667-45.717333 84.288c40 34.88 107.562667 81.621333 184.341333 85.76 0.021333 1.024-0.064 2.026667-0.106667 3.029333zM128 704s42.666667-128 106.666667-128c20.48 0 31.018667-19.669333 31.850666-40.128-67.712 16.170667-141.098667 56.725333-184.405333 83.392C101.034667 667.925333 128 704 128 704z" fill="#5C6BC0" p-id="1931"></path><path d="M266.624 532.714667c-76.8-4.117333-144.362667-50.88-184.341333-85.76l-0.042667 0.170666c-2.496 6.421333-4.885333 13.056-7.018667 19.882667l-0.149333 0.469333a268.8 268.8 0 0 0-5.589333 20.629334l-0.448 2.261333c-1.258667 5.781333-2.261333 11.626667-3.072 17.493333-0.234667 1.706667-0.469333 3.413333-0.661334 5.12A175.829333 175.829333 0 0 0 64 533.333333c0 6.741333 0.512 13.504 1.258667 20.202667 0.192 1.749333 0.426667 3.456 0.661333 5.184 0.789333 5.76 1.770667 11.477333 2.986667 17.109333l0.533333 2.602667c1.578667 6.933333 3.434667 13.802667 5.525333 20.501333l0.042667 0.192a316.245333 316.245333 0 0 0 7.082667 20.117334c43.306667-26.645333 116.693333-67.2 184.405333-83.370667v-0.128c0.064-1.002667 0.149333-2.005333 0.128-3.029333z" fill="#1A237E" p-id="1932"></path><path d="M750.208 295.125333S597.333333 192 405.333333 192c-170.666667 0-176 78.677333-170.666666 106.666667 3.989333 20.949333 64 149.333333 0 192l515.541333-195.541334z" fill="#F9A825" p-id="1933"></path><path d="M234.666667 533.333333c64 42.666667 2.88 170.858667 0 192-4.010667 29.333333 0 106.666667 170.666666 106.666667 192 0 344.874667-103.082667 344.874667-103.082667L234.666667 533.333333z" fill="#FFC107" p-id="1934"></path><path d="M953.749333 531.84s-82.346667-35.242667-122.218666-124.245333C800.448 317.141333 733.952 256 618.666667 256c-213.333333 0-320 192-384 234.666667 0 0-21.333333 20.821333-21.333334 42.666666 0 16.448 21.333333 42.666667 21.333334 42.666667 64 42.666667 149.333333 213.333333 320 213.333333 257.792 0 399.082667-227.328 399.082666-227.328a21.312 21.312 0 0 0 0-30.165333z" fill="#FFC107" p-id="1935"></path><path d="M953.749333 531.84s-82.346667-35.242667-122.218666-124.245333C800.448 317.141333 733.952 256 618.666667 256c-213.333333 0-320 192-384 234.666667 0 0-21.333333 20.821333-21.333334 42.666666 0 16.448 21.333333 42.666667 21.333334 42.666667 64 42.666667 149.333333 213.333333 320 213.333333 257.792 0 399.082667-227.328 399.082666-227.328a21.312 21.312 0 0 0 0-30.165333z" fill="#FFC107" p-id="1936"></path><path d="M283.050667 709.248c0.768-16.64 5.312-49.749333 1.28-85.610667a740.842667 740.842667 0 0 0-21.546667-23.104C261.909333 652.010667 235.221333 711.424 234.666667 725.333333c-1.344 33.344 0 106.666667 170.666666 106.666667 3.136 0 6.165333-0.256 9.28-0.298667-115.52-3.2-133.269333-85.034667-131.562666-122.453333zM234.666667 490.666667c14.784-9.856 32-27.882667 52.138666-49.472 21.738667-42.325333 10.154667-91.242667 3.861334-111.872-14.677333-48 12.970667-133.290667 125.482666-136.981334C412.522667 192.298667 408.981333 192 405.333333 192c-170.666667 0-178.666667 77.333333-170.666666 106.666667 5.610667 20.586667 64 149.333333 0 192zM918.677333 510.997333c-18.325333-11.669333-75.008-83.690667-124.906666-83.690666C725.333333 427.306667 704 554.666667 704 554.666667s60.010667 102.997333 75.669333 171.669333c36.650667-23.573333 44.330667-27.328 60.010667-41.344 5.162667-23.210667 9.984-126.314667 78.997333-173.994667z" fill="#3F51B5" p-id="1937"></path><path d="M832 512m-21.333333 0a21.333333 21.333333 0 1 0 42.666666 0 21.333333 21.333333 0 1 0-42.666666 0Z" p-id="1938"></path><path d="M359.808 703.296L341.333333 469.333333l-15.765333 199.808a680.768 680.768 0 0 0 34.24 34.154667zM431.338667 756.16L405.333333 426.666667l-23.36 295.786666a346.453333 346.453333 0 0 0 49.365334 33.706667zM469.333333 398.250667l-28.672 363.157333c18.261333 9.344 37.952 16.618667 59.050667 21.461333L469.333333 398.250667zM565.354667 789.034667a424.298667 424.298667 0 0 0 63.530666-6.250667L597.333333 341.333333l-31.978666 447.701334zM533.333333 362.666667l-31.552 420.629333c16.725333 3.690667 34.218667 6.037333 52.885334 6.037333 3.605333 0 7.082667-0.213333 10.645333-0.298666L533.333333 362.666667zM661.333333 320l-32 462.250667h2.517334a433.472 433.472 0 0 0 60.394666-15.658667L661.333333 320z" fill="#FF9100" p-id="1939"></path></svg>